<svg xmlns="http://www.w3.org/2000/svg" viewBox="0 0 73.19 78.39"><defs><style>.cls-1{fill:#fff;}</style></defs><g id="Capa_2" data-name="Capa 2"><g id="Capa_1-2" data-name="Capa 1"><path class="cls-1" d="M39.82,30.2c.07,1.61-.71,2.6-1.9,2.73a2,2,0,0,1-2.32-2,2.93,2.93,0,0,0-4.31-2.18,2.25,2.25,0,0,0-1.4,2,2.06,2.06,0,0,0,1.37,2,5.93,5.93,0,0,0,1.87.38c5.12.33,8.25,5.42,5.95,9.69a6.64,6.64,0,0,1-3.37,3,1.26,1.26,0,0,0-1,1.12,2,2,0,0,1-2,1.66A2,2,0,0,1,30.67,47a1.44,1.44,0,0,0-1-1.18,6.59,6.59,0,0,1-4-5.32,2.28,2.28,0,0,1,1.83-2.82c1.23-.18,2.19.67,2.42,2.15A2.56,2.56,0,0,0,32,42.14a3,3,0,0,0,3.1-1,2,2,0,0,0-.53-3,5.21,5.21,0,0,0-2.22-.63A7.06,7.06,0,0,1,25.71,32c-.59-3.12,1-5.86,4.14-7.35a1.72,1.72,0,0,0,.76-1,2.15,2.15,0,0,1,4.22.09,1.74,1.74,0,0,0,.82.93A6.64,6.64,0,0,1,39.82,30.2Z"/><path class="cls-1" d="M64.47,23.4l-1.56-1.23c-1.4-1.11-2.86-2.26-4.33-3.34a2,2,0,0,1-1-1.93c.05-3.93,0-7.92,0-11.79V1.93C57.65.62,57.05,0,55.76,0H45.89A1.63,1.63,0,0,0,44.05,1.8c0,.23,0,.45,0,.68V7.41l0,0L41.57,5.47c-1.79-1.4-3.64-2.85-5.47-4.25a5.4,5.4,0,0,0-6.84,0l-26,20.37L.84,23.5a1.66,1.66,0,0,0-.31,2.67c1.12,1.44,2.23,2.86,3.3,4.2a1.64,1.64,0,0,0,2.6.34c.41-.3.81-.61,1.23-.94l.07-.05V54.41H6.1c-1.69,0-2.21.51-2.21,2.17v4.13c0,1.59.55,2.12,2.16,2.12H37.54c1.21,0,2-.6,2-1.59a1.5,1.5,0,0,0-.41-1.1,2.21,2.21,0,0,0-1.59-.55H7.16V57.65H45.1a4.3,4.3,0,0,0,.62,0,1.61,1.61,0,0,0,0-3.22c-.21,0-.42,0-.62,0H11V51.82c0-8,0-16.23,0-24.34a.92.92,0,0,1,.32-.58l12.24-9.61,8.84-6.92c.25-.2.32-.2.57,0l8.54,6.7c4.11,3.21,8.36,6.55,12.53,9.83a1.06,1.06,0,0,1,.32.68c0,1.09,0,2.21,0,3.29v1.48A2.11,2.11,0,0,0,55,33.92a1.51,1.51,0,0,0,1.12.41c1,0,1.56-.77,1.57-2V29.69l.93.71.34.26a1.69,1.69,0,0,0,2.72-.34c1-1.31,2.11-2.68,3.2-4.08C65.73,25.1,65.62,24.31,64.47,23.4ZM47.29,4.28v-1h7.07V15.49l-1.08-.84-3.87-3c-.23-.18-.48-.35-.72-.51a3.67,3.67,0,0,1-1.32-1.18,3.68,3.68,0,0,1-.13-1.76c0-.3,0-.6,0-.89Q47.28,5.8,47.29,4.28Zm12.6,23L49.28,19,34.17,7.19a2.54,2.54,0,0,0-1.45-.73,2.64,2.64,0,0,0-1.49.75l-25,19.58c-.18.15-.36.29-.57.44l-.08.07L3.9,25.22l1.33-1,3.4-2.67L31.06,4a2.26,2.26,0,0,1,3.2-.09L57.37,22l4,3.15.13.1Z"/><path class="cls-1" d="M73,60.54a1.76,1.76,0,0,0-1.85-.95H65.42V38.3c0-1.46-.57-2-2-2h-12c-1.68,0-2.19.51-2.19,2.18V59.59H43.39a1.74,1.74,0,0,0-1.77.95,1.72,1.72,0,0,0,.49,2L50.74,72l5.1,5.57a1.72,1.72,0,0,0,3,0l5-5.43,8.69-9.48A1.76,1.76,0,0,0,73,60.54Zm-8.71,2.29h3.57L57.33,74.36,46.76,62.83h3.69c1.45,0,2-.57,2-2V39.57h9.71V60.68C62.18,62.29,62.72,62.83,64.32,62.83Z"/></g></g></svg>