<svg xmlns="http://www.w3.org/2000/svg" viewBox="0 0 78.39 78.38"><defs><style>.cls-1{fill:#fff;}</style></defs><g id="Capa_2" data-name="Capa 2"><g id="Capa_1-2" data-name="Capa 1"><path class="cls-1" d="M77.69,11.94,76.5,10.76c-.67-.66-1.36-1.34-2-2a2.91,2.91,0,0,0-2.3-1h-56V7.34a12.88,12.88,0,0,0,0-1.65,2.55,2.55,0,0,0-.58-1.41C14.4,3,13.18,1.82,11.93.6a1.59,1.59,0,0,0-2.51,0L9.18.86C8.06,2,6.91,3.08,5.82,4.25a2.6,2.6,0,0,0-.61,1.47,13.33,13.33,0,0,0,0,1.68c0,.13,0,.26,0,.39H1.93C.6,7.8,0,8.4,0,9.75v7c0,1.54.56,2.09,2.12,2.09H5.18V76.24a3.43,3.43,0,0,0,0,.78,1.57,1.57,0,0,0,1.52,1.36h.1A1.61,1.61,0,0,0,8.39,77a2.66,2.66,0,0,0,0-.63V61.93q0-27.54,0-55.06a1.53,1.53,0,0,1,.13-.77c.5-.59,1-1.16,1.63-1.76l.47-.48.42.44c.45.47.87.91,1.31,1.32A1.62,1.62,0,0,1,13,7c0,20.63,0,41.6,0,61.89V76c0,.08,0,.15,0,.23A3.41,3.41,0,0,0,13,77a1.61,1.61,0,0,0,3.19,0,4.26,4.26,0,0,0,0-.71c0-.08,0-.16,0-.23V18.84H28.45v4.5H25.26a4.23,4.23,0,0,0-4.53,4.5v35.7A4.19,4.19,0,0,0,25.2,68Q47,68,68.75,68a4.21,4.21,0,0,0,4.44-4.43V27.81a4.2,4.2,0,0,0-4.49-4.47H65.47V18.8h1.62c1.79,0,3.65,0,5.47,0a2.69,2.69,0,0,0,1.63-.67c1-.92,2-1.92,2.94-2.89l.58-.59A1.66,1.66,0,0,0,77.69,11.94ZM3.29,15.51V11.07H5.15v4.44ZM68.4,26.57c1.32,0,1.55.23,1.55,1.53V63.24c0,1.31-.23,1.55-1.53,1.55H25.51c-1.31,0-1.54-.23-1.54-1.53V28.12c0-1.31.22-1.55,1.52-1.55ZM31.77,23.28V18.85H62.11v4.43Zm42.32-9.5c-.63.6-1.22,1.16-1.83,1.68a1.44,1.44,0,0,1-.7.1H16.23V11h55.3a1.43,1.43,0,0,1,1.16.49c.44.47.92.91,1.43,1.37l.46.43Z"/><path class="cls-1" d="M64.6,41,64,40.55c-4.73-3.65-9.63-7.42-14.46-11.11a4.14,4.14,0,0,0-5.32.06L29.84,40.58l-.46.36A1.68,1.68,0,0,0,29,43.66c.31.4.61.8.92,1.19.53.68,1.08,1.38,1.59,2.09a2.06,2.06,0,0,0,2.13,1.11V60.73c0,1.56.55,2.11,2.1,2.11H58c1.56,0,2.12-.54,2.12-2.09,0-2.91,0-5.81,0-8.72V48c1.06.14,1.39-.05,2.11-1l.7-.91c.65-.84,1.31-1.7,2-2.56A1.64,1.64,0,0,0,64.6,41ZM45.5,35l-7.62,5.85-3.86,3c-.13.11-.27.21-.44.33l0,0L32.4,42.73l.36-.3L46.1,32.17c.72-.55,1-.56,1.63-.07l12,9.19,1.84,1.42-1.14,1.48-.4-.28L55,40.11,48.45,35C47.17,34.06,46.76,34.05,45.5,35Zm3.71,24.52H44.67V51.25h4.54Zm7.71-2.22v2.06a1.09,1.09,0,0,1,0,.18H52.46V50c0-1.45-.57-2-2-2q-3.52,0-7,0c-1.45,0-2,.57-2,2v9.6H36.94c0-.1,0-.2,0-.29V58.1c0-3.91,0-8,0-11.92a1,1,0,0,1,.22-.64c2.67-2.08,5.29-4.09,8.06-6.22L47,38l.15.12.78.6,1.79,1.37c2.24,1.72,4.54,3.49,6.79,5.25a1.11,1.11,0,0,1,.43.71C56.93,49.79,56.93,53.62,56.92,57.32Z"/></g></g></svg>