<svg xmlns="http://www.w3.org/2000/svg" xmlns:xlink="http://www.w3.org/1999/xlink" viewBox="0 0 362.47 362.36"><defs><style>.cls-1{fill:url(#Degradado_sin_nombre_27);}.cls-2{fill:url(#Degradado_sin_nombre_75);}.cls-3{fill:url(#Degradado_sin_nombre_84);}.cls-4{fill:url(#Degradado_sin_nombre_59);}.cls-5{fill:url(#Degradado_sin_nombre_61);}</style><linearGradient id="Degradado_sin_nombre_27" x1="-40.8" y1="284.66" x2="345.43" y2="61.67" gradientUnits="userSpaceOnUse"><stop offset="0" stop-color="#c0c0ca"/><stop offset="0.1" stop-color="#c5c5ce"/><stop offset="0.22" stop-color="#d4d4db"/><stop offset="0.35" stop-color="#ededf0"/><stop offset="0.43" stop-color="#fff"/><stop offset="0.58" stop-color="#eaeaed"/><stop offset="0.85" stop-color="#cacad2"/><stop offset="1" stop-color="#bebec8"/></linearGradient><linearGradient id="Degradado_sin_nombre_75" x1="111.91" y1="97.41" x2="164.86" y2="66.84" gradientUnits="userSpaceOnUse"><stop offset="0" stop-color="#e6e6ea"/><stop offset="0.23" stop-color="#fff"/><stop offset="1" stop-color="#d3d3da"/></linearGradient><linearGradient id="Degradado_sin_nombre_84" x1="98.55" y1="177.17" x2="182.4" y2="128.76" gradientUnits="userSpaceOnUse"><stop offset="0" stop-color="#e8e8eb"/><stop offset="0.43" stop-color="#fff"/><stop offset="1" stop-color="#e3e3e7"/></linearGradient><linearGradient id="Degradado_sin_nombre_59" x1="104.63" y1="252.64" x2="176.14" y2="211.35" gradientUnits="userSpaceOnUse"><stop offset="0" stop-color="#d2d2d9"/><stop offset="0.07" stop-color="#e6e6ea"/><stop offset="0.16" stop-color="#f4f4f6"/><stop offset="0.26" stop-color="#fcfcfd"/><stop offset="0.43" stop-color="#fff"/><stop offset="0.74" stop-color="#f8f8f9"/><stop offset="1" stop-color="#eeeef1"/></linearGradient><linearGradient id="Degradado_sin_nombre_61" x1="116.37" y1="288.87" x2="128.5" y2="281.86" gradientUnits="userSpaceOnUse"><stop offset="0" stop-color="#cfcfd7"/><stop offset="0.21" stop-color="#dadae0"/><stop offset="0.75" stop-color="#f1f1f3"/></linearGradient></defs><g id="Capa_2" data-name="Capa 2"><g id="Capa_1-2" data-name="Capa 1"><path class="cls-1" d="M268.84,362.36H9.71A9.65,9.65,0,0,1,0,352.87v-.13Q.15,181.1.08,9.47C.08,2.25,2.35,0,9.65,0h259.7c7.18,0,9.48,2.34,9.48,9.6V118.88c4.69,0,8.82-.2,12.92.07,3.08.2,4.79-.77,6.36-3.57,7.59-13.57,15.45-27,23.25-40.45,3.12-5.4,6.63-6.36,12-3.27,7.77,4.45,15.58,8.84,23.21,13.51,2,1.2,3.52,3.11,5.19,4.8l.6,4.85-14.22,24.11c5.93-.14,11.35-1,14.22,4.9l-.15,4.53c-2.07,3.65-5.2,5.1-9.46,4.73-3-.26-6.14.13-9.19-.11-2.56-.19-4,.68-5.25,3-8.87,15.64-18,31.15-26.84,46.79a21.86,21.86,0,0,0-2.65,7.64c-2.31,15.72-13.51,28.56-29.12,31.82-6.37,1.33-13.1,1.06-19.67,1.28-7,.23-11.64,4.3-11.66,10.54s4.69,10.67,11.54,10.71c8.37.06,16.78.51,25.1-.13a168.9,168.9,0,0,0,25.41-3.85c14.63-3.45,26.78-11.88,38.66-20.7,6.19-4.6,9.77-3.68,13.37,3.05L362.2,226c-1.41,1.72-2.63,3.68-4.33,5-3.77,3-7.77,5.74-11.77,8.46a106.31,106.31,0,0,1-47.36,18.22c-5.57.68-11.19,1-17,1.41l-2.92,3.14c0,30-.07,60.05.07,90.07v.14A10,10,0,0,1,268.84,362.36ZM212.35,185.47l1.52-6c6.63-26.37,22.31-45,47.56-55.34,2.46-1,3.33-2,3.32-4.74-.1-33.85-.07-67.7-.08-101.55,0-1.14-.1-2.28-.16-3.46H14.42v333.5h250V265.4c-2.21,1.86-4.25,3.78-6.49,5.44-8.43,6.23-17,12.3-25.37,18.61a15,15,0,0,1-9.06,3c-22.19-.1-44.38-.05-66.57-.06a29.74,29.74,0,0,1-3.53-.11,6.85,6.85,0,0,1-6.12-6.3,6.77,6.77,0,0,1,4.92-7.26,17.21,17.21,0,0,1,4.54-.46q29.36,0,58.72,0h4.19c1.14-10.53,2.24-20.79,3.35-31a7,7,0,0,0-1.22-.48c-12.54-2.05-21.86-15-17.29-29.55,1.78-5.66,2.88-11.53,4.37-17.6H66.57c-1.18,0-2.36,0-3.53,0a7,7,0,0,1-.47-14,31.33,31.33,0,0,1,3.88-.08h145.9Zm75.24-52.32c-1.18,0-1.77,0-2.35,0C259.77,134.71,237,152,229.56,176.47c-4.68,15.42-8.13,31.22-11.91,46.9-1.36,5.63,4.13,11,9.54,9.17a13.06,13.06,0,0,0,6.29-5.6c17.53-30,34.86-60.15,52.23-90.25C286.29,135.69,286.8,134.65,287.59,133.15Zm43.34-46.52-71,123c6-.33,11-.48,15.88-.93,4.15-.38,6.76-2.92,8.65-8.15a324.59,324.59,0,0,1,57-98.84,34.19,34.19,0,0,0,4.09-6.68Zm-80,171.82-13.67-10.37c-.79,7.07-1.59,14.15-2.5,22.17Z"/><path class="cls-2" d="M161.7,65.25c.23,5.3-2.32,8.57-6.23,9a6.73,6.73,0,0,1-7.63-6.55c-.52-7-8.54-10-14.18-7.15-2.71,1.38-4.55,3.51-4.58,6.62a6.81,6.81,0,0,0,4.5,6.62A20.27,20.27,0,0,0,139.73,75c18.37,1.2,29,21,17,35.64a22.27,22.27,0,0,1-8.64,6.22c-1.68.72-2.68,1.52-3,3.61a6.56,6.56,0,0,1-6.49,5.45,6.64,6.64,0,0,1-6.93-5.35c-.42-2.18-1.54-3-3.4-3.88-7.5-3.43-12.07-9.21-13.25-17.49-.69-4.86,1.79-8.63,6-9.25,4-.58,7.17,2.21,8,7.06.64,4,3,6.67,7,7.46s7.56-.07,10.18-3.36a6.57,6.57,0,0,0-1.74-9.85,17,17,0,0,0-7.3-2.07c-10.81-.72-19.89-8.09-21.78-18-2-10.23,3.23-19.26,13.61-24.13a5.73,5.73,0,0,0,2.5-3.23c1.12-3.35,3.63-5.58,6.88-5.59s5.91,2.31,7,5.87A5.73,5.73,0,0,0,148,47.18C156.14,51,160.93,57.14,161.7,65.25Z"/><path class="cls-3" d="M140.38,160c-15.79,0-31.59,0-47.39,0-4.33,0-7.28-3-7.28-7,0-3.78,2.88-6.73,7-7.07.93-.08,1.88,0,2.82,0h34.66q27.77,0,55.53,0a17.12,17.12,0,0,1,4.53.43,6.92,6.92,0,0,1,5.07,7.2,7.06,7.06,0,0,1-6.44,6.44c-1.64.15-3.3.07-5,.07Z"/><path class="cls-4" d="M140.53,225.11c12.84,0,25.68-.05,38.53,0,6.25,0,10.13,5.68,6.91,10.39a9,9,0,0,1-6.3,3.55c-26,.24-52.07.18-78.11.14-4.64,0-7.56-2.85-7.54-7.06s3-7,7.63-7C114.61,225.07,127.57,225.11,140.53,225.11Z"/><path class="cls-5" d="M122.19,292.36a7,7,0,0,1,.26-14.06,7.24,7.24,0,0,1,7,7.37A7,7,0,0,1,122.19,292.36Z"/></g></g></svg>