<svg xmlns="http://www.w3.org/2000/svg" xmlns:xlink="http://www.w3.org/1999/xlink" viewBox="0 0 835.41 835.42"><defs><style>.cls-1{fill:#fff;}.cls-2{fill:#4a668e;}.cls-3{fill:url(#Degradado_sin_nombre_27);}.cls-4{fill:url(#Degradado_sin_nombre_27-2);}.cls-5{fill:url(#Degradado_sin_nombre_136);}</style><linearGradient id="Degradado_sin_nombre_27" x1="1.33" y1="382.75" x2="834.09" y2="452.66" gradientUnits="userSpaceOnUse"><stop offset="0" stop-color="#c0c0ca"/><stop offset="0.1" stop-color="#c5c5ce"/><stop offset="0.22" stop-color="#d4d4db"/><stop offset="0.35" stop-color="#ededf0"/><stop offset="0.43" stop-color="#fff"/><stop offset="0.58" stop-color="#eaeaed"/><stop offset="0.85" stop-color="#cacad2"/><stop offset="1" stop-color="#bebec8"/></linearGradient><linearGradient id="Degradado_sin_nombre_27-2" x1="186.41" y1="527.75" x2="622.64" y2="275.89" xlink:href="#Degradado_sin_nombre_27"/><linearGradient id="Degradado_sin_nombre_136" x1="377.33" y1="516.18" x2="547.73" y2="417.81" gradientUnits="userSpaceOnUse"><stop offset="0" stop-color="#d5d5dc"/><stop offset="0.13" stop-color="#e4e4e9"/><stop offset="0.38" stop-color="#fff"/><stop offset="0.65" stop-color="#e9e9ec"/><stop offset="1" stop-color="#d0d0d7"/></linearGradient></defs><g id="Capa_2" data-name="Capa 2"><g id="Capa_1-2" data-name="Capa 1"><path class="cls-1" d="M824.32,417.71a405.12,405.12,0,0,1-27.83,148.11C737.3,717.15,590,824.32,417.72,824.32c-224.57,0-406.64-182-406.64-406.61S193.15,11.07,417.72,11.07c172.31,0,319.56,107.17,378.77,258.51A405.27,405.27,0,0,1,824.32,417.71Z"/><circle class="cls-2" cx="417.71" cy="417.7" r="321.53"/><path class="cls-3" d="M429.46,835.42a11.23,11.23,0,0,1-.31-22.45,396.84,396.84,0,0,0,44.15-3.71,11.23,11.23,0,1,1,3.14,22.23,418,418,0,0,1-46.67,3.92Zm-45.57-1.28-.91,0-.19,0a421.39,421.39,0,0,1-46.23-6.46,11.23,11.23,0,1,1,4.34-22,401.72,401.72,0,0,0,43.73,6.11h.14a11.23,11.23,0,0,1-.88,22.42ZM519.57,822.7a11.23,11.23,0,0,1-2.8-22.1A394,394,0,0,0,559,787.09a11.23,11.23,0,1,1,8,21,415.81,415.81,0,0,1-44.63,14.28A11,11,0,0,1,519.57,822.7Zm-225-6.15a11.1,11.1,0,0,1-3.39-.53,414.39,414.39,0,0,1-43.83-16.65,11.23,11.23,0,0,1,9.15-20.51A392.66,392.66,0,0,0,298,794.62a11.23,11.23,0,0,1-3.39,21.93Zm310-26.42a11.22,11.22,0,0,1-5.18-21.19,398.6,398.6,0,0,0,38.15-22.58A11.23,11.23,0,0,1,650.05,765a420,420,0,0,1-40.31,23.85A11.13,11.13,0,0,1,604.58,790.13Zm-393.2-10.7a11.12,11.12,0,0,1-5.69-1.56,417.32,417.32,0,0,1-39-26,11.23,11.23,0,0,1,13.51-18,394.88,394.88,0,0,0,36.87,24.64,11.23,11.23,0,0,1-5.72,20.9ZM680.2,739.48A11.23,11.23,0,0,1,673,719.67a396.35,396.35,0,0,0,32.22-30.47,11.23,11.23,0,0,1,16.31,15.43,420.68,420.68,0,0,1-34,32.19A11.15,11.15,0,0,1,680.2,739.48Zm-541.57-14.8a11.19,11.19,0,0,1-7.71-3.07,418.93,418.93,0,0,1-32.2-34,11.23,11.23,0,0,1,17.14-14.5,399.62,399.62,0,0,0,30.48,32.2,11.23,11.23,0,0,1-7.71,19.39Zm604.12-51.36a11.23,11.23,0,0,1-9-18,396.16,396.16,0,0,0,24.65-36.86,11.23,11.23,0,1,1,19.34,11.42,418.7,418.7,0,0,1-26,39A11.24,11.24,0,0,1,742.75,673.32ZM79.84,655.18a11.23,11.23,0,0,1-9.34-5,421.91,421.91,0,0,1-23.87-40.29,11.23,11.23,0,1,1,19.93-10.35A401.88,401.88,0,0,0,89.15,637.7a11.22,11.22,0,0,1-9.31,17.48ZM789,594.89a11.1,11.1,0,0,1-4.57-1,11.23,11.23,0,0,1-5.67-14.83,391.73,391.73,0,0,0,15.77-41.45A11.23,11.23,0,0,1,816,544.42a414.41,414.41,0,0,1-16.68,43.82A11.21,11.21,0,0,1,789,594.89ZM37.91,574.41a11.23,11.23,0,0,1-10.49-7.21,418.18,418.18,0,0,1-14.3-44.63,11.23,11.23,0,0,1,21.74-5.63,391.73,391.73,0,0,0,13.53,42.21,11.24,11.24,0,0,1-10.48,15.26ZM816.6,508.1a11,11,0,0,1-2.19-.22,11.22,11.22,0,0,1-8.84-13.18,400.33,400.33,0,0,0,6.14-43.92l.06-.71a11.23,11.23,0,0,1,22.39,1.8l-.07.79A425.16,425.16,0,0,1,827.6,499,11.23,11.23,0,0,1,816.6,508.1ZM15.05,486.28A11.23,11.23,0,0,1,4,476.63,418.22,418.22,0,0,1,0,430a11.23,11.23,0,1,1,22.45-.63,397.06,397.06,0,0,0,3.73,44.15,11.22,11.22,0,0,1-9.54,12.69A10.81,10.81,0,0,1,15.05,486.28Zm809.12-69.67A11.23,11.23,0,0,1,813,405.71a392.21,392.21,0,0,0-3.77-44.14,11.23,11.23,0,0,1,22.24-3.17,418.28,418.28,0,0,1,4,46.66,11.23,11.23,0,0,1-10.9,11.55ZM12.5,395.29c-.32,0-.64,0-1,0A11.22,11.22,0,0,1,1.3,383.11l0-.33a425.39,425.39,0,0,1,6.42-46,11.23,11.23,0,1,1,22,4.32,401.2,401.2,0,0,0-6.08,43.55l0,.38A11.23,11.23,0,0,1,12.5,395.29Zm798.82-68.77a11.24,11.24,0,0,1-10.86-8.41,393.07,393.07,0,0,0-13.56-42.19,11.23,11.23,0,1,1,21-8.07,418.06,418.06,0,0,1,14.34,44.61,11.26,11.26,0,0,1-10.88,14.06ZM30,306a11.25,11.25,0,0,1-10.71-14.62A416,416,0,0,1,36,247.52a11.23,11.23,0,0,1,20.51,9.14,393.37,393.37,0,0,0-15.74,41.46A11.23,11.23,0,0,1,30,306Zm748.62-64.4a11.21,11.21,0,0,1-10-6,398.44,398.44,0,0,0-22.63-38.11,11.23,11.23,0,1,1,18.64-12.53,422.13,422.13,0,0,1,23.91,40.28,11.23,11.23,0,0,1-10,16.41ZM67.11,222.78a11.24,11.24,0,0,1-9.67-16.93,418.69,418.69,0,0,1,26-39,11.23,11.23,0,1,1,18,13.5,392.87,392.87,0,0,0-24.62,36.88A11.22,11.22,0,0,1,67.11,222.78ZM727.89,166a11.21,11.21,0,0,1-8.57-4,399.6,399.6,0,0,0-30.51-32.17,11.23,11.23,0,1,1,15.41-16.34,422.32,422.32,0,0,1,32.23,34A11.22,11.22,0,0,1,727.89,166ZM121.83,150a11.22,11.22,0,0,1-8.16-18.94,422.42,422.42,0,0,1,34-32.22A11.23,11.23,0,0,1,162.19,116,399.83,399.83,0,0,0,130,146.47,11.21,11.21,0,0,1,121.83,150Zm539.81-46.45a11.17,11.17,0,0,1-6.74-2.25A397.43,397.43,0,0,0,618,76.69a11.22,11.22,0,1,1,11.38-19.35,418.12,418.12,0,0,1,39,26,11.23,11.23,0,0,1-6.75,20.2ZM191.32,91.16a11.23,11.23,0,0,1-6.27-20.56,422.1,422.1,0,0,1,40.29-23.89,11.23,11.23,0,1,1,10.35,19.93,397.57,397.57,0,0,0-38.12,22.61A11.21,11.21,0,0,1,191.32,91.16ZM583.14,57.37a11.17,11.17,0,0,1-4.56-1,392.58,392.58,0,0,0-41.47-15.72,11.23,11.23,0,0,1,6.76-21.41,417.34,417.34,0,0,1,43.84,16.61,11.23,11.23,0,0,1-4.57,21.49ZM272.07,49.2a11.24,11.24,0,0,1-4-21.72,418.85,418.85,0,0,1,44.62-14.32A11.23,11.23,0,0,1,318.3,34.9a394.08,394.08,0,0,0-42.21,13.55A11.39,11.39,0,0,1,272.07,49.2ZM496.33,30a11.47,11.47,0,0,1-2.17-.21,400,400,0,0,0-43.37-6l-.53,0a11.23,11.23,0,0,1,1.81-22.39l.61.05A424.82,424.82,0,0,1,498.47,7.7,11.23,11.23,0,0,1,496.33,30ZM360.16,26.31A11.23,11.23,0,0,1,358.6,4a417.86,417.86,0,0,1,46.66-4,11.23,11.23,0,0,1,.64,22.45,397.09,397.09,0,0,0-44.15,3.75A10.62,10.62,0,0,1,360.16,26.31Z"/><path class="cls-4" d="M621.14,274.45c-2.06-2.11-4.17-4.17-6.27-6.25-3.5-3.45-7.13-7-10.53-10.67-3.25-3.48-7-5-12.14-5h0c-81.48.08-164.32.08-244.42.08H296.88c0-.81,0-1.59.05-2.36a69.9,69.9,0,0,0-.18-8.73,13.18,13.18,0,0,0-3.05-7.42c-6.27-6.68-12.71-13-19.31-19.42-4.36-4.25-8.8-4.2-13.22.12L259.88,216c-5.89,5.77-12,11.73-17.7,17.88a13.82,13.82,0,0,0-3.23,7.74,66.6,66.6,0,0,0-.2,8.85c0,.68,0,1.38.05,2.08h-4.35c-4.38,0-8.59,0-12.78,0-7,.05-10.16,3.23-10.18,10.31q0,18.35,0,36.71c0,8.14,2.93,11,11.16,11,4.09,0,8.18,0,12.32,0h3.84v301.6c0,.42,0,.86,0,1.28a20.77,20.77,0,0,0,.2,4.14,8.26,8.26,0,0,0,8,7.14l.54,0a8.52,8.52,0,0,0,8.19-7.15,18.81,18.81,0,0,0,.17-3.32v-.8q0-19.35,0-38.71V538.05q0-145.17,0-290.35c0-1,0-3.27.66-4,2.67-3.13,5.57-6.12,8.64-9.29.81-.82,1.62-1.67,2.44-2.52l2.22,2.32c2.37,2.48,4.59,4.82,6.95,7a8.61,8.61,0,0,1,3,7.22c-.1,108.79-.08,219.4-.08,326.36v37.77c0,.41,0,.81,0,1.22a18.37,18.37,0,0,0,.16,3.76c.82,4.66,3.88,7.31,8.41,7.31s7.56-2.65,8.39-7.31a17.84,17.84,0,0,0,.16-3.77c0-.41,0-.81,0-1.21V310.84H361.5v23.7H344.67c-14.5,0-23.88,9.37-23.88,23.75q0,94.14,0,188.26c0,14.36,9.25,23.65,23.57,23.65q114.83,0,229.66,0c14,0,23.38-9.41,23.4-23.4,0-60,0-121.74,0-188.68,0-14.27-9.29-23.52-23.64-23.58H556.72V310.63l8.55,0c9.46,0,19.25.07,28.83-.16a14.16,14.16,0,0,0,8.6-3.49c5.36-4.9,10.5-10.15,15.49-15.24l3.08-3.14C626.06,283.76,626,279.39,621.14,274.45Zm-392.31,18.8V269.88h9.8v23.37Zm343.34,58.37c7,0,8.17,1.21,8.17,8.05q0,92.64,0,185.28c0,6.95-1.2,8.17-8.05,8.17H346c-6.93,0-8.15-1.21-8.15-8q0-92.64,0-185.28c0-6.94,1.19-8.17,8-8.17ZM379,334.24V310.86H539v23.38Zm223.14-50.09c-3.29,3.15-6.41,6.11-9.65,8.86-.58.5-2.48.5-3.67.51q-88.17.06-176.35,0H297.08V269.65h42c81.8,0,166.37,0,249.55-.07h0a7.58,7.58,0,0,1,6.14,2.61c2.32,2.46,4.83,4.77,7.5,7.24.8.73,1.61,1.47,2.44,2.25C603.88,282.52,603,283.34,602.17,284.15Z"/><path class="cls-5" d="M552.12,427.59l-2.93-2.26c-25-19.24-50.78-39.14-76.26-58.6-8.8-6.72-19-6.6-28.06.31-25.36,19.45-51.13,39.29-76,58.46l-2.46,1.88c-5.53,4.27-6.06,8.7-1.74,14.36q2.4,3.15,4.85,6.28c2.78,3.57,5.65,7.26,8.36,11s6,7,11.23,5.85v66.88c0,8.24,2.9,11.16,11.06,11.16H517.55c8.24,0,11.17-2.89,11.19-11q0-23,0-46V464.74c5.54.78,7.3-.23,11.07-5.11l3.71-4.79c3.41-4.4,6.94-9,10.36-13.48C557.87,436.08,557.29,431.58,552.12,427.59ZM451.43,396.15,411.26,427,390.9,442.68c-.72.55-1.45,1.09-2.33,1.74l-.17.14-6-7.77c.64-.57,1.25-1.1,1.87-1.58q35.17-27.06,70.34-54.07c3.8-2.92,5.25-3,8.62-.4q31.56,24.21,63,48.49l9.68,7.46-6,7.85c-.73-.5-1.42-1-2.08-1.5L501.71,423,467,396.23C460.24,391.08,458.06,391.06,451.43,396.15ZM471,525.47H447V481.74H471Zm40.7-11.7v10.86a8.49,8.49,0,0,1-.08,1H488.14V509.06q0-17,0-34.06c0-7.67-3-10.66-10.67-10.67q-18.57,0-37.14,0c-7.62,0-10.59,3-10.61,10.72q0,16.93,0,33.89v16.75H406.3a14.4,14.4,0,0,1-.12-1.55v-6.29c0-20.6,0-41.9.07-62.85a5.15,5.15,0,0,1,1.2-3.34c14-11,27.86-21.6,42.49-32.83l9.16-7.05.82.63c1.37,1,2.75,2.08,4.12,3.14l9.44,7.26c11.77,9,23.93,18.38,35.81,27.67a6.22,6.22,0,0,1,2.25,3.73C511.69,474.06,511.67,494.25,511.66,513.77Z"/></g></g></svg>