<svg xmlns="http://www.w3.org/2000/svg" xmlns:xlink="http://www.w3.org/1999/xlink" viewBox="0 0 835.41 835.42"><defs><style>.cls-1{fill:#fff;}.cls-2{fill:#4a668e;}.cls-3{fill:url(#Degradado_sin_nombre_27);}.cls-4{fill:url(#Degradado_sin_nombre_27-2);}.cls-5{fill:url(#Degradado_sin_nombre_241);}.cls-6{fill:url(#Degradado_sin_nombre_253);}.cls-7{fill:url(#Degradado_sin_nombre_244);}</style><linearGradient id="Degradado_sin_nombre_27" x1="834.08" y1="382.74" x2="1.32" y2="452.66" gradientUnits="userSpaceOnUse"><stop offset="0" stop-color="#c0c0ca"/><stop offset="0.1" stop-color="#c5c5ce"/><stop offset="0.22" stop-color="#d4d4db"/><stop offset="0.35" stop-color="#ededf0"/><stop offset="0.43" stop-color="#fff"/><stop offset="0.58" stop-color="#eaeaed"/><stop offset="0.85" stop-color="#cacad2"/><stop offset="1" stop-color="#bebec8"/></linearGradient><linearGradient id="Degradado_sin_nombre_27-2" x1="192.93" y1="485.12" x2="567.74" y2="268.73" xlink:href="#Degradado_sin_nombre_27"/><linearGradient id="Degradado_sin_nombre_241" x1="383.6" y1="427.62" x2="486.73" y2="368.08" gradientUnits="userSpaceOnUse"><stop offset="0" stop-color="#fdfdfe"/><stop offset="0.43" stop-color="#fff"/><stop offset="0.76" stop-color="#e4e4e8"/><stop offset="1" stop-color="#d7d7dd"/></linearGradient><linearGradient id="Degradado_sin_nombre_253" x1="438.82" y1="626.16" x2="644.67" y2="507.32" gradientUnits="userSpaceOnUse"><stop offset="0" stop-color="#e2e2e7"/><stop offset="0.28" stop-color="#f6f6f8"/><stop offset="0.47" stop-color="#fff"/><stop offset="0.61" stop-color="#eaeaed"/><stop offset="0.86" stop-color="#cacad2"/><stop offset="1" stop-color="#bebec8"/></linearGradient><linearGradient id="Degradado_sin_nombre_244" x1="396.88" y1="511.43" x2="601.74" y2="393.15" gradientUnits="userSpaceOnUse"><stop offset="0" stop-color="#e1e1e6"/><stop offset="0.14" stop-color="#e6e6ea"/><stop offset="0.31" stop-color="#f5f5f7"/><stop offset="0.39" stop-color="#fff"/><stop offset="0.55" stop-color="#eaeaed"/><stop offset="0.84" stop-color="#cacad2"/><stop offset="1" stop-color="#bebec8"/></linearGradient></defs><g id="Capa_2" data-name="Capa 2"><g id="Capa_1-2" data-name="Capa 1"><path class="cls-1" d="M11.08,417.71a405.24,405.24,0,0,0,27.83,148.1c59.2,151.34,206.47,258.51,378.78,258.51,224.57,0,406.63-182,406.63-406.61S642.26,11.07,417.69,11.07c-172.31,0-319.56,107.17-378.78,258.5A405.57,405.57,0,0,0,11.08,417.71Z"/><circle class="cls-2" cx="417.7" cy="417.7" r="321.53"/><path class="cls-3" d="M406,835.42h-.31A417.78,417.78,0,0,1,359,831.49a11.23,11.23,0,1,1,3.14-22.23A396.63,396.63,0,0,0,406.26,813a11.23,11.23,0,0,1-.31,22.45Zm45.78-1.3a11.3,11.3,0,0,1-11.28-10.31,11.13,11.13,0,0,1,10.17-12.09l.21,0a402.86,402.86,0,0,0,43.68-6.1,11.23,11.23,0,0,1,4.33,22,427.1,427.1,0,0,1-46.18,6.46ZM315.83,822.7a11.48,11.48,0,0,1-2.82-.36,416.53,416.53,0,0,1-44.63-14.28,11.23,11.23,0,0,1,8-21,393.3,393.3,0,0,0,42.22,13.51,11.23,11.23,0,0,1-2.81,22.1Zm225-6.15a11.23,11.23,0,0,1-3.39-21.93,393.5,393.5,0,0,0,41.46-15.76,11.23,11.23,0,1,1,9.15,20.51A415.22,415.22,0,0,1,544.23,816,11.15,11.15,0,0,1,540.84,816.55Zm-310-26.42a11.13,11.13,0,0,1-5.16-1.26A419.58,419.58,0,0,1,185.36,765a11.23,11.23,0,1,1,12.5-18.66A395.22,395.22,0,0,0,236,768.93a11.23,11.23,0,0,1-5.18,21.2ZM624,779.43a11.23,11.23,0,0,1-5.72-20.9,394.88,394.88,0,0,0,36.87-24.64,11.23,11.23,0,1,1,13.51,18,417.32,417.32,0,0,1-39,26A11.15,11.15,0,0,1,624,779.43ZM155.2,739.48a11.15,11.15,0,0,1-7.24-2.66,424.13,424.13,0,0,1-34-32.18,11.23,11.23,0,0,1,16.32-15.44,396.35,396.35,0,0,0,32.22,30.47,11.23,11.23,0,0,1-7.26,19.81Zm541.58-14.8a11.23,11.23,0,0,1-7.71-19.39,399.85,399.85,0,0,0,30.48-32.21,11.23,11.23,0,1,1,17.14,14.51,422.34,422.34,0,0,1-32.2,34A11.19,11.19,0,0,1,696.78,724.68ZM92.66,673.32a11.21,11.21,0,0,1-9-4.47,418.7,418.7,0,0,1-26.05-39A11.23,11.23,0,0,1,77,618.47a394.18,394.18,0,0,0,24.65,36.86,11.23,11.23,0,0,1-9,18Zm662.91-18.14a11.24,11.24,0,0,1-9.32-17.49,397.54,397.54,0,0,0,22.59-38.13,11.23,11.23,0,0,1,19.94,10.35,421.91,421.91,0,0,1-23.87,40.29A11.23,11.23,0,0,1,755.57,655.18ZM46.37,594.89a11.21,11.21,0,0,1-10.25-6.65,414.41,414.41,0,0,1-16.68-43.82,11.23,11.23,0,0,1,21.4-6.79,394,394,0,0,0,15.78,41.45,11.23,11.23,0,0,1-10.25,15.81ZM797.5,574.41A11.24,11.24,0,0,1,787,559.15a395.5,395.5,0,0,0,13.53-42.21,11.22,11.22,0,0,1,21.73,5.63A415.87,415.87,0,0,1,808,567.2,11.25,11.25,0,0,1,797.5,574.41ZM18.81,508.1a11.23,11.23,0,0,1-11-9.06,422.74,422.74,0,0,1-6.49-46.38l-.07-.76A11.23,11.23,0,0,1,23.63,450l.07.79a401,401,0,0,0,6.14,43.88A11.22,11.22,0,0,1,21,507.88,11,11,0,0,1,18.81,508.1Zm801.55-21.82a12.14,12.14,0,0,1-1.59-.11,11.24,11.24,0,0,1-9.55-12.69A392.33,392.33,0,0,0,813,429.33a11.23,11.23,0,1,1,22.45.63,417.82,417.82,0,0,1-3.94,46.66A11.23,11.23,0,0,1,820.36,486.28ZM11.23,416.61H10.9A11.24,11.24,0,0,1,0,405.06,420.27,420.27,0,0,1,4,358.4a11.23,11.23,0,1,1,22.23,3.16,397.11,397.11,0,0,0-3.77,44.15A11.22,11.22,0,0,1,11.23,416.61Zm811.68-21.32A11.23,11.23,0,0,1,811.73,385l0-.22a404.19,404.19,0,0,0-6.08-43.67,11.22,11.22,0,1,1,22-4.32,421.12,421.12,0,0,1,6.42,46l0,.42a11.22,11.22,0,0,1-10.29,12.09C823.52,395.28,823.21,395.29,822.91,395.29ZM24.08,326.51a11.1,11.1,0,0,1-2.83-.36,11.23,11.23,0,0,1-8-13.7,418,418,0,0,1,14.34-44.61,11.23,11.23,0,0,1,21,8.07,394.74,394.74,0,0,0-13.57,42.2A11.23,11.23,0,0,1,24.08,326.51ZM805.37,306a11.24,11.24,0,0,1-10.71-7.85,393.31,393.31,0,0,0-15.73-41.46,11.23,11.23,0,0,1,20.51-9.14,417.36,417.36,0,0,1,16.64,43.83,11.24,11.24,0,0,1-7.32,14.1A11.45,11.45,0,0,1,805.37,306ZM56.75,241.57a11.24,11.24,0,0,1-10-16.42,418.67,418.67,0,0,1,23.91-40.27A11.23,11.23,0,1,1,89.35,197.4a397.75,397.75,0,0,0-22.63,38.12A11.24,11.24,0,0,1,56.75,241.57ZM768.3,222.78a11.22,11.22,0,0,1-9.68-5.53A398.3,398.3,0,0,0,734,180.36a11.23,11.23,0,0,1,18-13.49,420.69,420.69,0,0,1,26,39,11.24,11.24,0,0,1-9.67,16.93ZM107.52,166A11.23,11.23,0,0,1,99,147.52a419,419,0,0,1,32.23-34,11.23,11.23,0,0,1,15.41,16.33A398.07,398.07,0,0,0,116.09,162,11.21,11.21,0,0,1,107.52,166Zm606.06-16a11.19,11.19,0,0,1-8.17-3.52A399.83,399.83,0,0,0,673.22,116a11.23,11.23,0,0,1,14.51-17.14,422.64,422.64,0,0,1,34,32.22A11.23,11.23,0,0,1,713.58,150ZM173.77,103.54A11.23,11.23,0,0,1,167,83.33a420.53,420.53,0,0,1,39-26A11.23,11.23,0,1,1,217.4,76.69a398.1,398.1,0,0,0-36.89,24.6A11.17,11.17,0,0,1,173.77,103.54ZM644.09,91.15a11.17,11.17,0,0,1-6.25-1.9,397.57,397.57,0,0,0-38.12-22.61,11.23,11.23,0,0,1,10.35-19.93A422.1,422.1,0,0,1,650.36,70.6a11.23,11.23,0,0,1-6.27,20.55ZM252.27,57.37a11.23,11.23,0,0,1-4.58-21.49,419,419,0,0,1,43.85-16.62,11.23,11.23,0,0,1,6.75,21.42A394.62,394.62,0,0,0,256.83,56.4,11.23,11.23,0,0,1,252.27,57.37ZM563.34,49.2a11.13,11.13,0,0,1-4-.75A392.64,392.64,0,0,0,517.11,34.9a11.23,11.23,0,0,1,5.65-21.74,419.5,419.5,0,0,1,44.61,14.32,11.23,11.23,0,0,1-4,21.72ZM339.08,30A11.23,11.23,0,0,1,336.93,7.7a425.18,425.18,0,0,1,45.81-6.38l.56-.05a11.23,11.23,0,0,1,1.89,22.38l-.62.05a400.8,400.8,0,0,0-43.32,6A11.55,11.55,0,0,1,339.08,30Zm136.17-3.64a10.62,10.62,0,0,1-1.59-.11,394.71,394.71,0,0,0-44.15-3.75A11.23,11.23,0,1,1,430.15,0a417.86,417.86,0,0,1,46.66,4,11.23,11.23,0,0,1-1.56,22.34Z"/><path class="cls-4" d="M568.47,328.71l-8.15-6.4c-9-7.1-18.37-14.44-27.64-21.52a7.27,7.27,0,0,1-3.23-6.61c.12-25.25.1-50.93.08-75.76V206.58c0-6.76-2.88-10.06-8.81-10.09-18.47-.08-37.75-.08-57.34,0-5.5,0-8.6,3.13-8.72,8.76-.09,3.42-.06,6.9,0,10.27,0,1.47,0,2.94,0,4.42v19.57l-.16-.11c-.64-.48-1.09-.8-1.52-1.14q-6.9-5.38-13.77-10.79c-10.15-8-20.64-16.2-31.06-24.18-11.89-9.11-26-9.07-37.77.12-48.9,38.23-98.59,77.12-146.65,114.74l-14,11c-5.53,4.33-6,8.35-1.74,13.88,5.31,6.84,11.15,14.3,18.38,23.47,4.28,5.43,8.32,5.91,13.94,1.66,2.18-1.66,4.35-3.32,6.62-5.07l2-1.52v143l0,0h0l-4.84.05-7.38.09c-6.4.11-9.41,3.1-9.46,9.44,0,6.18,0,12.46,0,18.53,0,2.08,0,4.16,0,6.24,0,8.89,2.43,11.33,11.29,11.33H387.13l1.11,0a12.13,12.13,0,0,0,2.08-.15c4.49-.84,7-3.65,7-7.94s-2.5-7.18-6.92-8a17.43,17.43,0,0,0-3.53-.15l-1.19,0h-142V520.88h37.16q53.69,0,107.38,0c5.87,0,9.39-3,9.45-8s-3.42-8.09-9.28-8.17c-3.12,0-6.18,0-9.41,0h-3.56V469.53q0-43.14,0-86.28c0-8-2.67-10.65-10.57-10.66H296.93c-8.63,0-11.13,2.47-11.13,11V504.47H265.4c0-.1,0-.2,0-.3,0-.58-.08-1-.08-1.5V485c0-43.8,0-89.08.12-133.61a7.49,7.49,0,0,1,2.71-4.85c20.89-16.43,42.16-33.1,62.73-49.21,18.35-14.38,37.32-29.24,55.95-43.89,2.13-1.66,3.18-1.4,5.28.25,40.9,32.1,80.75,63.26,118.46,92.63a6.4,6.4,0,0,1,2.85,5.86c-.13,6.85-.1,13.82-.07,20.56q0,3.72,0,7.43c0,4.42,2.11,7.41,5.65,8a10.93,10.93,0,0,0,8-2c2-1.66,2.38-5.54,2.45-7.14.2-4.4.17-8.7.13-13.25l0-4.41h0q4.2,3.23,8.38,6.47l.25.19c5.8,4.48,9.8,4,14.27-1.65,6.53-8.28,12.37-15.71,17.84-22.72C575.17,337.36,574.71,333.61,568.47,328.71ZM359,389.08V504.31H302.16V389.08Zm111.86-168.2q0-4,0-8.06H513v72.49l-2.85-2.23-8.41-6.58-6.38-5c-7.37-5.75-15-11.7-22.41-17.64a5.51,5.51,0,0,1-2.07-3.35C470.78,240.71,470.8,231.08,470.81,220.88Zm72.67,130.67L432.42,264.66q-18.09-14.15-36.19-28.29c-2.83-2.21-4.86-3.31-6.9-3.31s-4.1,1.12-7,3.37l-73.47,57.48L239,348.55c-.87.68-1.75,1.34-2.77,2.11l-1.12.84-10.58-13.44,8.93-7Q243.8,323,254,315l58.89-46.07,66-51.65c7.8-6.1,13.07-6.09,20.89,0L550.68,335.36c.78.61,1.55,1.25,2.44,2,.29.24.59.49.91.74Z"/><path class="cls-5" d="M492.83,384.81c0,.75,0,1.51,0,2.26v.17c0,4.72-2.33,7.79-6.58,8.63s-7.63-1.17-9.32-5.75c-.14-.39-.29-.78-.42-1.18H412.23v49.49c.27.11.56.19.85.28,1.11.35,2.26.71,2.77,1.61.15.29.31.57.48.86,1.34,2.36,2.86,5,2.59,7.5-.57,5.18-5.68,6.34-10.81,6.34-1.45,0-2.91-.09-4.27-.22-4.84-.43-7.86-3.55-7.88-8.14-.11-24.15-.11-45.75,0-66,0-3.66,1.75-8,9.88-8q24,0,48,0h21.58c2.72,0,5.55,0,8.33,0,5.8.13,8.82,3.13,9,8.94C492.85,382.64,492.84,383.74,492.83,384.81Z"/><path class="cls-6" d="M630.06,517.72a107.89,107.89,0,0,1-25,61.5c-17.92,21.41-40.85,34.34-68.14,38.45A114.54,114.54,0,0,1,520,619a105.94,105.94,0,0,1-30.67-4.53,122,122,0,0,1-29.26-13.5l-9.52-6,1,11.19.19,2,.14,1.56c.15,1.61.31,3.23.45,4.84q.51,5.43,1,10.86c.41,4.53-.6,6.32-4.7,8.34l-.15.08-2.16.2c-3.67-1-4.71-2.6-5.27-4.14a13.48,13.48,0,0,1-.69-3.27c-1.53-16-3.09-32.85-4.66-50-.57-6.28,2.87-7.61,4-8a6.12,6.12,0,0,1,1.75-.41l8.57-.82c14.5-1.37,29.49-2.79,44.24-4.06.23,0,.48,0,.71,0a6.09,6.09,0,0,1,6,4.16,6.32,6.32,0,0,1-.52,5.59,6.65,6.65,0,0,1-5,3.1c-3.84.45-7.64.78-11.67,1.13l-5.42.48-14.2,1.72,8.42,6.07c1.07.77,2.13,1.55,3.15,2.38,6.73,5.5,27.24,12.2,42.42,12.31H519c15.51,0,29.22-3.09,41.9-9.45,21.86-11,37.11-28.11,45.32-50.95,7.22-20.1,7.18-40.72-.1-61.42a33.84,33.84,0,0,0,16.64-9.09A107.88,107.88,0,0,1,630.06,517.72Z"/><path class="cls-7" d="M597.73,451.44l-21,1.95c-9.66.89-19.65,1.82-29.48,2.75-.43,0-.85.06-1.25.06a6.27,6.27,0,0,1-5.81-3,6.34,6.34,0,0,1-.53-6.11,6,6,0,0,1,4.61-3.58c3.74-.57,7.5-.89,11.49-1.23,1.74-.16,3.55-.31,5.34-.49l1.74-.17,1-.09,15.77-1.46-13.23-8.71c-12.24-8.07-28.89-12.69-45.68-12.69a92.18,92.18,0,0,0-48.11,13.52c-31.83,19.48-53.79,62.38-37.12,108.63a34.38,34.38,0,0,0-16.64,8.61,108.84,108.84,0,0,1,16.61-108.81c17.58-21.7,40.41-34.93,67.84-39.32a114.31,114.31,0,0,1,18.1-1.47h0a105.86,105.86,0,0,1,30.28,4.42,120,120,0,0,1,28.92,13.25l9.51,5.93-1-11.16c0-.47-.08-.87-.11-1.24-.06-.65-.11-1.17-.16-1.69-.15-1.84-.32-3.68-.49-5.47-.39-4.17-.76-8.12-.88-12.1a6.09,6.09,0,0,1,5.45-6,6.36,6.36,0,0,1,.87-.06,6.47,6.47,0,0,1,6.15,4.57,13.79,13.79,0,0,1,.46,2.63c1.66,18.56,3.11,34.91,4.42,50C605.24,448.3,603.07,450.94,597.73,451.44Z"/></g></g></svg>