<svg xmlns="http://www.w3.org/2000/svg" viewBox="0 0 377.2 377.09"><defs><style>.cls-1{fill:#4a668e;}</style></defs><g id="Capa_2" data-name="Capa 2"><g id="Capa_1-2" data-name="Capa 1"><path class="cls-1" d="M310.11,112.46q-3.64-2.85-7.26-5.71c-7.36-5.79-15-11.77-22.55-17.52a6.26,6.26,0,0,1-2.91-5.81c.13-20.92.11-42.19.09-62.76V9.4c0-6.48-2.88-9.37-9.31-9.38-15,0-30.68,0-46.75,0C215,0,212,2.9,212,9.32c0,4.73,0,9.48,0,14.21,0,4,0,7.92,0,11.89a2.09,2.09,0,0,1,0,.24l0,0-11.48-9c-8.69-6.82-17.68-13.88-26.6-20.71C163.67-1.9,151.18-2,141.3,5.75c-43,33.53-86.6,67.69-128.8,100.74l-8.63,6.75c-4.56,3.57-5.09,7.69-1.58,12.25,5.09,6.6,10.44,13.42,16.35,20.85,3.57,4.49,7.59,5,12.27,1.49,2-1.47,3.89-3,5.92-4.53l.33-.25V261.78H35.22c-2.51,0-4.91,0-7.32,0-6.19.07-9.09,3-9.13,9.13,0,6.52,0,13.13,0,19.53l0,1.91c0,7.24,2.7,9.92,9.92,9.94H88a13.05,13.05,0,0,0,2.13-.16,7.67,7.67,0,0,0,6.5-8,7.55,7.55,0,0,0-6.48-7.33,13.19,13.19,0,0,0-3-.15c-.27,0-.54,0-.82,0H34.61v-9.35H53.13q17.34,0,34.7,0a9.21,9.21,0,0,0,6.78-2.52,7.3,7.3,0,0,0,2-5.4c-.08-4.51-3.46-7.51-8.61-7.64-1.15,0-2.28,0-3.48,0h-.14V165.46H131v10.3c0,10,0,19.82,0,29.68,0,3.31.91,5.94,2.62,7.6a7.16,7.16,0,0,0,5.35,2c4.76-.12,7.6-3.66,7.6-9.48q0-23,0-46c0-7.26-2.7-10-9.9-10H79c-7.74,0-10.36,2.6-10.36,10.29V261.53H53.07c0-.2,0-.39,0-.58V246.54c0-37.41,0-76.09.1-114.12a5,5,0,0,1,1.69-3.14C73.76,114.4,93,99.3,111.66,84.71Q133.82,67.34,156,50c1.32-1,1.69-1,3.05,0q21,16.51,42.1,33c19.36,15.16,39.37,30.84,59,46.3a5.56,5.56,0,0,1,1.64,3.6c.16,5.18.14,10.48.12,15.6,0,2.44,0,4.89,0,7.33,0,5.75,3,9.32,7.77,9.32h0c4.77,0,7.74-3.58,7.78-9.34,0-3.58,0-7.17,0-10.72v-2.22c1.27.95,2.52,1.91,3.78,2.87l2.49,1.89c4.92,3.73,9,3.22,12.83-1.63,4.51-5.69,9.25-11.74,15.39-19.63C316.36,120.74,315.86,117,310.11,112.46ZM261.63,15.88V74.5L257.18,71c-9.89-7.75-19.24-15.05-28.67-22.52a2.69,2.69,0,0,1-.84-1.65c-.08-8.45-.07-16.72-.07-25.48V15.88Zm26.66,115.45h0c-.83-.62-1.63-1.2-2.41-1.81L192.74,56.65l-26.81-21c-.7-.55-1.4-1.1-2.11-1.64-5.08-3.89-7.67-3.9-12.6-.05L102.63,72,28.57,129.92c-.59.46-1.19.9-1.9,1.41l-7.83-10,7.91-6.19c6.64-5.21,13.21-10.37,19.8-15.52L149.27,19.26c6.13-4.8,10.24-4.83,16.29-.1L294,119.67c.66.51,1.29,1,2,1.65l0,0Z"/><path class="cls-1" d="M369,293c-1.43,0-2.87,0-4.25,0-1.8,0-3.65.05-5.43,0-4.41-.27-7.6,1.44-10.05,5.4a14.43,14.43,0,0,1-15.45,6.83v-34l2.36,0c3,0,5.88.06,8.8-.08a7.72,7.72,0,0,0,.05-15.42c-1.46-.13-2.9-.11-4.31-.1-.92,0-1.85,0-2.78,0a17,17,0,0,1-16.71-15.91c-.24-3.31-1.05-6.91-5.3-8.49-4.65-1.74-7.81,1.45-9.52,3.16-8.8,8.88-16.55,16.62-23.67,23.68a12,12,0,0,1-8.24,3.82,9.61,9.61,0,0,1-6.78-3.1c-4.16-4.25-3.72-9.73,1.16-14.63q5.53-5.55,11.09-11.09,6.45-6.44,12.86-12.87c2.2-2.22,3.35-4.59,3.33-6.88a7.33,7.33,0,0,0-2.37-5.22c-3.43-3.36-7.94-2.94-12.07,1.15-1.86,1.85-3.73,3.72-5.58,5.58-2.68,2.68-5.45,5.46-8.21,8.15-1.4,1.37-2,1.42-2.1,1.42-7.66.11-15.36.1-23.51.09h-3.71l6-6c6.52-6.47,12.67-12.59,18.83-18.8a30.56,30.56,0,0,1,22.77-9.47h.22c15.51.08,32,.14,48.32,0C346,190,355.42,193.2,363.58,200a9.32,9.32,0,0,0,6.78,2.5,7.34,7.34,0,0,0,5-2.84c3-3.64,2.24-8.09-1.93-11.64a55.22,55.22,0,0,0-36.36-13.49c-6.88,0-13.86,0-20.61,0-9.46,0-19.24.05-28.85-.07-14.36-.18-26.22,4.74-36.31,15.1-5.94,6.09-12.06,12.18-18,18.09-4.83,4.82-9.84,9.81-14.71,14.75a6.14,6.14,0,0,1-5,2h0c-28.88-.07-57.77-.05-85.71,0-13.49,0-21.87,8.43-21.88,22q0,54.34,0,108.67c0,13.8,8.3,22.05,22.21,22.05H311.33c14.13,0,22.23-8.17,22.25-22.4V339.86q0-8.16,0-16.34c0-.79.05-1.6.1-2.53H334c1.21,0,2.33,0,3.46,0,8.41-.13,14.85-2.69,19.13-7.62,3.42-3.94,6.92-5.32,12.47-5a7.53,7.53,0,0,0,5.79-2,7.78,7.78,0,0,0,2.35-5.82C377.11,296.18,373.8,293.11,369,293ZM254.35,266.76c4.48,6.39,11,10,19.27,10.6a4.08,4.08,0,0,1,2,.49,34.63,34.63,0,0,0,17.35,11c0,.43.07.82.07,1.23v22.36c-12.36,3.64-20.42,11.69-24,24H170.63C167,324.17,159,316.16,146.77,312.59V288.9c12.21-3.58,20.24-11.65,23.87-24h39.84c13.15,0,26.73,0,40.1-.07A3.82,3.82,0,0,1,254.35,266.76ZM318,356c0,3.95-1.72,5.49-6.14,5.5-13,0-26,0-39,0H129.53c-7,0-7.9-.9-7.9-8.06V247.52c0-6.56,1-7.55,7.64-7.55H252.18l-3.09,9.35H166.53c-7.75,0-9.85,1.85-10.69,9.46A17.31,17.31,0,0,1,140,274.2c-6.85.63-9.06,3.05-9.07,9.93q0,16.74,0,33.49c0,6.54,2.35,9.07,9,9.64a17.34,17.34,0,0,1,15.94,16c.56,6.46,3.2,8.85,9.75,8.85q54.15,0,108.29,0c6.72,0,9.21-2.3,9.84-9.14a17.24,17.24,0,0,1,15.86-15.74c6.74-.6,9-3.12,9-10q0-16.55,0-33.1c0-6.69-2-9-8.84-10.1a37.56,37.56,0,0,1-6.9-2.13l-.9-.33,17.08-17.74,1.51,1.75c2.15,2.51,4.19,4.89,6.13,7.32a5.15,5.15,0,0,1,1.2,2.67C318,293.33,318,322.88,318,356Z"/><path class="cls-1" d="M246.29,175.2c-.06,5.08-3.12,8.55-7.63,8.65a7.28,7.28,0,0,1-5.35-2,9.38,9.38,0,0,1-2.58-6.79c0-2.48,0-5,0-7.59v-2.15h-53v13.35q0,13.54,0,27.06c0,3.1-.89,5.61-2.54,7.24a7.28,7.28,0,0,1-5.24,2h-.06c-4.77,0-7.73-3.62-7.74-9.35q0-23.35,0-46.71c0-6.46,2.88-9.34,9.31-9.35q32.7,0,65.39,0c6.49,0,9.4,2.85,9.45,9.23C246.33,164,246.35,169.54,246.29,175.2Z"/><path class="cls-1" d="M238.64,282.16a26.48,26.48,0,1,0-19.21,45.07h.33a26.43,26.43,0,0,0,18.62-7.64A26.17,26.17,0,0,0,246.3,301,26.47,26.47,0,0,0,238.64,282.16Zm-7.94,18.77a11,11,0,0,1-10.86,10.69h-.14a10.94,10.94,0,0,1-10.78-10.91,10.92,10.92,0,0,1,10.88-10.85h.28a11,11,0,0,1,10.62,10.92Z"/></g></g></svg>