<svg xmlns="http://www.w3.org/2000/svg" xmlns:xlink="http://www.w3.org/1999/xlink" viewBox="0 0 362.43 362.33"><defs><style>.cls-1{fill:url(#Degradado_sin_nombre_12);}.cls-2{fill:url(#Degradado_sin_nombre_27);}.cls-3{fill:url(#Degradado_sin_nombre_15);}.cls-4{fill:url(#Degradado_sin_nombre_8);}</style><linearGradient id="Degradado_sin_nombre_12" x1="-17.95" y1="222.6" x2="289.46" y2="45.12" gradientUnits="userSpaceOnUse"><stop offset="0" stop-color="#c0c0ca"/><stop offset="0.11" stop-color="#c5c5ce"/><stop offset="0.24" stop-color="#d4d4db"/><stop offset="0.39" stop-color="#ededf0"/><stop offset="0.47" stop-color="#fff"/><stop offset="1" stop-color="#bebec8"/></linearGradient><linearGradient id="Degradado_sin_nombre_27" x1="103.63" y1="351.1" x2="369.46" y2="197.62" gradientUnits="userSpaceOnUse"><stop offset="0" stop-color="#c0c0ca"/><stop offset="0.1" stop-color="#c5c5ce"/><stop offset="0.22" stop-color="#d4d4db"/><stop offset="0.35" stop-color="#ededf0"/><stop offset="0.43" stop-color="#fff"/><stop offset="0.58" stop-color="#eaeaed"/><stop offset="0.85" stop-color="#cacad2"/><stop offset="1" stop-color="#bebec8"/></linearGradient><linearGradient id="Degradado_sin_nombre_15" x1="148.3" y1="187.89" x2="231.29" y2="139.97" gradientUnits="userSpaceOnUse"><stop offset="0" stop-color="#fcfcfd"/><stop offset="0.43" stop-color="#fff"/><stop offset="1" stop-color="#dadae0"/></linearGradient><linearGradient id="Degradado_sin_nombre_8" x1="189.17" y1="301.68" x2="233.22" y2="276.24" gradientUnits="userSpaceOnUse"><stop offset="0" stop-color="#d1d1d8"/><stop offset="0.43" stop-color="#fefeff"/><stop offset="0.58" stop-color="#f8f8fa"/><stop offset="1" stop-color="#ececef"/></linearGradient></defs><g id="Capa_2" data-name="Capa 2"><g id="Capa_1-2" data-name="Capa 1"><path class="cls-1" d="M298,108.06l-7-5.49c-7.07-5.56-14.38-11.31-21.67-16.84a6,6,0,0,1-2.79-5.58c.12-20.09.1-40.53.08-60.3V9c0-6.23-2.76-9-8.94-9-14.36,0-29.48,0-44.92,0-6.21,0-9,2.76-9,8.93q0,6.83,0,13.66c0,3.81,0,7.61,0,11.42a1.85,1.85,0,0,1,0,.23l0,0-11-8.64c-8.34-6.56-17-13.34-25.56-19.91-9.81-7.5-21.81-7.56-31.3-.16C94.49,37.74,52.56,70.56,12,102.32l-8.29,6.49c-4.39,3.43-4.9,7.39-1.52,11.77,4.89,6.34,10,12.89,15.71,20,3.43,4.31,7.29,4.78,11.79,1.43,1.9-1.41,3.74-2.84,5.69-4.35l.32-.24V251.53H33.84c-2.41,0-4.72,0-7,0-5.95.07-8.74,2.86-8.78,8.78,0,6.25,0,12.61,0,18.76v1.83c0,7,2.6,9.54,9.54,9.55q27.9,0,55.78,0h1.2a12,12,0,0,0,2-.15,7.37,7.37,0,0,0,6.25-7.65,7.26,7.26,0,0,0-6.23-7,12.16,12.16,0,0,0-2.87-.15c-.26,0-.52,0-.79,0H33.26v-9H51.05q16.65,0,33.34,0a8.89,8.89,0,0,0,6.52-2.42,7,7,0,0,0,2-5.18c-.08-4.34-3.33-7.22-8.28-7.35-1.1,0-2.19,0-3.34,0h-.14V159h44.73v9.9c0,9.58,0,19.05,0,28.52,0,3.17.87,5.7,2.52,7.3a6.88,6.88,0,0,0,5.14,1.89c4.57-.12,7.3-3.52,7.3-9.11q0-22.06,0-44.16c0-7-2.59-9.58-9.51-9.58H75.9c-7.44,0-10,2.5-10,9.89v97.67H51c0-.19,0-.37,0-.55V236.89c0-35.95,0-73.11.09-109.65a4.85,4.85,0,0,1,1.63-3c18.17-14.3,36.69-28.81,54.59-42.83Q128.57,64.7,149.86,48c1.27-1,1.63-1,2.93,0Q173,63.91,193.24,79.75c18.61,14.57,37.84,29.63,56.72,44.49a5.36,5.36,0,0,1,1.58,3.46c.15,5,.13,10.06.11,15,0,2.35,0,4.7,0,7,0,5.52,2.87,9,7.46,9h0c4.58,0,7.44-3.44,7.47-9,0-3.44,0-6.89,0-10.3v-2.14l3.64,2.76,2.39,1.82c4.73,3.58,8.65,3.09,12.33-1.57,4.33-5.47,8.89-11.27,14.79-18.85C304,116,303.5,112.39,298,108.06Zm-46.58-92.8V71.58l-4.27-3.33c-9.51-7.43-18.49-14.45-27.56-21.63a2.57,2.57,0,0,1-.8-1.58c-.08-8.12-.07-16.07-.07-24.49V15.26ZM277,126.19h0c-.79-.59-1.56-1.15-2.31-1.74q-44.73-35-89.48-70L159.43,34.27l-2-1.57C152.53,29,150,29,145.3,32.65L98.61,69.16,27.45,124.84c-.56.44-1.14.86-1.82,1.35l-7.53-9.62,7.6-5.95,19-14.91L143.42,18.5c5.9-4.61,9.85-4.64,15.66-.09Q220.8,66.69,282.52,115c.63.49,1.24,1,1.93,1.58l0,0Z"/><path class="cls-2" d="M354.53,281.5c-1.38,0-2.76,0-4.09,0-1.73,0-3.51.05-5.22-.05-4.23-.26-7.3,1.38-9.65,5.19a13.85,13.85,0,0,1-14.85,6.56v-32.7l2.27,0c2.91,0,5.65.06,8.45-.08a7.42,7.42,0,0,0,.05-14.82c-1.4-.12-2.79-.1-4.14-.09-.89,0-1.78,0-2.67,0a16.33,16.33,0,0,1-16.05-15.29c-.23-3.18-1-6.64-5.09-8.16-4.47-1.67-7.51,1.39-9.15,3-8.46,8.53-15.91,16-22.75,22.75a11.47,11.47,0,0,1-7.92,3.67,9.19,9.19,0,0,1-6.51-3c-4-4.09-3.58-9.35,1.11-14.06q5.32-5.34,10.66-10.66,6.19-6.18,12.36-12.37c2.11-2.13,3.22-4.41,3.2-6.61a7,7,0,0,0-2.28-5c-3.3-3.22-7.63-2.81-11.6,1.11q-2.69,2.67-5.36,5.36c-2.58,2.58-5.24,5.25-7.89,7.83-1.35,1.32-2,1.37-2,1.37-7.35.1-14.75.09-22.58.08h-3.57l5.82-5.78c6.26-6.22,12.17-12.1,18.08-18.06a29.36,29.36,0,0,1,21.88-9.1h.21c14.91.08,30.77.14,46.43,0,10.77-.11,19.84,3,27.69,9.55a9,9,0,0,0,6.51,2.41,7.11,7.11,0,0,0,4.84-2.73c2.86-3.5,2.15-7.78-1.86-11.19a53,53,0,0,0-34.94-13c-6.6,0-13.31,0-19.8,0-9.09,0-18.49,0-27.72-.07-13.8-.17-25.19,4.56-34.89,14.51-5.7,5.85-11.59,11.71-17.28,17.38-4.65,4.63-9.46,9.42-14.14,14.17a5.91,5.91,0,0,1-4.77,1.94h0c-27.74-.07-55.5,0-82.35,0-13,0-21,8.1-21,21.12q0,52.2,0,104.41c0,13.26,8,21.19,21.33,21.19H299.14c13.58,0,21.36-7.85,21.38-21.53V326.56q0-7.85,0-15.7c0-.76,0-1.54.09-2.43h3.61c8.08-.13,14.27-2.59,18.38-7.33,3.29-3.78,6.65-5.11,12-4.76a7.23,7.23,0,0,0,5.57-1.92,7.5,7.5,0,0,0,2.26-5.59C362.35,284.58,359.17,281.63,354.53,281.5ZM244.4,256.32c4.3,6.14,10.52,9.56,18.5,10.18a3.86,3.86,0,0,1,1.94.47,33.31,33.31,0,0,0,16.67,10.6c0,.41.07.79.07,1.18v21.49c-11.88,3.5-19.63,11.23-23.08,23H164c-3.48-11.78-11.19-19.48-22.93-22.91V277.59c11.74-3.44,19.45-11.2,22.94-23.06h38.28c12.63,0,25.68,0,38.53-.06A3.68,3.68,0,0,1,244.4,256.32Zm61.12,85.73c0,3.8-1.66,5.28-5.91,5.29q-18.75,0-37.49,0H124.45c-6.73,0-7.58-.87-7.58-7.75V237.83c0-6.3,1-7.25,7.33-7.25H242.31l-3,9H160c-7.45,0-9.46,1.78-10.27,9.09a16.62,16.62,0,0,1-15.19,14.81c-6.58.61-8.7,2.93-8.71,9.54q0,16.1,0,32.19c0,6.28,2.26,8.71,8.6,9.26a16.67,16.67,0,0,1,15.32,15.41c.54,6.2,3.07,8.5,9.37,8.5h104c6.46,0,8.85-2.21,9.46-8.78a16.57,16.57,0,0,1,15.24-15.12c6.48-.58,8.67-3,8.68-9.57q0-15.9,0-31.81c0-6.43-1.91-8.61-8.5-9.71a36.1,36.1,0,0,1-6.63-2l-.86-.32L297,244l1.45,1.68c2.07,2.42,4,4.7,5.89,7a4.89,4.89,0,0,1,1.16,2.56C305.56,281.84,305.57,310.24,305.52,342.05Z"/><path class="cls-3" d="M236.65,168.34c-.06,4.88-3,8.22-7.33,8.31a7,7,0,0,1-5.14-1.92,9,9,0,0,1-2.48-6.52c0-2.39,0-4.78,0-7.3v-2.06h-50.9v12.83q0,13,0,26c0,3-.85,5.39-2.44,7a7,7,0,0,1-5,2h-.06c-4.58,0-7.43-3.48-7.44-9q0-22.44,0-44.88c0-6.21,2.77-9,8.95-9q31.42,0,62.83,0c6.24,0,9,2.74,9.08,8.87C236.69,157.56,236.71,162.9,236.65,168.34Z"/><path class="cls-4" d="M229.3,271.11a25.44,25.44,0,1,0-18.46,43.31h.32a25.42,25.42,0,0,0,18.14-43.31Zm-7.63,18a10.57,10.57,0,0,1-10.44,10.27h-.13a10.51,10.51,0,0,1-10.36-10.48,10.5,10.5,0,0,1,10.45-10.43h.27A10.53,10.53,0,0,1,221.67,289Z"/></g></g></svg>