<svg xmlns="http://www.w3.org/2000/svg" xmlns:xlink="http://www.w3.org/1999/xlink" viewBox="0 0 835.41 835.42"><defs><style>.cls-1{fill:#fff;}.cls-2{fill:#4a668e;}.cls-3{fill:url(#Degradado_sin_nombre_27);}.cls-4{fill:url(#Degradado_sin_nombre_27-2);}.cls-5{fill:url(#Degradado_sin_nombre_123);}.cls-6{fill:url(#Degradado_sin_nombre_102);}.cls-7{fill:url(#Degradado_sin_nombre_107);}.cls-8{fill:url(#Degradado_sin_nombre_117);}.cls-9{fill:url(#Degradado_sin_nombre_27-3);}</style><linearGradient id="Degradado_sin_nombre_27" x1="191.64" y1="469.44" x2="526.7" y2="275.99" gradientUnits="userSpaceOnUse"><stop offset="0" stop-color="#c0c0ca"/><stop offset="0.1" stop-color="#c5c5ce"/><stop offset="0.22" stop-color="#d4d4db"/><stop offset="0.35" stop-color="#ededf0"/><stop offset="0.43" stop-color="#fff"/><stop offset="0.58" stop-color="#eaeaed"/><stop offset="0.85" stop-color="#cacad2"/><stop offset="1" stop-color="#bebec8"/></linearGradient><linearGradient id="Degradado_sin_nombre_27-2" x1="348.96" y1="580.28" x2="636.86" y2="414.06" xlink:href="#Degradado_sin_nombre_27"/><linearGradient id="Degradado_sin_nombre_123" x1="303.82" y1="420.1" x2="472.08" y2="322.95" gradientUnits="userSpaceOnUse"><stop offset="0" stop-color="#c4c4cd"/><stop offset="0.18" stop-color="#e4e4e8"/><stop offset="0.32" stop-color="#f8f8f9"/><stop offset="0.43" stop-color="#fff"/><stop offset="1" stop-color="#c8c8d1"/></linearGradient><linearGradient id="Degradado_sin_nombre_102" x1="295.94" y1="544.73" x2="385.93" y2="492.78" gradientUnits="userSpaceOnUse"><stop offset="0" stop-color="#c0c0ca"/><stop offset="0.25" stop-color="#c5c5ce"/><stop offset="0.57" stop-color="#d4d4db"/><stop offset="0.86" stop-color="#e9e9ed"/></linearGradient><linearGradient id="Degradado_sin_nombre_107" x1="359.53" y1="498.8" x2="429.82" y2="458.22" gradientUnits="userSpaceOnUse"><stop offset="0" stop-color="#d0d0d7"/><stop offset="0.31" stop-color="#e1e1e6"/><stop offset="0.68" stop-color="#efeff2"/><stop offset="1" stop-color="#f4f4f6"/></linearGradient><linearGradient id="Degradado_sin_nombre_117" x1="287.86" y1="491.48" x2="332.85" y2="465.5" gradientUnits="userSpaceOnUse"><stop offset="0" stop-color="#c1c1ca"/><stop offset="0.78" stop-color="#c6c6cf"/><stop offset="1" stop-color="#c9c9d1"/></linearGradient><linearGradient id="Degradado_sin_nombre_27-3" x1="834.08" y1="382.74" x2="1.31" y2="452.66" xlink:href="#Degradado_sin_nombre_27"/></defs><g id="Capa_2" data-name="Capa 2"><g id="Capa_1-2" data-name="Capa 1"><path class="cls-1" d="M11.08,417.72A405.29,405.29,0,0,0,38.91,565.83c59.2,151.33,206.47,258.5,378.78,258.5,224.57,0,406.63-182,406.63-406.61S642.26,11.09,417.69,11.09c-172.31,0-319.56,107.16-378.78,258.5A405.51,405.51,0,0,0,11.08,417.72Z"/><circle class="cls-2" cx="417.7" cy="417.72" r="321.53"/><path class="cls-3" d="M527.9,390.56q0-14.61,0-29.23c0-23.58,0-48,.07-71.94A38.18,38.18,0,0,0,516,260.64c-11.82-11.61-23.65-23.43-35.15-35.15-7.83-8-17.2-11.83-28.67-11.83h-.11c-39.87.07-80.42.06-119.63.06H278.84c-22.49,0-37.62,15.1-37.62,37.55q0,146.3,0,292.58c0,22.44,15.14,37.52,37.65,37.54h82.74a16.79,16.79,0,0,0,1.73-.07c4.64-.46,7.79-3.79,7.83-8.28a8.28,8.28,0,0,0-7.63-8.47,23.25,23.25,0,0,0-3-.07h-26c-18.73,0-38.11,0-57.16,0-11.34,0-19.26-8-19.26-19.32,0-93.72,0-193,0-295.11,0-11.64,7.87-19.45,19.56-19.46,59.48,0,119.43,0,175.36,0a33.5,33.5,0,0,1,3.46.23l.49,0q.07,14.33.09,28.63c0,16.37,8.66,25,25,25h28.72c0,.28,0,.56,0,.83.1,1.55.2,3,.2,4.45q0,35.69,0,71.36v28.55c0,.36,0,.72,0,1.08a17.39,17.39,0,0,0,.16,3.43c.8,4.52,3.9,7.22,8.29,7.22h0c4.36,0,7.46-2.72,8.29-7.25a14.62,14.62,0,0,0,.15-2.85C527.91,391.1,527.9,390.83,527.9,390.56ZM479.26,267.63c-3.33-.06-5.2-1.92-5.27-5.22-.1-5.38-.08-10.71-.06-15.86,0-.64,0-1.28,0-1.91l23,23h-1.89C490,267.71,484.63,267.73,479.26,267.63Z"/><path class="cls-4" d="M614.35,377.05c-10.81-10.7-28.19-10.5-39.56.48-1.31,1.26-2.6,2.57-3.88,3.86-1.84,1.86-3.74,3.79-5.69,5.57a4.42,4.42,0,0,1-2.66,1.18c-7.52-.66-13.91,1.93-20.11,8.14Q508.73,430.09,475,463.86q-40.29,40.33-80.55,80.69a22.66,22.66,0,0,0-5.23,8.31C385,564.9,381,577.18,377,589.05q-3.21,9.65-6.43,19.29c-1,2.94-2.48,7.39,1.44,11.13a7.77,7.77,0,0,0,5.61,2.31,16.63,16.63,0,0,0,5.14-1q9-3,18-6c12-4,24.47-8.15,36.67-12.38a26.32,26.32,0,0,0,9.74-6c34.85-34.67,70.19-70,104.37-104.2l26.28-26.29c.76-.76,1.55-1.51,2.32-2.23,3.52,3.25,5.07,5.6,5.14,7.76s-1.45,4.79-5.13,8.48l-9.3,9.34c-12,12-24.34,24.45-36.47,36.71-3.87,3.92-4.13,8.92-.65,12.45a8.33,8.33,0,0,0,5.89,2.59,8.87,8.87,0,0,0,6.28-2.79l5.69-5.69c14.64-14.65,29.79-29.81,44.45-45a21.22,21.22,0,0,0,4.8-22.94c-1.31-3.55-3.49-6.75-5.78-10.14-.83-1.22-1.67-2.45-2.5-3.77l.25-.19a16.31,16.31,0,0,0,4.3-4.18c.31-.52.65-1,1-1.59,2.18-3.42,4.65-7.31,4.58-11.22-.09-5.57,2.25-8.76,5.81-11.83,1.46-1.27,2.77-2.65,4.06-4,.38-.38.75-.78,1.12-1.16C625,404.84,625.29,387.9,614.35,377.05Zm-34.88,20.7,2.06-2.33a67.76,67.76,0,0,1,7.42-7.63c3.79-3.13,10.07-2.47,13.73,1.45a10.39,10.39,0,0,1,.28,13.89c-2.16,2.51-4.56,4.92-6.88,7.27-.65.65-1.31,1.3-2,2ZM391.19,600.1l10.29-31,20.69,20.68ZM438.74,580l-27.53-27.48L458.72,505l27.54,27.46ZM584.19,435.51q-35.31,35.4-70.7,70.72L500,519.7l-28.44-28.5c.33-.36.71-.77,1.1-1.16q40.79-40.83,81.6-81.62c4.87-4.86,6.46-4.86,11.33,0l4.19,4.19c4.69,4.67,9.53,9.5,14.24,14.28C587.13,430,587.17,432.53,584.19,435.51Z"/><path class="cls-5" d="M476.29,332.49C452.23,314,425,293,398.48,272.7c-9-6.87-18.94-6.83-28,.13-24.93,19.13-50.25,38.61-74.73,57.46l-2.72,2.1c-5.48,4.21-6,8.58-1.75,14.18,1.62,2.13,3.28,4.25,4.92,6.36,2.79,3.58,5.67,7.28,8.38,11,2.49,3.42,5.71,6.6,10.86,5.47v20.55q0,22.71,0,45.42c0,8.31,2.84,11.11,11.23,11.11h115c9,0,11.65-2.59,11.65-11.57q0-22.42,0-44.86V369.19c5.43,1.35,8.6-1.78,10.57-4.42,2.61-3.49,5.33-7,8-10.4,2.05-2.64,4.11-5.3,6.14-8C482.11,341,481.57,336.56,476.29,332.49Zm-103.61,96.9V386h23.47v43.42Zm63.77-11.61v10.64a6.65,6.65,0,0,1-.07.95H413.23V413.16q0-16.86,0-33.74c0-7.57-3-10.53-10.53-10.54q-18.34,0-36.68,0c-7.53,0-10.47,3-10.49,10.58q0,16.62,0,33.26v16.77H332.28V411.74c0-16.93,0-34.43-.06-51.66a4.84,4.84,0,0,1,2.19-4.6c12.95-9.85,26.12-20,38.84-29.8L384.48,317l.07,0c.75.52,1.49,1,2.2,1.58L395,325c12.86,9.87,26.13,20.06,39.11,30.21a6,6,0,0,1,2.22,3.68C436.49,378.51,436.47,398.48,436.45,417.78Zm17.92-68.42L416.16,320l-24.78-19.05c-2.71-2.06-4.76-3.1-6.8-3.1s-4.12,1.05-6.83,3.14q-17,13-34,26.14L317,347.7c-.71.54-1.45,1-2.26,1.61l-6-7.71,8-6.19,19.8-15.25q21.69-16.7,43.41-33.37c3.94-3,5.18-3.07,8.84-.26q23.3,17.88,46.58,35.81L460,341.21l.47.35Z"/><path class="cls-6" d="M397.62,524.51a9.7,9.7,0,0,1-7.15,2.88c-3,0-6,.05-8.91.05H353.14c-20,0-40.61,0-60.92-.07-2.5,0-5.83-.42-7.45-2.28a11.33,11.33,0,0,1-2.48-8.37c.58-3.86,3.82-6.15,8.66-6.15h63.62c11.83,0,23.64,0,35.47,0,5.64,0,9.33,3,9.65,7.88A8,8,0,0,1,397.62,524.51Z"/><path class="cls-7" d="M440.18,478.52c0,5.19-3.89,8.41-10.1,8.41l-35.41,0-35.43,0c-3.35,0-6.08-.94-7.85-2.72a7.92,7.92,0,0,1-2.21-5.73c0-5.17,3.88-8.39,10.1-8.4q12.56,0,25.11,0h20.54q12.58,0,25.17,0a11.47,11.47,0,0,1,7.25,2.18A7.75,7.75,0,0,1,440.18,478.52Z"/><path class="cls-8" d="M339,478.24a7.9,7.9,0,0,1-2.16,5.88,10.09,10.09,0,0,1-7.29,2.81c-2.59,0-5.19,0-7.78,0H304.45c-4.36,0-8.86,0-13.3,0-5.58-.07-9.27-3.27-9.43-8.18a7.92,7.92,0,0,1,2.19-5.91,9.82,9.82,0,0,1,7.27-2.75c12.57-.06,25.48-.06,38.36,0C335.13,470.11,338.84,473.31,339,478.24Z"/><path class="cls-9" d="M406,835.42h-.32A417.8,417.8,0,0,1,359,831.49a11.23,11.23,0,0,1,3.13-22.24A394.64,394.64,0,0,0,406.26,813a11.23,11.23,0,0,1-.31,22.46Zm45.56-1.28a11.23,11.23,0,0,1-.88-22.42l.19,0a402.69,402.69,0,0,0,43.69-6.1,11.23,11.23,0,0,1,4.33,22,424.61,424.61,0,0,1-46.18,6.45l-.24,0C452.12,834.13,451.81,834.14,451.51,834.14ZM315.83,822.7a11.42,11.42,0,0,1-2.82-.36,416.53,416.53,0,0,1-44.63-14.28,11.23,11.23,0,0,1,8-21,393.3,393.3,0,0,0,42.22,13.51,11.23,11.23,0,0,1-2.81,22.1Zm225-6.15a11.23,11.23,0,0,1-3.39-21.94,394.64,394.64,0,0,0,41.45-15.75,11.23,11.23,0,0,1,9.16,20.51A416.05,416.05,0,0,1,544.23,816,11.15,11.15,0,0,1,540.84,816.55Zm-310-26.42a11.16,11.16,0,0,1-5.16-1.26A420.65,420.65,0,0,1,185.36,765a11.23,11.23,0,1,1,12.5-18.66A396.28,396.28,0,0,0,236,768.93a11.23,11.23,0,0,1-5.18,21.2ZM624,779.43a11.23,11.23,0,0,1-5.71-20.9,394.88,394.88,0,0,0,36.87-24.64,11.23,11.23,0,0,1,13.51,18,417.32,417.32,0,0,1-39,26A11.18,11.18,0,0,1,624,779.43Zm-468.82-40a11.17,11.17,0,0,1-7.24-2.65,419.16,419.16,0,0,1-34-32.19,11.23,11.23,0,0,1,16.32-15.43,401.4,401.4,0,0,0,32.21,30.47,11.23,11.23,0,0,1-7.25,19.8Zm541.58-14.79a11.23,11.23,0,0,1-7.72-19.39,399.75,399.75,0,0,0,30.49-32.2,11.23,11.23,0,1,1,17.14,14.5,420.67,420.67,0,0,1-32.2,34A11.21,11.21,0,0,1,696.78,724.68ZM92.66,673.32a11.21,11.21,0,0,1-9-4.47,418.7,418.7,0,0,1-26.05-39A11.22,11.22,0,1,1,77,618.48a394.79,394.79,0,0,0,24.66,36.85,11.24,11.24,0,0,1-9,18Zm662.91-18.14a11.23,11.23,0,0,1-9.32-17.48,398.92,398.92,0,0,0,22.59-38.14,11.23,11.23,0,0,1,19.93,10.35A417.77,417.77,0,0,1,764.9,650.2,11.2,11.2,0,0,1,755.57,655.18ZM46.37,594.89a11.25,11.25,0,0,1-10.26-6.65,418.82,418.82,0,0,1-16.68-43.82,11.23,11.23,0,0,1,21.41-6.79,394.83,394.83,0,0,0,15.78,41.45,11.23,11.23,0,0,1-10.25,15.81ZM797.5,574.4A11.22,11.22,0,0,1,787,559.15a393.91,393.91,0,0,0,13.52-42.21,11.23,11.23,0,0,1,21.74,5.63A414.4,414.4,0,0,1,808,567.2,11.23,11.23,0,0,1,797.5,574.4ZM18.81,508.1A11.24,11.24,0,0,1,7.8,499a425.51,425.51,0,0,1-6.49-46.38l-.06-.76A11.23,11.23,0,0,1,23.63,450l.07.78a400.29,400.29,0,0,0,6.14,43.88A11.23,11.23,0,0,1,21,507.88,10.82,10.82,0,0,1,18.81,508.1Zm801.55-21.82a12.14,12.14,0,0,1-1.59-.11,11.23,11.23,0,0,1-9.55-12.69A394.68,394.68,0,0,0,813,429.33a11.23,11.23,0,1,1,22.45.63,418,418,0,0,1-3.94,46.66A11.23,11.23,0,0,1,820.36,486.28ZM11.23,416.61H10.9A11.23,11.23,0,0,1,0,405.05a420.69,420.69,0,0,1,4-46.66,11.23,11.23,0,1,1,22.23,3.17,397.11,397.11,0,0,0-3.77,44.15A11.23,11.23,0,0,1,11.23,416.61Zm811.68-21.32A11.23,11.23,0,0,1,811.73,385l0-.23a404.71,404.71,0,0,0-6.08-43.66,11.22,11.22,0,1,1,22-4.32,421.12,421.12,0,0,1,6.42,46l0,.42a11.23,11.23,0,0,1-10.3,12.09C823.51,395.28,823.21,395.29,822.91,395.29ZM24.08,326.51a11.56,11.56,0,0,1-2.83-.36,11.24,11.24,0,0,1-8-13.7,418,418,0,0,1,14.34-44.61,11.23,11.23,0,0,1,21,8.07,394,394,0,0,0-13.57,42.2A11.23,11.23,0,0,1,24.08,326.51ZM805.37,306a11.24,11.24,0,0,1-10.71-7.85,393.31,393.31,0,0,0-15.73-41.46,11.23,11.23,0,0,1,20.51-9.14,417.36,417.36,0,0,1,16.64,43.83,11.24,11.24,0,0,1-7.32,14.1A11.45,11.45,0,0,1,805.37,306ZM56.75,241.57a11.24,11.24,0,0,1-10-16.42,418.67,418.67,0,0,1,23.91-40.27A11.23,11.23,0,1,1,89.35,197.4a399.84,399.84,0,0,0-22.63,38.12A11.23,11.23,0,0,1,56.75,241.57ZM768.3,222.78a11.22,11.22,0,0,1-9.68-5.53A396.82,396.82,0,0,0,734,180.37a11.23,11.23,0,1,1,18-13.5,418.69,418.69,0,0,1,26,39,11.24,11.24,0,0,1-9.67,16.93ZM107.52,166A11.23,11.23,0,0,1,99,147.52a420.78,420.78,0,0,1,32.23-34,11.23,11.23,0,0,1,15.41,16.34A398.07,398.07,0,0,0,116.09,162,11.21,11.21,0,0,1,107.52,166Zm606.06-16a11.19,11.19,0,0,1-8.17-3.52A399.83,399.83,0,0,0,673.22,116a11.23,11.23,0,0,1,14.51-17.14,422.64,422.64,0,0,1,34,32.22A11.23,11.23,0,0,1,713.58,150ZM173.77,103.54A11.23,11.23,0,0,1,167,83.33a419.45,419.45,0,0,1,39-26A11.23,11.23,0,1,1,217.4,76.69a396.1,396.1,0,0,0-36.89,24.6A11.17,11.17,0,0,1,173.77,103.54ZM644.09,91.16a11.18,11.18,0,0,1-6.25-1.91,397.57,397.57,0,0,0-38.12-22.61,11.23,11.23,0,0,1,10.35-19.93A422.1,422.1,0,0,1,650.36,70.6a11.24,11.24,0,0,1-6.27,20.56ZM252.27,57.37a11.23,11.23,0,0,1-4.58-21.49,416.73,416.73,0,0,1,43.85-16.62,11.23,11.23,0,0,1,6.76,21.42A392.58,392.58,0,0,0,256.83,56.4,11.23,11.23,0,0,1,252.27,57.37ZM563.34,49.2a11.14,11.14,0,0,1-4-.76A396.28,396.28,0,0,0,517.11,34.9a11.23,11.23,0,0,1,5.65-21.74,416.42,416.42,0,0,1,44.61,14.32,11.23,11.23,0,0,1-4,21.72ZM339.08,30A11.23,11.23,0,0,1,336.93,7.7a425.18,425.18,0,0,1,45.81-6.38l.56-.05a11.23,11.23,0,0,1,1.89,22.38l-.61.05a400.64,400.64,0,0,0-43.33,6A11.47,11.47,0,0,1,339.08,30Zm136.17-3.64a10.62,10.62,0,0,1-1.59-.11,394.71,394.71,0,0,0-44.15-3.75A11.23,11.23,0,1,1,430.15,0a417.86,417.86,0,0,1,46.66,4,11.23,11.23,0,0,1-1.56,22.34Z"/></g></g></svg>