<svg xmlns="http://www.w3.org/2000/svg" viewBox="0 0 400.94 411.81"><defs><style>.cls-1{fill:#4a668e;}</style></defs><g id="Capa_2" data-name="Capa 2"><g id="Capa_1-2" data-name="Capa 1"><path class="cls-1" d="M200.39,411.8q-82,0-164,0C18.14,411.76,4,400,.63,382.34a45.08,45.08,0,0,1-.54-8.22Q.06,264.34,0,154.55c0-4.74,1.47-8,5.34-10.86C19.68,133.23,33.79,122.45,48.13,112a7.4,7.4,0,0,0,3.34-6.87c-.14-12.4-.09-24.81,0-37.21,0-6.73,2.39-9.08,9.15-9.09,18.22,0,36.44.08,54.66-.13a13.56,13.56,0,0,0,7.44-2.52C146.58,38.55,170.34,20.75,194.15,3c5.39-4,7.21-4,12.67,0,23.83,17.46,47.67,34.89,71.39,52.5a16.12,16.12,0,0,0,10.5,3.37c17.15-.18,34.3-.09,51.45-.06,7,0,9.33,2.32,9.36,9.34,0,11.79.11,23.59-.07,35.37a7.39,7.39,0,0,0,3.43,6.84c14.26,10.31,28.35,20.86,42.63,31.15,3.86,2.78,5.44,6,5.43,10.81q-.17,110.94-.09,221.88c0,22.57-15.16,37.59-37.85,37.6Q281.7,411.83,200.39,411.8ZM27.29,394.37l0,1.35c3.27.46,6.55,1.32,9.82,1.32q163.35.1,326.7,0c13.6,0,22.31-8.8,22.32-22.51q0-103.6,0-207.23c0-1.25-.2-2.5-.36-4.25Zm39-320.63c-.08,1.25-.2,2.28-.2,3.31,0,33.07,0,66.14-.09,99.21,0,3,1.44,4.27,3.61,5.63q64,40.08,127.85,80.3c2.85,1.8,4.83,1.89,7.72,0q63-40.83,126.1-81.36a6.87,6.87,0,0,0,3.58-6.64c-.11-32-.06-64-.08-96,0-1.46-.15-2.93-.23-4.47ZM15,164.92c-.12,1.67-.25,2.52-.25,3.37q0,104,.05,208.05c0,2.32.7,4.64,1.21,7.79L187.77,273.35ZM144.52,58.38H257.44L200.5,16.61Zm205.34,67.93v42.47l30.76-19.87Zm-329.5,24.6,30.7,19.19V128Z"/><path class="cls-1" d="M222,183.84c-22.32,10.23-38,8-49.45-7a35.17,35.17,0,0,1,.71-43.41c11.58-14,28.3-16.44,47.14-6.92,1.33-1.63,2.35-3.92,4.05-4.67,2-.89,5.26-1.38,6.76-.33,2,1.43,4,4.47,4.07,6.87.4,12.55.19,25.11.2,37.67,0,3.52-.2,7.06.12,10.56.38,4,2,7.51,6.51,8.38,4,.79,6.15-1.67,7.76-5,13.81-28.32,2.94-67.13-36-77.51a54.33,54.33,0,0,0-68.52,54.64c1.32,34.34,36.42,65.2,75.76,49.53,1.56-.62,3.1-1.32,4.67-1.9a6.69,6.69,0,0,1,8.42,2.8,6.32,6.32,0,0,1-.94,8.76,21.83,21.83,0,0,1-7.31,4.54c-45.6,15.69-87.68-11.17-94.27-55.39-5.66-38,18.36-71.83,55.53-78.33,26.95-4.72,50.28,3.72,67.69,24.91,17.08,20.76,19.58,44.49,10.23,69.54a36.29,36.29,0,0,1-3,6.16c-4.31,7.14-9.82,13.1-18.88,12.38-9.27-.74-16.45-5.39-20.29-14.31C222.68,185.17,222.35,184.51,222,183.84ZM200.34,176a20.37,20.37,0,1,0-20.06-20.68A20.32,20.32,0,0,0,200.34,176Z"/></g></g></svg>