<svg xmlns="http://www.w3.org/2000/svg" viewBox="0 0 411.34 411.45"><defs><style>.cls-1{fill:#4a668e;}</style></defs><g id="Capa_2" data-name="Capa 2"><g id="Capa_1-2" data-name="Capa 1"><path class="cls-1" d="M411.31,192.87l0,24.64c-.89,7.1-1.4,14.26-2.71,21.28q-20,107.27-118.42,154.37c-7.59,3.62-15.62,6.31-23.8,9.36a2.73,2.73,0,0,1-3.67-2.56V251.25h44c2.23-17.31,4.41-34.2,6.67-51.65H262.6c0-12.51-.23-24.56.06-36.59q.46-19.94,20.48-20.76c9.09-.4,18.21-.2,27.31-.27h4.17V95.05c-16.14-.25-32.06-1.24-47.89-.42a66.19,66.19,0,0,0-24.17,6.5c-21.62,10.24-31.13,29-32.77,52-1,13.87-.42,27.84-.55,41.77,0,1.55,0,3.1,0,5.1H165.3v51.33h43.94V256q0,75.52,0,151.06v0a4.31,4.31,0,0,1-4.32,4.31h-.46a185.65,185.65,0,0,1-22.36-1.39l-.79-.1c-40.13-4.78-76.32-19.55-106.77-46C12.57,310.19-11.23,242.23,4.9,161.72,23.15,70.61,106.09,2.32,199,.07c40.05-1,77.63,8,111.85,29,53.25,32.58,85.85,79.74,97.35,141.23C409.55,177.74,410.27,185.34,411.31,192.87Z"/></g></g></svg>