<svg xmlns="http://www.w3.org/2000/svg" viewBox="0 0 354.08 354.12"><defs><style>.cls-1{fill:#fff;}</style></defs><g id="Capa_2" data-name="Capa 2"><g id="Capa_1-2" data-name="Capa 1"><path class="cls-1" d="M166,0h22.13C194,.76,200,1.32,205.85,2.32,239.47,8,269.18,22.09,294.57,44.85c30.51,27.35,49.6,61.25,56.79,101.68,1.14,6.43,1.82,12.95,2.72,19.44v22.12c-.29,2.27-.61,4.54-.85,6.81-3.83,35.15-16.6,66.67-39.15,93.91-31.2,37.69-71.3,59.39-120,64.38-34.42,3.53-67.12-3.09-98-18.69a7.85,7.85,0,0,0-5.13-.43c-9.2,2.52-18.3,5.44-27.51,7.93-14.86,4-29.75,8-44.72,11.65A14.86,14.86,0,0,1,2,346.06c-2.71-4.94-2.44-9.86-.14-14.9,8.27-18.1,16.39-36.27,24.76-54.33,1.32-2.84,1.12-4.84-.48-7.49q-34.33-56.62-23.54-122c6.1-36.65,22.54-68.19,48.62-94.58,26.43-26.73,58.24-43.5,95.33-50C153,1.59,159.5.9,166,0ZM43.31,314.74c1.71-.38,2.92-.59,4.1-.91,13.65-3.74,27.34-7.33,40.91-11.32,6.4-1.89,12-1.12,17.82,2.11,34,18.7,70.07,23.53,107.57,13.73,64.46-16.83,108.67-73.4,109.23-140,.4-46.63-17.95-85.26-54-114.67C220.79,24.42,155.88,20.15,102.21,51.61,49.76,82.36,21.55,145.49,33.59,204.93A144.3,144.3,0,0,0,57.4,260.7c4.48,6.29,5.22,12.53,1.63,19.39-1.54,3-2.79,6.06-4.16,9.1Z"/><path class="cls-1" d="M90.51,136.41c0-15.5,6-26.94,17.28-35.63,8.42-6.46,17.32-6.17,25,1.21,10.16,9.77,15.38,22.1,16.07,36,.19,3.9-2,8.17-3.92,11.84-1.74,3.31-4.58,6-7,9a7.32,7.32,0,0,0-.67,9.23c13.81,23,32.91,39.78,57.85,49.81,4.58,1.84,6.94,1.17,9.79-2.88,2.38-3.4,4.61-6.89,6.84-10.39,4.26-6.66,10.19-8.69,17.86-7.12,9.53,2,18.27,5.54,25.88,11.62,10.76,8.62,12.56,18.16,5.64,30.09-8.86,15.29-22.86,20.29-39.59,19.06-19.94-1.47-37.56-9.65-54.18-20.08-26.74-16.77-49.32-37.83-65.33-65.34C95.32,161.25,90.68,148.93,90.51,136.41Z"/></g></g></svg>