<svg xmlns="http://www.w3.org/2000/svg" viewBox="0 0 377.26 377.13"><defs><style>.cls-1{fill:#4a668e;}</style></defs><g id="Capa_2" data-name="Capa 2"><g id="Capa_1-2" data-name="Capa 1"><path class="cls-1" d="M310.14,112.47q-3.72-2.89-7.41-5.81c-7.2-5.67-14.65-11.54-22.09-17.18a7,7,0,0,1-3.23-6.42c.14-20.38.11-41.08.09-61.11l0-12.53c0-6.48-2.86-9.39-9.28-9.4-15,0-30.27,0-46.77,0C215,0,212.07,2.9,212,9.31q0,8.6,0,17.2v9.17l0,0-11.52-9c-8.68-6.8-17.65-13.86-26.57-20.68-10.22-7.81-22.7-7.88-32.57-.18-40.68,31.73-82,64.07-121.93,95.34L3.89,113.24c-4.57,3.58-5.12,7.71-1.61,12.24,4.86,6.31,10.06,12.93,16.35,20.86,3.54,4.43,7.66,4.94,12.26,1.53,2-1.48,3.92-3,6-4.57l.32-.25V261.8H35.24c-2.49,0-4.9,0-7.3,0-6.21.06-9.13,2.95-9.17,9.1,0,5.06,0,10.12,0,15.18v5.48c0,8.34,2.4,10.75,10.69,10.75H168.79a15,15,0,0,0,1.88-.1,7.64,7.64,0,0,0,7-8c-.26-4.15-2.71-6.79-6.88-7.44a18,18,0,0,0-3.09-.11c-.36,0-.69,0-1,0H34.6v-9.35H167.45a21.45,21.45,0,0,0,2.65,0c4.52-.35,7.64-3.57,7.61-7.81a7.61,7.61,0,0,0-7.79-7.68c-5-.11-10-.09-14.9-.08l-6.16,0h-2.29V159.55c0-7.24-2.69-9.94-9.93-9.94H79c-7.73,0-10.34,2.62-10.34,10.32V261.63H53.05V235.26c0-33.32,0-67.79-.07-101.68a5.31,5.31,0,0,1,2.38-4.89c34.21-26.64,67.95-53,100.31-78.48,1.59-1.25,2-1.25,3.66,0,34.13,26.83,67.88,53.22,100.32,78.46a5.19,5.19,0,0,1,2.31,4.91c-.19,8.39-.12,16.55,0,23.41a8.52,8.52,0,0,0,2.23,5.84,7.48,7.48,0,0,0,5.52,2.3c4.45,0,7.64-3.34,7.76-8.13.07-2.89.06-5.82.05-8.66,0-1.79,0-3.59,0-5.38v-.22l.69.54c1.94,1.52,3.74,2.93,5.56,4.32,4.9,3.75,9,3.24,12.83-1.62,5.34-6.73,10.75-13.65,15.4-19.61C316.39,120.76,315.89,117,310.14,112.47Zm-179.32,53v96.12H84.54V165.47ZM227.63,21.36V15.79h34V74.48l-.5-.39c-10.48-8.18-21.31-16.65-31.91-25a4.49,4.49,0,0,1-1.48-1.71C227.6,38.71,227.62,29.89,227.63,21.36Zm60.65,110-4.51-3.52c-4.07-3.16-8.11-6.29-12.13-9.43L165,34.9c-3.26-2.54-5.36-3.81-7.45-3.81s-4.15,1.25-7.33,3.72l-38,29.73q-41.55,32.52-83.12,65c-.73.56-1.47,1.1-2.29,1.7l-.08.06-7.84-10,.13-.09c.87-.73,1.71-1.42,2.57-2.09L149.11,19.39c6.34-5,10.38-5,16.6-.11Q230,69.52,294.18,119.79c.65.5,1.26,1,1.92,1.57Z"/><path class="cls-1" d="M377.24,208.85c0-20.19-14.17-34.29-34.37-34.3q-60.58,0-121.17,0c-20.68,0-34.6,13.85-34.61,34.45q0,66.81,0,133.6c0,20.64,13.91,34.51,34.57,34.52H342.44c20.79,0,34.78-13.95,34.8-34.68q0-23.32,0-46.68V255.55Q377.27,232.2,377.24,208.85Zm-15.58,86.62q0,23.46,0,46.92c0,12.33-6.85,19.14-19.27,19.14q-60.18,0-120.36,0c-12.65,0-19.34-6.73-19.34-19.47V209.65c0-12.77,6.81-19.52,19.67-19.52h120c12.65,0,19.33,6.73,19.33,19.46q0,23.25,0,46.5Z"/><path class="cls-1" d="M246.28,157.28a7.16,7.16,0,0,1-2,5.31c-1.67,1.7-4.31,2.59-7.64,2.6H177.75v19.48c0,2.68,0,5.34,0,8,0,6.69,0,13.61,0,20.42-.06,4.72-3.31,8.14-7.76,8.15h0c-4.39,0-7.51-3.23-7.77-8.06,0-.32,0-.65,0-1V197.56q0-19.27,0-38.56c0-6.48,2.88-9.37,9.3-9.39q32.7,0,65.43,0C242.7,149.61,246.22,152.49,246.28,157.28Z"/><path class="cls-1" d="M352.3,208.82c0-6.46-2.9-9.34-9.35-9.34q-60.78,0-121.57,0c-6.44,0-9.32,2.88-9.34,9.34q0,15.5,0,31v2.51c0,7.47,2.66,10.12,10.13,10.12H343c6.45,0,9.33-2.89,9.35-9.34C352.34,231.83,352.34,220.28,352.3,208.82Zm-15.91,6.45v21.32H227.79V215.27Z"/><path class="cls-1" d="M252.53,270.15c-.06-5.22-3.1-8.26-8.35-8.32-8-.09-16-.09-23.8,0-5.17.06-8.2,3.1-8.32,8.32-.07,2.74-.05,5.49,0,8.17,0,1.18,0,2.37,0,3.56s0,2.45,0,3.69c0,2.76,0,5.6,0,8.42.12,5.21,3.16,8.24,8.34,8.3q6,.07,11.92.07c4,0,8,0,11.88-.08,5.24,0,8.27-3.1,8.33-8.33C252.62,286,252.62,278,252.53,270.15ZM241.8,289.4a2.22,2.22,0,0,1-2.22,2.21H225a2.21,2.21,0,0,1-2.21-2.21V274.8a2.22,2.22,0,0,1,2.21-2.22h14.59a2.23,2.23,0,0,1,2.22,2.22Z"/><path class="cls-1" d="M302.47,270.15c-.06-5.22-3.1-8.26-8.35-8.32-8-.09-16-.09-23.8,0-5.17.06-8.2,3.1-8.32,8.32-.07,2.74-.05,5.49,0,8.17,0,1.18,0,2.37,0,3.56s0,2.45,0,3.69c0,2.76,0,5.6,0,8.42.12,5.21,3.16,8.24,8.35,8.3,4,0,7.95.07,11.91.07s8,0,11.88-.08c5.24,0,8.27-3.1,8.33-8.33C302.56,286,302.56,278,302.47,270.15ZM291.74,289.4a2.22,2.22,0,0,1-2.22,2.21H274.93a2.21,2.21,0,0,1-2.21-2.21V274.8a2.22,2.22,0,0,1,2.21-2.22h14.59a2.23,2.23,0,0,1,2.22,2.22Z"/><path class="cls-1" d="M352.28,270.15c-.07-5.22-3.1-8.26-8.35-8.32-8-.09-16-.09-23.8,0-5.17.06-8.2,3.1-8.32,8.32-.08,2.74-.06,5.49,0,8.17,0,1.18,0,2.37,0,3.56s0,2.45,0,3.69c0,2.76,0,5.6,0,8.42.12,5.21,3.16,8.24,8.34,8.3q6,.07,11.92.07c4,0,8,0,11.88-.08,5.24,0,8.26-3.1,8.33-8.33C352.37,286,352.37,278,352.28,270.15ZM341.55,289.4a2.22,2.22,0,0,1-2.22,2.21H324.74a2.2,2.2,0,0,1-2.21-2.21V274.8a2.21,2.21,0,0,1,2.21-2.22h14.59a2.23,2.23,0,0,1,2.22,2.22Z"/><path class="cls-1" d="M252.53,320c-.06-5.22-3.1-8.26-8.35-8.31-8-.1-16-.1-23.8,0-5.17.05-8.2,3.09-8.32,8.31-.07,2.74-.05,5.49,0,8.17,0,1.19,0,2.37,0,3.56s0,2.45,0,3.69c0,2.76,0,5.6,0,8.42.12,5.21,3.16,8.24,8.34,8.31q6,.06,11.92.06c4,0,8,0,11.88-.08,5.24-.05,8.27-3.1,8.33-8.33C252.62,335.87,252.62,327.87,252.53,320ZM241.8,339.26a2.22,2.22,0,0,1-2.22,2.21H225a2.21,2.21,0,0,1-2.21-2.21v-14.6a2.22,2.22,0,0,1,2.21-2.22h14.59a2.23,2.23,0,0,1,2.22,2.22Z"/><path class="cls-1" d="M302.47,320c-.06-5.22-3.1-8.26-8.35-8.31-8-.1-16-.1-23.8,0-5.17.05-8.2,3.09-8.32,8.31-.07,2.74-.05,5.49,0,8.17,0,1.19,0,2.37,0,3.56s0,2.45,0,3.69c0,2.76,0,5.6,0,8.42.12,5.21,3.16,8.24,8.35,8.31,4,0,7.95.06,11.91.06s8,0,11.88-.08c5.24-.05,8.27-3.1,8.33-8.33C302.56,335.87,302.56,327.87,302.47,320Zm-10.73,19.25a2.22,2.22,0,0,1-2.22,2.21H274.93a2.21,2.21,0,0,1-2.21-2.21v-14.6a2.22,2.22,0,0,1,2.21-2.22h14.59a2.23,2.23,0,0,1,2.22,2.22Z"/><path class="cls-1" d="M352.28,320c-.07-5.22-3.1-8.26-8.35-8.31-8-.1-16-.1-23.8,0-5.17.05-8.2,3.09-8.32,8.31-.08,2.74-.06,5.49,0,8.17,0,1.19,0,2.37,0,3.56s0,2.45,0,3.69c0,2.76,0,5.6,0,8.42.12,5.21,3.16,8.24,8.34,8.31q6,.06,11.92.06c4,0,8,0,11.88-.08,5.24-.05,8.26-3.1,8.33-8.33C352.37,335.87,352.37,327.87,352.28,320Zm-10.73,19.25a2.22,2.22,0,0,1-2.22,2.21H324.74a2.2,2.2,0,0,1-2.21-2.21v-14.6a2.21,2.21,0,0,1,2.21-2.22h14.59a2.23,2.23,0,0,1,2.22,2.22Z"/></g></g></svg>