<svg xmlns="http://www.w3.org/2000/svg" xmlns:xlink="http://www.w3.org/1999/xlink" viewBox="0 0 362.52 362.4"><defs><style>.cls-1{fill:url(#Degradado_sin_nombre_27);}.cls-2{fill:url(#Degradado_sin_nombre_155);}.cls-3{fill:url(#Degradado_sin_nombre_150);}.cls-4{fill:url(#Degradado_sin_nombre_158);}.cls-5{fill:url(#Degradado_sin_nombre_165);}.cls-6{fill:url(#Degradado_sin_nombre_173);}.cls-7{fill:url(#Degradado_sin_nombre_183);}.cls-8{fill:url(#Degradado_sin_nombre_187);}.cls-9{fill:url(#Degradado_sin_nombre_198);}.cls-10{fill:url(#Degradado_sin_nombre_207);}</style><linearGradient id="Degradado_sin_nombre_27" x1="-8.23" y1="239.51" x2="299.24" y2="61.99" gradientUnits="userSpaceOnUse"><stop offset="0" stop-color="#c0c0ca"/><stop offset="0.1" stop-color="#c5c5ce"/><stop offset="0.22" stop-color="#d4d4db"/><stop offset="0.35" stop-color="#ededf0"/><stop offset="0.43" stop-color="#fff"/><stop offset="0.58" stop-color="#eaeaed"/><stop offset="0.85" stop-color="#cacad2"/><stop offset="1" stop-color="#bebec8"/></linearGradient><linearGradient id="Degradado_sin_nombre_155" x1="170.44" y1="323.17" x2="371.76" y2="206.93" gradientUnits="userSpaceOnUse"><stop offset="0" stop-color="#e1e1e6"/><stop offset="0.1" stop-color="#e6e6ea"/><stop offset="0.23" stop-color="#f5f5f7"/><stop offset="0.28" stop-color="#fff"/><stop offset="0.45" stop-color="#f6f6f7"/><stop offset="0.72" stop-color="#dedee3"/><stop offset="1" stop-color="#bebec8"/></linearGradient><linearGradient id="Degradado_sin_nombre_150" x1="145.23" y1="188.66" x2="230.93" y2="139.18" gradientUnits="userSpaceOnUse"><stop offset="0" stop-color="#fafafa"/><stop offset="0.36" stop-color="#fff"/><stop offset="0.38" stop-color="#fdfdfd"/><stop offset="0.78" stop-color="#dddde2"/><stop offset="1" stop-color="#d1d1d8"/></linearGradient><linearGradient id="Degradado_sin_nombre_158" x1="211.98" y1="251.3" x2="330.33" y2="182.97" gradientUnits="userSpaceOnUse"><stop offset="0" stop-color="#fff"/><stop offset="0.23" stop-color="#fafafb"/><stop offset="0.5" stop-color="#ededf0"/><stop offset="0.77" stop-color="#d7d7dd"/><stop offset="1" stop-color="#bebec8"/></linearGradient><linearGradient id="Degradado_sin_nombre_165" x1="202.59" y1="282.97" x2="243.89" y2="259.12" gradientUnits="userSpaceOnUse"><stop offset="0" stop-color="#e6e6ea"/><stop offset="0.18" stop-color="#ebebee"/><stop offset="0.41" stop-color="#fafafb"/><stop offset="0.46" stop-color="#fff"/></linearGradient><linearGradient id="Degradado_sin_nombre_173" x1="250.58" y1="282.97" x2="291.88" y2="259.12" gradientUnits="userSpaceOnUse"><stop offset="0" stop-color="#fff"/><stop offset="0.43" stop-color="#fff"/><stop offset="0.64" stop-color="#fbfbfc"/><stop offset="0.85" stop-color="#efeff2"/><stop offset="1" stop-color="#e2e2e7"/></linearGradient><linearGradient id="Degradado_sin_nombre_183" x1="298.45" y1="282.97" x2="339.74" y2="259.12" gradientUnits="userSpaceOnUse"><stop offset="0" stop-color="#e9e9ec"/><stop offset="0.33" stop-color="#e4e4e7"/><stop offset="0.43" stop-color="#e1e1e5"/><stop offset="1" stop-color="#d7d7dd"/></linearGradient><linearGradient id="Degradado_sin_nombre_187" x1="202.59" y1="330.88" x2="243.89" y2="307.04" gradientUnits="userSpaceOnUse"><stop offset="0" stop-color="#e5e5ea"/><stop offset="0.32" stop-color="#eaeaee"/><stop offset="0.72" stop-color="#f9f9fa"/><stop offset="0.84" stop-color="#fff"/></linearGradient><linearGradient id="Degradado_sin_nombre_198" x1="250.58" y1="330.88" x2="291.88" y2="307.04" gradientUnits="userSpaceOnUse"><stop offset="0" stop-color="#f7f7f8"/><stop offset="0.45" stop-color="#fcfcfd"/><stop offset="0.57" stop-color="#fff"/><stop offset="1" stop-color="#f5f5f7"/></linearGradient><linearGradient id="Degradado_sin_nombre_207" x1="298.45" y1="330.88" x2="339.74" y2="307.04" gradientUnits="userSpaceOnUse"><stop offset="0" stop-color="#eeeef1"/><stop offset="0.43" stop-color="#ebebee"/><stop offset="1" stop-color="#e1e1e5"/></linearGradient></defs><g id="Capa_2" data-name="Capa 2"><g id="Capa_1-2" data-name="Capa 1"><path class="cls-1" d="M298,108.08l-7.12-5.59C284,97,276.83,91.4,269.68,86a6.7,6.7,0,0,1-3.1-6.17c.13-19.58.11-39.47.09-58.72l0-12c0-6.23-2.75-9-8.92-9-14.39,0-29.09,0-44.94,0-6.22,0-9,2.76-9,8.92q0,8.26,0,16.53v8.81l0,0-11.07-8.68c-8.34-6.54-17-13.32-25.53-19.87-9.82-7.51-21.81-7.58-31.3-.18C96.72,36,57,67.09,18.65,97.14L3.74,108.82c-4.39,3.44-4.92,7.4-1.55,11.76,4.67,6.06,9.67,12.42,15.72,20,3.4,4.26,7.36,4.75,11.78,1.47,1.9-1.42,3.76-2.86,5.72-4.39l.31-.24V251.57H33.87c-2.4,0-4.71,0-7,0-6,.06-8.77,2.84-8.81,8.75,0,4.86,0,9.72,0,14.59v5.26c0,8,2.31,10.33,10.27,10.33H162.2a15.9,15.9,0,0,0,1.81-.09,7.34,7.34,0,0,0,6.73-7.66c-.25-4-2.6-6.53-6.61-7.15a16.6,16.6,0,0,0-3-.11c-.34,0-.66,0-1,0H33.25v-9H160.91a24.27,24.27,0,0,0,2.55,0c4.34-.34,7.34-3.43,7.31-7.51a7.32,7.32,0,0,0-7.48-7.38c-4.78-.1-9.63-.08-14.32-.07l-5.92,0h-2.2V153.32c0-7-2.59-9.55-9.54-9.55H75.9c-7.43,0-9.94,2.51-9.94,9.91v97.74H51V226.07c0-32,0-65.14-.07-97.71a5.11,5.11,0,0,1,2.29-4.7c32.87-25.6,65.3-51,96.39-75.41,1.53-1.2,2-1.2,3.52,0,32.8,25.78,65.23,51.14,96.4,75.39a5,5,0,0,1,2.22,4.72c-.18,8.06-.11,15.9,0,22.5a8.21,8.21,0,0,0,2.15,5.61,7.19,7.19,0,0,0,5.3,2.21c4.28,0,7.34-3.21,7.46-7.81.07-2.78.06-5.6.05-8.33,0-1.72,0-3.45,0-5.17v-.21l.66.52c1.86,1.46,3.59,2.82,5.34,4.15,4.71,3.61,8.63,3.12,12.33-1.55,5.13-6.47,10.33-13.12,14.8-18.85C304,116,303.56,112.42,298,108.08ZM125.71,159v92.36H81.24V159Zm93-138.49V15.17H251.4v56.4l-.48-.38c-10.07-7.86-20.48-16-30.67-24.06a4.35,4.35,0,0,1-1.42-1.64C218.72,37.2,218.73,28.72,218.74,20.52ZM277,126.21l-4.34-3.38c-3.91-3-7.79-6-11.65-9.07L158.51,33.53c-3.13-2.44-5.15-3.66-7.16-3.66s-4,1.2-7,3.58L107.79,62,27.92,124.5c-.7.54-1.41,1.06-2.2,1.63l-.08.06-7.53-9.57.12-.09c.84-.7,1.65-1.36,2.47-2L143.29,18.63c6.09-4.76,10-4.79,16-.11Q221,66.8,282.7,115.11c.62.48,1.21,1,1.84,1.51Z"/><path class="cls-2" d="M362.51,200.69c0-19.4-13.61-32.95-33-33q-58.22,0-116.43,0c-19.88,0-33.25,13.31-33.26,33.11q0,64.2,0,128.38c0,19.83,13.36,33.16,33.22,33.17H329.07c20,0,33.42-13.4,33.44-33.32q0-22.43,0-44.86V245.57Q362.54,223.13,362.51,200.69Zm-15,83.24q0,22.54,0,45.09c0,11.85-6.58,18.39-18.52,18.39H213.35c-12.15,0-18.58-6.47-18.58-18.71V201.46c0-12.27,6.54-18.76,18.9-18.76H329c12.15,0,18.57,6.47,18.57,18.7q0,22.35,0,44.69Z"/><path class="cls-3" d="M236.67,151.14a6.92,6.92,0,0,1-1.91,5.1c-1.6,1.63-4.14,2.49-7.34,2.5H170.81v18.72c0,2.57,0,5.13,0,7.7,0,6.43,0,13.08,0,19.63-.05,4.53-3.18,7.82-7.45,7.83h0c-4.22,0-7.22-3.11-7.47-7.75,0-.31,0-.62,0-.93v-14.1q0-18.53,0-37.05c0-6.23,2.77-9,8.94-9q31.42,0,62.87,0C233.23,143.77,236.61,146.53,236.67,151.14Z"/><path class="cls-4" d="M338.55,200.66c0-6.2-2.79-9-9-9q-58.41,0-116.82,0c-6.19,0-9,2.77-9,9q0,14.9,0,29.79v2.41c0,7.18,2.56,9.73,9.74,9.73H329.56c6.2,0,9-2.78,9-9C338.58,222.77,338.58,211.68,338.55,200.66Zm-15.29,6.2v20.49H218.9V206.86Z"/><path class="cls-5" d="M242.67,259.6c-.06-5-3-7.94-8-8-7.67-.09-15.36-.09-22.87,0-5,0-7.88,3-8,8-.07,2.63-.05,5.28,0,7.85,0,1.14,0,2.28,0,3.42s0,2.36,0,3.55c0,2.65,0,5.38,0,8.09.12,5,3,7.92,8,8q5.73.06,11.45.06t11.42-.07c5-.05,7.94-3,8-8C242.76,274.84,242.76,267.15,242.67,259.6Zm-10.31,18.5a2.13,2.13,0,0,1-2.13,2.12h-14a2.12,2.12,0,0,1-2.13-2.12v-14a2.13,2.13,0,0,1,2.13-2.13h14a2.14,2.14,0,0,1,2.13,2.13Z"/><path class="cls-6" d="M290.66,259.6c-.06-5-3-7.94-8-8-7.67-.09-15.36-.09-22.87,0-5,0-7.88,3-8,8-.07,2.63-.05,5.28,0,7.85,0,1.14,0,2.28,0,3.42s0,2.36,0,3.55c0,2.65,0,5.38,0,8.09.12,5,3,7.92,8,8q5.73.06,11.45.06t11.42-.07c5-.05,7.94-3,8-8C290.75,274.84,290.75,267.15,290.66,259.6Zm-10.31,18.5a2.13,2.13,0,0,1-2.13,2.12h-14a2.12,2.12,0,0,1-2.13-2.12v-14a2.13,2.13,0,0,1,2.13-2.13h14a2.14,2.14,0,0,1,2.13,2.13Z"/><path class="cls-7" d="M338.52,259.6c-.06-5-3-7.94-8-8-7.67-.09-15.36-.09-22.87,0-5,0-7.88,3-8,8-.07,2.63-.05,5.28,0,7.85,0,1.14,0,2.28,0,3.42s0,2.36,0,3.55c0,2.65,0,5.38,0,8.09.12,5,3,7.92,8,8q5.73.06,11.45.06t11.42-.07c5-.05,7.94-3,8-8C338.61,274.84,338.61,267.15,338.52,259.6Zm-10.31,18.5a2.13,2.13,0,0,1-2.13,2.12h-14a2.12,2.12,0,0,1-2.13-2.12v-14a2.13,2.13,0,0,1,2.13-2.13h14a2.14,2.14,0,0,1,2.13,2.13Z"/><path class="cls-8" d="M242.67,307.51c-.06-5-3-7.94-8-8-7.67-.09-15.36-.09-22.87,0-5,.05-7.88,3-8,8-.07,2.63-.05,5.28,0,7.85,0,1.14,0,2.28,0,3.42s0,2.36,0,3.55c0,2.65,0,5.38,0,8.09.12,5,3,7.92,8,8q5.73.06,11.45.06t11.42-.07c5-.05,7.94-3,8-8C242.76,322.75,242.76,315.06,242.67,307.51ZM232.36,326a2.13,2.13,0,0,1-2.13,2.12h-14a2.12,2.12,0,0,1-2.13-2.12V312a2.13,2.13,0,0,1,2.13-2.13h14a2.14,2.14,0,0,1,2.13,2.13Z"/><path class="cls-9" d="M290.66,307.51c-.06-5-3-7.94-8-8-7.67-.09-15.36-.09-22.87,0-5,.05-7.88,3-8,8-.07,2.63-.05,5.28,0,7.85,0,1.14,0,2.28,0,3.42s0,2.36,0,3.55c0,2.65,0,5.38,0,8.09.12,5,3,7.92,8,8q5.73.06,11.45.06t11.42-.07c5-.05,7.94-3,8-8C290.75,322.75,290.75,315.06,290.66,307.51ZM280.35,326a2.13,2.13,0,0,1-2.13,2.12h-14a2.12,2.12,0,0,1-2.13-2.12V312a2.13,2.13,0,0,1,2.13-2.13h14a2.14,2.14,0,0,1,2.13,2.13Z"/><path class="cls-10" d="M338.52,307.51c-.06-5-3-7.94-8-8-7.67-.09-15.36-.09-22.87,0-5,.05-7.88,3-8,8-.07,2.63-.05,5.28,0,7.85,0,1.14,0,2.28,0,3.42s0,2.36,0,3.55c0,2.65,0,5.38,0,8.09.12,5,3,7.92,8,8q5.73.06,11.45.06t11.42-.07c5-.05,7.94-3,8-8C338.61,322.75,338.61,315.06,338.52,307.51ZM328.21,326a2.13,2.13,0,0,1-2.13,2.12h-14a2.12,2.12,0,0,1-2.13-2.12V312a2.13,2.13,0,0,1,2.13-2.13h14a2.14,2.14,0,0,1,2.13,2.13Z"/></g></g></svg>