<svg xmlns="http://www.w3.org/2000/svg" viewBox="0 0 411.86 412.62"><defs><style>.cls-1{fill:#4a668e;}</style></defs><g id="Capa_2" data-name="Capa 2"><g id="Capa_1-2" data-name="Capa 1"><path class="cls-1" d="M144.16,0H267.53c9.63.53,19.26,1,28.89,1.61,16.85,1,33.36,3.9,48.82,10.85,37.95,17.07,57.95,47.48,64.17,87.8,1.09,7.12,1.65,14.33,2.45,21.5v166.1c-.24,1.84-.5,3.69-.73,5.53-1.09,9.06-1.53,18.24-3.38,27.14C399.56,360,377.29,388,339.37,402.74c-18.15,7.07-37.29,9-56.55,9.19-43.67.45-87.34.85-131,.62-21.45-.11-43-.2-64.11-5.32-34.16-8.29-59.54-27.67-74.63-59.66C3.79,327.88,1,306.71.73,285.21c-.47-44.6-1-89.21-.61-133.82a407.34,407.34,0,0,1,4-56.18C8.41,66.33,22.33,42.36,46,24.63,66.2,9.44,89.64,3.4,114.44,1.64,124.33.94,134.25.54,144.16,0Zm62.22,375.72c0-.21,0,.21,0,0,10.88,0,21.78.33,32.65-.07,23.34-.83,46.85-.56,70-3.46,31.74-4,53.27-22.19,61.08-53.78,3.15-12.77,4.24-26.29,4.46-39.49q1.08-62.27.62-124.56a417.25,417.25,0,0,0-3-50.23C367.94,71,347.23,48.55,314.53,42c-14.11-2.81-28.78-3.66-43.22-3.9-36.14-.6-72.29-.49-108.44-.37-20.67.06-41.4-.2-61.88,3.4C69.71,46.67,48.25,66.53,41.86,97.71c-2.76,13.45-3.67,27.43-4,41.2-.71,33-1,66.11-.6,99.16.26,23.35.87,46.77,3.11,70,2.18,22.7,12.88,41.41,32.78,53.76,13.45,8.35,28.57,11.69,44.15,12.25C147,375.13,176.7,375,206.38,375.72Z"/><path class="cls-1" d="M100.13,206.36C100.22,147.8,148,100.21,206.4,100.45c58.74.25,106.17,47.9,105.81,106.3-.36,58.63-47.67,105.83-106,105.77C147.65,312.46,100,264.81,100.13,206.36Zm37.36,0a68.71,68.71,0,1,0,68.69-68.64A68.52,68.52,0,0,0,137.49,206.38Z"/><path class="cls-1" d="M317,71.56a24.7,24.7,0,0,1-1,49.38,24.7,24.7,0,1,1,1-49.38Z"/></g></g></svg>