<svg xmlns="http://www.w3.org/2000/svg" viewBox="0 0 411.37 411.58"><defs><style>.cls-1{fill:#4a668e;}</style></defs><g id="Capa_2" data-name="Capa 2"><g id="Capa_1-2" data-name="Capa 1"><path class="cls-1" d="M208.3,0a169,169,0,0,1,20.61,1.26c3.56.43,7.12.91,10.66,1.53,49.31,8.66,90.64,31.79,122.83,70.1,40.41,48.1,55.92,103.82,46.12,165.8C400.09,292,374.05,336,330.88,368.29c-63.26,47.4-132.41,55.37-205.87,26.42-5.68-2.24-11.08-6.66-16.79-7-5.9-.35-12,3.11-18.06,4.78C68.78,398.39,47.41,404.31,26,410.09c-5.49,1.48-11,2-16.4-.93a16.73,16.73,0,0,1-4.79-3.81A18.9,18.9,0,0,1,2,385.17l.28-.63c9.66-21.26,19.26-42.55,29-63.75,1.27-2.76,1-4.71-.56-7.26A197.67,197.67,0,0,1,3.14,240.66c-1.21-7.3-2-14.66-3.05-22L0,193.28c.93-7,1.61-14.12,2.8-21.11,7.27-42.78,26-79.78,56.51-110.67,30.75-31.18,67.77-50.74,111-58.34q1.69-.3,3.42-.57A223.71,223.71,0,0,1,208.3,0ZM51.45,363.16a1.38,1.38,0,0,0,1.62,1.9h0c17-4.66,34-9.24,51-14,6.45-1.83,12.18-1,18.08,2.22,50.34,27.3,101.95,29.72,154.3,6.52,74.28-32.92,114.74-118.92,93.31-197.29C350.69,92.61,293.18,43.35,221.15,36.88,165,31.83,117.11,50.72,79.5,92.59,26.06,152.09,21.35,237,66.68,302.75c5.08,7.36,5.89,14.42,2,22.53C62.8,337.61,57.32,350.14,51.45,363.16Z"/><path class="cls-1" d="M105.18,158.73c0-18.18,6.86-31.48,20-41.6,9.79-7.54,20.13-7.27,29,1.28,11.93,11.43,18,25.87,18.75,42.19.19,4.52-2.44,9.46-4.71,13.7-2.05,3.83-5.37,7-8.13,10.42-2.52,3.16-3,6.5-.84,10,16.15,27.13,38.64,46.9,68.09,58.55,4.65,1.84,7.47,1,10.43-3.18s5.82-8.66,8.67-13c4.76-7.32,11.45-9.43,19.81-7.81,11.23,2.17,21.52,6.37,30.48,13.52,12.55,10,14.67,21.1,6.7,34.93C293.2,295.53,277,301.38,257.51,300c-22.88-1.65-43.15-11-62.27-22.85-31.36-19.52-57.83-44.11-76.59-76.29C110.81,187.4,105.42,173.1,105.18,158.73Z"/></g></g></svg>