<svg xmlns="http://www.w3.org/2000/svg" viewBox="0 0 640.01 541.03"><defs><style>.cls-1{fill:#fff;}</style></defs><g id="Capa_2" data-name="Capa 2"><g id="Capa_1-2" data-name="Capa 1"><path class="cls-1" d="M639.33,513.64a22.22,22.22,0,0,1-1.67,6.78c-5.21,12.17-14.3,19.13-27.55,20.39-2.69.26-5.41.22-8.11.22q-282.13,0-564.28,0c-4.55,0-9.26-.06-13.63-1.14a31.74,31.74,0,0,1-24-30.65c-.2-20-.1-112.95,0-132.95,0-6.56,3.46-10.55,8.84-10.71s9.34,4,9.39,10.89c.12,18.32,0,109.62.05,128,0,13.85,4.63,18.51,18.25,18.51H603.39c12.88,0,18.21-4.72,18.22-16.65q.09-98.73,0-197.46c0-1.21-.18-2.42-.42-5.34-23.77,29.2-54.78,36.8-88.08,33.78-2.35,6.77-3,13.47-6.55,17.5s-10.12,5.22-16.75,8.31c0,6,.27,14.11-.06,22.16A35.41,35.41,0,0,1,478.1,419.1a35.05,35.05,0,0,1-37.35-25.73c-1.16-4.36-1.25-9.05-1.42-13.6-.22-6.19-.05-12.4-.05-18.47-17.81-3-18.13-3.34-22.12-23.45H222.34c.36,14-4.66,23.61-21.63,22.69,0,7.7.18,15.11,0,22.51-.55,19.65-13.75,34.41-32.08,36.08-20.28,1.85-37.83-13.94-38.42-34.72-.21-7.67,0-15.36,0-21.68C124,360,117.38,358.92,113.74,355s-4.47-10.6-7.09-17.56c-2.84,0-7.53-.11-12.22,0-29.42.76-54.21-9.19-73.65-31.63a15.53,15.53,0,0,0-2.07-1.56c-.13,2.75-.33,4.92-.33,7.09q0,36.87,0,73.74c0,2.27.51,5.22-.67,6.68-2.26,2.79-5.29,6.07-8.5,6.73-4.41.9-7.8-2.4-8.85-7a28.58,28.58,0,0,1-.26-6.22Q0,261,.06,136.6c0-22.44,13.27-35.78,35.68-35.8q71.23,0,142.47,0h8c0-14-.13-27.24,0-40.51.29-24.09,16.13-43.64,39.52-48.95a31,31,0,0,1,7.41-.92c6.3.15,11.83-.18,16.16-6.33,1.81-2.57,7-3.84,10.65-3.86,40-.27,80-.35,120,.09,4.4,0,9.64,2.83,12.87,6,2.86,2.81,5.22,3.88,8.94,3.92,24.8.32,44.13,14.1,50,36.42,1.82,6.92,1.79,14.4,2,21.64.31,10.57.08,21.15.08,32.51,13.2,0,25.84,0,38.47,0a41.14,41.14,0,0,1,7.46.34c4.65.89,7.44,4,7.52,8.67.09,5-2.87,8.19-7.73,9.15a39.61,39.61,0,0,1-7.48.25H37.78c-15.24,0-19.41,4.09-19.41,19.12,0,36.24-.16,72.49,0,108.73.19,35.16,21.25,62.26,54.22,70.22A55.73,55.73,0,0,0,83.71,319c8.08.25,16.18.08,25.16.08v-9.31c0-16,4.66-21,20.9-22,.12-1.7.34-3.48.34-5.27,0-12.29-.05-24.58,0-36.86.08-10.63,5.65-16.27,16.15-16.34q19-.12,38.12,0c10.69.07,16.09,5.36,16.26,16.19.18,11.66,0,23.33,0,35v7.31c8.23-.1,16.31,1.05,19.11,9.18,2.29,6.68,2.13,14.21,3.12,21.83H417.9c.07-14.76-2.3-31.6,21.38-30.91V274.73c0-10-.18-20,.07-30s5.74-15.34,15.75-15.42c13.12-.11,26.24-.13,39.36,0,9.43.1,15.21,5.77,15.36,15.2.2,12.28.06,24.57.06,36.86v6.47c8.42-.2,16.4,1.1,19.18,9.27,2.27,6.66,2.05,14.18,2.94,21.41,49.74,6.93,81.51-20.41,88.51-57.33a84.79,84.79,0,0,0,1.09-15.54q.14-54,0-108.1c0-13.87-4.51-18.34-18.31-18.35-14.79,0-103.09,0-117.88,0-7.65,0-11.69-3.17-11.82-9-.13-6.06,4-9.38,12-9.41,13.33,0,100.2.55,113.5-.14,20.13-1,42.19,3.74,40.79,26.15C640,256.37,639.33,384.08,639.33,513.64ZM401.2,60.86c-3.24,2-5.92,2.77-7.33,4.57-3.49,4.45-7.77,6.86-13.32,6.87q-60.54.06-121.07,0c-5.56,0-9.83-2.43-13.33-6.84-1.44-1.81-4.09-2.65-7.15-4.51v39.47H401.2ZM262.22,54H377.77V18.41H262.22ZM127.57,341.69h75.69V306.86H127.57Zm384.87-34.84h-75.7V341.7h75.7ZM243.36,29c-20.31-3.3-37.23,9.39-38.75,29.26-.72,9.3-.26,18.7-.31,28.05,0,4.69,0,9.39,0,14h15.79V67.35c0-18.13,3.93-22.3,21.94-23.3.36,0,.7-.35,1.34-.68Zm192.36,71.51c0-12.33.06-24.35,0-36.36a58.86,58.86,0,0,0-.83-10.54c-3.3-17-21.17-28.43-38.09-24.42V44c1.82.1,3.25.23,4.67.26,12.33.28,18.34,6.27,18.48,18.48,0,4.15,0,8.31,0,12.47v25.29ZM182.09,287.8V248.11H149V287.8Zm275.74-.09h33.1V248h-33.1ZM491.38,361H457.52c0,7.1,0,13.74,0,20.37,0,1.25,0,2.51.09,3.75.88,9.22,8,15.77,17,15.73a16.33,16.33,0,0,0,16.68-15.92C491.64,377.06,491.38,369.17,491.38,361Zm-342.75-.21c0,8.38-.25,16.26.06,24.11a16.27,16.27,0,0,0,16,15.92c8.86.32,16.65-5.59,17.41-14.44.73-8.4.16-16.9.16-25.59Z"/></g></g></svg>