<svg xmlns="http://www.w3.org/2000/svg" viewBox="0 0 374.9 376.05"><defs><style>.cls-1{fill:#4a668e;}</style></defs><g id="Capa_2" data-name="Capa 2"><g id="Capa_1-2" data-name="Capa 1"><path class="cls-1" d="M2.94,149.88a31.13,31.13,0,0,1,4.15-4.35Q91.84,75,176.76,4.61c7.42-6.16,12.74-6.15,20.21,0L278,71.9c.72.59,1.48,1.14,2.79,2.16,0-7.17.36-13.74-.08-20.25-.75-11.3,6-16.91,16.47-16.32,8.42.47,16.88.09,25.32.1,9.8,0,14.74,4.9,14.74,14.61,0,21.78.05,43.56,0,65.34a6.72,6.72,0,0,0,2.76,5.87c9.58,7.79,19.08,15.7,28.57,23.61,8.1,6.76,8.42,13.89,1.09,21.74-3.51,3.76-7,7.57-10.25,11.53-7.48,9.06-12.29,10.37-22.11,4.69v4.42c0,56.78-.09,113.55.09,170.32V360a16.24,16.24,0,0,1-16.31,16.1H52.44a16.13,16.13,0,0,1-16.17-16v-.35c.18-56.74.1-113.49.1-170.23v-4.41c-9.56,5.22-14,4.41-20.93-3.42-2.43-2.75-5-5.38-7.28-8.25C6.23,171,4.39,168.49,2.56,166A13.16,13.16,0,0,1,2.94,149.88Zm321.82,213.5V359q0-90.49.07-181a7.52,7.52,0,0,0-3.09-6.47Q255.58,116.74,189.55,61.81c-2.18-1.82-3.44-1.63-5.49.07q-66.18,55-132.49,109.91a6.86,6.86,0,0,0-2.73,5.89q.1,90.87,0,181.73v4ZM27,175.73c.85-.62,1.54-1.09,2.18-1.62q75.74-62.78,151.44-125.56c5.27-4.36,7.23-4.38,12.41-.09L341,171.25c1.84,1.52,3.72,3,5.69,4.58l15.62-17.62L186.9,12.58,11.41,158.09ZM324.57,50.43H293.34c0,11.07,0,21.83.09,32.58a5.12,5.12,0,0,0,1.93,3.19c9,7.57,18,15,27.08,22.53a13.94,13.94,0,0,0,2.13,1.19Z"/><path class="cls-1" d="M206.83,338.51h39.66c6.26,0,9.34,2.09,9.28,6.28s-3.17,6.24-9.4,6.24H127.43c-.73,0-1.47,0-2.2,0-4.5-.11-7.43-2.7-7.34-6.45s2.88-6,7.28-6.05c12.36,0,24.72,0,37.07,0h3.5l.7-1.11a23.93,23.93,0,0,1-2.93-2c-23.44-21.48-43-45.8-54.81-75.69-8.39-21.31-12.13-43.3-7.81-66.12,8.3-43.91,51.24-75.16,95.54-69.65,41.58,5.16,72.75,35.93,77.51,77.43,2.52,22-2.18,43.08-11,63.25-12,27.5-30.44,50.28-52.38,70.42ZM262,211c-.11-2.12-.05-5.45-.49-8.71-5.73-42.29-41.85-70.45-84.18-65.71-32.54,3.64-60.15,30.37-64.72,62.81-2.8,19.8.79,38.79,8.4,57,13.68,32.78,36.42,58.5,63.75,80.55,2,1.63,3.17.73,4.7-.48a226.72,226.72,0,0,0,46.17-48.94C251.22,264.81,261.55,240.21,262,211Z"/><path class="cls-1" d="M92.85,338.53c2.08,0,4.16-.09,6.24,0,3.63.18,6.09,2.58,6.21,5.93a6,6,0,0,1-5.37,6.37,108,108,0,0,1-14.28,0,6,6,0,0,1-5.31-6.42,6,6,0,0,1,5.91-5.84c2.19-.14,4.4,0,6.6,0Z"/><path class="cls-1" d="M280.91,338.53c2.08,0,4.16-.09,6.24,0,3.61.19,6.06,2.62,6.16,6a6,6,0,0,1-5.42,6.33,109.9,109.9,0,0,1-14.29,0,6,6,0,0,1-5.25-6.46,6.05,6.05,0,0,1,6-5.8C276.5,338.43,278.71,338.54,280.91,338.53Z"/><path class="cls-1" d="M187,269.54a56.44,56.44,0,1,1,56.32-56.36A56.6,56.6,0,0,1,187,269.54Zm-.2-12.52a44.17,44.17,0,0,0,44-43.92c0-24.07-20-44-44-43.89a43.91,43.91,0,0,0,0,87.81Z"/></g></g></svg>