<svg xmlns="http://www.w3.org/2000/svg" viewBox="0 0 376.25 375.56"><defs><style>.cls-1{fill:#4a668e;}</style></defs><g id="Capa_2" data-name="Capa 2"><g id="Capa_1-2" data-name="Capa 1"><path class="cls-1" d="M194.68,1.89a78.73,78.73,0,0,1,6.56,4.69q39.47,32.61,78.83,65.36h0a1.29,1.29,0,0,0,2.11-1V67.44c0-5.87-.07-11.75,0-17.62.12-7.25,5.21-12.58,12.48-12.7,10.4-.19,20.8-.17,31.2,0,7.7.12,12.72,5.56,12.73,13.62q.08,33.9-.05,67.81A4.33,4.33,0,0,0,340.2,122c9.94,8,19.74,16.23,29.56,24.42,8.08,6.74,8.59,13.59,1.68,21.38q-5.71,6.47-11.44,12.92c-7,7.86-10.61,9-19.52,4.88a1.29,1.29,0,0,0-1.84,1.16V360.18c0,10.82-4.57,15.38-15.4,15.38H53.07c-10.8,0-15.33-4.57-15.33-15.45q0-85.35,0-170.72v-2.66a1.29,1.29,0,0,0-1.92-1.12c-.27.14-.53.29-.78.44-5.36,3.1-11.55,2.39-15.76-2.16-5.48-5.93-10.81-12-16-18.14a18,18,0,0,1-2.29-3.93,9.22,9.22,0,0,1,.72-9.34,28.9,28.9,0,0,1,4.79-5.85Q86.19,80.24,166.13,14.08c5-4.14,10.25-7.95,15.47-11.83A11.4,11.4,0,0,1,194.68,1.89Zm130.15,361a1.29,1.29,0,0,0,1.29-1.29V358q0-89.76.08-179.54a9.23,9.23,0,0,0-3.75-8Q255.64,115.19,189,59.71a1.28,1.28,0,0,0-1.65,0q-67,55.82-134.24,111.42a7.11,7.11,0,0,0-2.94,6.16q.12,90.69.06,181.38v2.89a1.29,1.29,0,0,0,1.29,1.29ZM27.57,174.37a1.3,1.3,0,0,0,1.78.17l.84-.68,152-126c4.91-4.07,7.08-4.11,11.84-.16L333.26,163.21c4.54,3.77,9.1,7.51,13.77,11.35a1.31,1.31,0,0,0,1.8-.14c4.74-5.36,9.29-10.48,13.93-15.73a1.29,1.29,0,0,0-.13-1.85L189.09,12.73a1.28,1.28,0,0,0-1.65,0L13.8,156.72a1.31,1.31,0,0,0-.14,1.86ZM325.88,107.2V51.11a1.29,1.29,0,0,0-1.29-1.29H296a1.29,1.29,0,0,0-1.29,1.29c0,10.77,0,21.33.05,31.89A3.29,3.29,0,0,0,296,85.08c9.08,7.59,18.19,15.15,27.79,23.1A1.29,1.29,0,0,0,325.88,107.2Z"/><path class="cls-1" d="M94.51,318.9H288c-3.4-2.59-6.21-4.66-8.95-6.81-3.35-2.64-4.05-6.4-1.81-9.27s5.84-3.25,9.15-.81q12.12,8.91,24.08,18.05c4.11,3.14,4.09,7.55-.08,10.76Q298.5,340,286.36,348.89c-3.34,2.46-6.94,2-9.13-.91s-1.55-6.51,1.61-9a66.3,66.3,0,0,0,8.42-7.31H91c-7.81,0-9.33-1.55-9.33-9.5V193.88L77,200c-1,1.36-2,2.79-3.14,4.06a6.21,6.21,0,0,1-8.58,1,6.06,6.06,0,0,1-1.22-8.51c6.19-8.5,12.47-17,18.94-25.24a6.12,6.12,0,0,1,9.89.12c6.38,8.21,12.6,16.55,18.74,24.94a6.1,6.1,0,0,1-1.31,8.79c-2.81,2-6.33,1.49-8.77-1.51-2.3-2.84-4.45-5.82-7.08-9.3Z"/><path class="cls-1" d="M160,242.33c-5.22,19.6-10.19,38.24-15.16,56.89-.22.82-.43,1.66-.7,2.47-1.22,3.59-4.38,5.49-7.62,4.61-3.47-.94-5.35-4.19-4.33-8.06q8.64-32.78,17.39-65.52c.76-2.83,1.53-5.65,2.28-8.49s2.33-4.84,5.43-5.21,5.3,1.21,6.76,4Q175,243.53,186,264.05c.62,1.16,1.3,2.28,2.19,3.83.87-1.47,1.57-2.55,2.18-3.68q10.68-20.05,21.32-40.14c1.58-3,3.37-5.45,7.23-5.05s5.09,3.26,6,6.49q9.41,35.42,18.85,70.81c0,.12.08.23.11.35,1.33,5.1,0,8.46-3.88,9.6s-6.91-1.23-8.24-6.2c-2.53-9.44-5-18.89-7.52-28.33s-5.09-19-7.82-29.23c-1,1.6-1.64,2.55-2.18,3.57q-9.67,18.1-19.28,36.25c-1.51,2.85-3.23,5.22-6.86,5.15-3.45-.07-5.09-2.37-6.53-5.1q-9.51-18-19.11-35.92C161.77,245.31,161.09,244.21,160,242.33Z"/><path class="cls-1" d="M246,212.56h17.8c4,0,8.08-.11,12.11.06a6.26,6.26,0,0,1,6.24,6.37,6,6,0,0,1-6.13,6q-18.9.15-37.81,0c-3.81,0-6.07-2.54-6.05-6.39.06-9.32,3.51-17.29,10.66-23.22s14.61-11.1,21.84-16.74c4.23-3.3,5.9-7.68,4.52-13s-5-8.5-10.52-9.36a12.5,12.5,0,0,0-13.93,10.64,27,27,0,0,1-.41,3.27,6.16,6.16,0,0,1-12.17-1.41c-.6-11.16,8.33-22.31,19.7-24.57a25,25,0,0,1,20.33,44.5c-6.41,4.91-12.92,9.68-19.35,14.56C249.82,205.59,247.16,208.2,246,212.56Z"/></g></g></svg>