<svg xmlns="http://www.w3.org/2000/svg" xmlns:xlink="http://www.w3.org/1999/xlink" viewBox="0 0 835.41 835.42"><defs><style>.cls-1{fill:#fff;}.cls-2{fill:#4a668e;}.cls-3{fill:url(#Degradado_sin_nombre_95);}.cls-4{fill:url(#Degradado_sin_nombre_27);}.cls-5{fill:url(#Degradado_sin_nombre_89);}.cls-6{fill:url(#Degradado_sin_nombre_27-2);}</style><linearGradient id="Degradado_sin_nombre_95" x1="350.94" y1="422.01" x2="441.31" y2="369.83" gradientUnits="userSpaceOnUse"><stop offset="0" stop-color="#e4e4e8"/><stop offset="0.04" stop-color="#e7e7eb"/><stop offset="0.27" stop-color="#f9f9fa"/><stop offset="0.44" stop-color="#fff"/><stop offset="0.6" stop-color="#fbfbfc"/><stop offset="0.76" stop-color="#efeff2"/><stop offset="0.92" stop-color="#dcdce1"/><stop offset="1" stop-color="#ceced5"/></linearGradient><linearGradient id="Degradado_sin_nombre_27" x1="204.38" y1="491.39" x2="577.26" y2="276.11" gradientUnits="userSpaceOnUse"><stop offset="0" stop-color="#c0c0ca"/><stop offset="0.1" stop-color="#c5c5ce"/><stop offset="0.22" stop-color="#d4d4db"/><stop offset="0.35" stop-color="#ededf0"/><stop offset="0.43" stop-color="#fff"/><stop offset="0.58" stop-color="#eaeaed"/><stop offset="0.85" stop-color="#cacad2"/><stop offset="1" stop-color="#bebec8"/></linearGradient><linearGradient id="Degradado_sin_nombre_89" x1="452.36" y1="555.9" x2="611.8" y2="463.85" gradientUnits="userSpaceOnUse"><stop offset="0" stop-color="#e8e8ec"/><stop offset="0.29" stop-color="#fff"/><stop offset="0.48" stop-color="#eaeaed"/><stop offset="0.81" stop-color="#cacad2"/><stop offset="1" stop-color="#bebec8"/></linearGradient><linearGradient id="Degradado_sin_nombre_27-2" x1="834.08" y1="382.74" x2="1.31" y2="452.66" xlink:href="#Degradado_sin_nombre_27"/></defs><g id="Capa_2" data-name="Capa 2"><g id="Capa_1-2" data-name="Capa 1"><path class="cls-1" d="M825.4,419.65a405,405,0,0,1-27.83,148.1c-59.19,151.34-206.47,258.5-378.78,258.5-224.56,0-406.63-182-406.63-406.6S194.23,13,418.79,13c172.31,0,319.56,107.17,378.78,258.5A405.36,405.36,0,0,1,825.4,419.65Z"/><circle class="cls-2" cx="418.79" cy="419.64" r="321.53"/><path class="cls-3" d="M435.92,367.13c.39,9-4,14.62-10.63,15.35s-12.47-3.62-13-11.18c-.88-12-14.58-17.13-24.2-12.22-4.63,2.37-7.76,6-7.81,11.31a11.6,11.6,0,0,0,7.67,11.29,34.18,34.18,0,0,0,10.49,2.12c28.7,1.87,46.28,30.38,33.35,54.32a37,37,0,0,1-18.91,17c-3,1.24-4.8,2.59-5.31,6.26-.77,5.5-5.68,9.11-11.09,9.29a11.33,11.33,0,0,1-11.83-9.14c-.7-3.71-2.62-5.17-5.79-6.62-12.8-5.85-20.61-15.7-22.61-29.83-1.18-8.3,3-14.74,10.29-15.79,6.87-1,12.23,3.76,13.57,12.05,1.11,6.83,5.16,11.37,11.92,12.73s12.9-.12,17.37-5.73a11.23,11.23,0,0,0-3-16.83A29.28,29.28,0,0,0,394,408c-18.45-1.24-33.95-13.82-37.17-30.73-3.32-17.47,5.52-32.89,23.23-41.19,1.9-.89,3.56-3.4,4.26-5.52,1.91-5.71,6.2-9.51,11.74-9.54,5.77,0,10.08,4,11.95,10a9.54,9.54,0,0,0,4.54,5.22C426.42,342.81,434.59,353.29,435.92,367.13Z"/><path class="cls-4" d="M574.15,329q-4.38-3.43-8.75-6.9c-7.87-6.25-16-12.7-24.26-18.74-4-3-5.44-5.79-5.37-10.81.24-22.05.2-44.47.15-66.15q0-8.93,0-17.86c0-7.32-3.37-10.74-10.57-10.76-19.91,0-38,0-55.39,0-6.66,0-10.13,3.4-10.31,10.05,0,1.29,0,2.56,0,3.83v27.66l-.18-.14-13.71-10.74c-10-7.87-20.38-16-30.68-23.87-11.85-9-26.53-9-38.32.25-48.7,38.05-98.18,76.78-146,114.26l-13.38,10.48c-5.65,4.43-6.21,9.17-1.73,14.94,6.28,8.1,12.51,16,18.5,23.59,4.36,5.5,9,6.1,14.59,1.91,2.29-1.71,4.54-3.46,6.91-5.29l.39-.31v138.5h-9.19c-9.47,0-12.36,2.84-12.37,12.13q0,11.6,0,23.16c0,8.92,3.07,11.93,12.14,11.93H423.16c6.78,0,10.89-3.35,11-8.9a8.37,8.37,0,0,0-2.28-6.18c-1.93-2-5-3.06-8.89-3.08H252.75v-10.9H464.31l1.24,0c1.11,0,2.28,0,3.44-.06,5.18-.44,8.87-4.32,8.76-9.24a9,9,0,0,0-8.59-8.82,31.38,31.38,0,0,0-3.48-.07H274.42a6.51,6.51,0,0,1,0-.75V488.37c0-44.73,0-91,.11-136.46a5.19,5.19,0,0,1,1.78-3.3q34.29-27,68.66-53.85,24.76-19.41,49.54-38.85c1.41-1.1,1.8-1.1,3.2,0q23.94,18.81,47.92,37.58c23.05,18.05,46.87,36.73,70.26,55.14a5.93,5.93,0,0,1,1.79,3.81c.17,6.15.14,12.41.12,18.47,0,2.76,0,5.51,0,8.26,0,3.85,1.07,6.91,3.08,8.85a8.36,8.36,0,0,0,6.25,2.27c5.49-.16,8.79-4.3,8.82-11.07,0-4.15,0-8.3,0-12.43v-2.51l5.24,4,1.86,1.42c5.93,4.55,10.64,4,15.27-1.9,5.8-7.34,11.83-15,18-22.87C581.2,338.56,580.62,334.1,574.15,329ZM477.79,221.77v-5.59h39.69v68.46l-6.08-4.73c-7.36-5.75-14.54-11.35-21.71-17-1.28-1-2.7-1.95-4.05-2.84-3.15-2.09-6.11-4-7.37-6.63s-1-6.12-.71-9.88c.12-1.64.24-3.33.24-5C477.77,233.05,477.77,227.46,477.79,221.77Zm70.67,129.14L489,304.36l-84.73-66.28c-3.49-2.73-5.82-4.1-8.15-4.1s-4.73,1.41-8.32,4.21L247.32,348c-1,.8-2,1.58-3.18,2.47l-.5.39-9.15-11.69,7.46-5.85L261,318.42,386.8,220c6.58-5.15,11.78-5.3,17.92-.49Q469.55,270.23,534.35,321l22.56,17.66c.23.18.45.38.69.58Z"/><path class="cls-5" d="M622.17,537.31c-2.22-4.76-6.52-5.38-10.37-5.36-8,.06-15.9.06-24.24,0H579.5v-35.8q0-41.82,0-83.64c0-8.14-3.19-11.32-11.37-11.33q-31.9,0-63.81,0H501c-9.42,0-12.28,2.86-12.28,12.24V532h-8.14c-8.48,0-16.49,0-24.62,0-3.15,0-7.65.51-9.92,5.33s.11,8.48,2.77,11.37Q473,575,497.15,601.41l28.61,31.2c3,3.26,5.65,4.78,8.34,4.78s5.34-1.5,8.33-4.75l27.91-30.47q24.38-26.58,48.75-53.17C621.83,546,624.56,542.4,622.17,537.31Zm-48.88,12.84h20.05L534.1,614.8l-59.26-64.64h20.67c8.15,0,11.33-3.21,11.33-11.37q0-42.9,0-85.83V419.68h54.49V538.05C561.33,547.09,564.35,550.14,573.29,550.15Z"/><path class="cls-6" d="M406,835.42h-.32A417.8,417.8,0,0,1,359,831.49a11.23,11.23,0,0,1,3.13-22.24A394.64,394.64,0,0,0,406.26,813a11.23,11.23,0,0,1-.31,22.46Zm45.56-1.28a11.23,11.23,0,0,1-.88-22.42l.19,0a402.69,402.69,0,0,0,43.69-6.1,11.23,11.23,0,0,1,4.33,22,424.61,424.61,0,0,1-46.18,6.45l-.24,0C452.12,834.13,451.81,834.14,451.51,834.14ZM315.83,822.7a11.42,11.42,0,0,1-2.82-.36,416.53,416.53,0,0,1-44.63-14.28,11.23,11.23,0,0,1,8-21,393.3,393.3,0,0,0,42.22,13.51,11.23,11.23,0,0,1-2.81,22.1Zm225-6.15a11.23,11.23,0,0,1-3.39-21.94,394.64,394.64,0,0,0,41.45-15.75,11.23,11.23,0,0,1,9.16,20.51A416.05,416.05,0,0,1,544.23,816,11.15,11.15,0,0,1,540.84,816.55Zm-310-26.42a11.16,11.16,0,0,1-5.16-1.26A420.65,420.65,0,0,1,185.36,765a11.23,11.23,0,1,1,12.5-18.66A396.28,396.28,0,0,0,236,768.93a11.23,11.23,0,0,1-5.18,21.2ZM624,779.43a11.23,11.23,0,0,1-5.71-20.9,394.88,394.88,0,0,0,36.87-24.64,11.23,11.23,0,0,1,13.51,18,417.32,417.32,0,0,1-39,26A11.18,11.18,0,0,1,624,779.43Zm-468.82-40a11.17,11.17,0,0,1-7.24-2.65,419.16,419.16,0,0,1-34-32.19,11.23,11.23,0,0,1,16.32-15.43,401.4,401.4,0,0,0,32.21,30.47,11.23,11.23,0,0,1-7.25,19.8Zm541.58-14.79a11.23,11.23,0,0,1-7.72-19.39,399.75,399.75,0,0,0,30.49-32.2,11.23,11.23,0,1,1,17.14,14.5,420.67,420.67,0,0,1-32.2,34A11.21,11.21,0,0,1,696.78,724.68ZM92.66,673.32a11.21,11.21,0,0,1-9-4.47,418.7,418.7,0,0,1-26.05-39A11.22,11.22,0,1,1,77,618.48a394.79,394.79,0,0,0,24.66,36.85,11.24,11.24,0,0,1-9,18Zm662.91-18.14a11.23,11.23,0,0,1-9.32-17.48,398.92,398.92,0,0,0,22.59-38.14,11.23,11.23,0,0,1,19.93,10.35A417.77,417.77,0,0,1,764.9,650.2,11.2,11.2,0,0,1,755.57,655.18ZM46.37,594.89a11.25,11.25,0,0,1-10.26-6.65,418.82,418.82,0,0,1-16.68-43.82,11.23,11.23,0,0,1,21.41-6.79,394.83,394.83,0,0,0,15.78,41.45,11.23,11.23,0,0,1-10.25,15.81ZM797.5,574.4A11.22,11.22,0,0,1,787,559.15a393.91,393.91,0,0,0,13.52-42.21,11.23,11.23,0,0,1,21.74,5.63A414.4,414.4,0,0,1,808,567.2,11.23,11.23,0,0,1,797.5,574.4ZM18.81,508.1A11.24,11.24,0,0,1,7.8,499a425.51,425.51,0,0,1-6.49-46.38l-.06-.76A11.23,11.23,0,0,1,23.63,450l.07.78a400.29,400.29,0,0,0,6.14,43.88A11.23,11.23,0,0,1,21,507.88,10.82,10.82,0,0,1,18.81,508.1Zm801.55-21.82a12.14,12.14,0,0,1-1.59-.11,11.23,11.23,0,0,1-9.55-12.69A394.68,394.68,0,0,0,813,429.33a11.23,11.23,0,1,1,22.45.63,418,418,0,0,1-3.94,46.66A11.23,11.23,0,0,1,820.36,486.28ZM11.23,416.61H10.9A11.23,11.23,0,0,1,0,405.05a420.69,420.69,0,0,1,4-46.66,11.23,11.23,0,1,1,22.23,3.17,397.11,397.11,0,0,0-3.77,44.15A11.23,11.23,0,0,1,11.23,416.61Zm811.68-21.32A11.23,11.23,0,0,1,811.73,385l0-.23a404.71,404.71,0,0,0-6.08-43.66,11.22,11.22,0,1,1,22-4.32,421.12,421.12,0,0,1,6.42,46l0,.42a11.23,11.23,0,0,1-10.3,12.09C823.51,395.28,823.21,395.29,822.91,395.29ZM24.08,326.51a11.56,11.56,0,0,1-2.83-.36,11.24,11.24,0,0,1-8-13.7,418,418,0,0,1,14.34-44.61,11.23,11.23,0,0,1,21,8.07,394,394,0,0,0-13.57,42.2A11.23,11.23,0,0,1,24.08,326.51ZM805.37,306a11.24,11.24,0,0,1-10.71-7.85,393.31,393.31,0,0,0-15.73-41.46,11.23,11.23,0,0,1,20.51-9.14,417.36,417.36,0,0,1,16.64,43.83,11.24,11.24,0,0,1-7.32,14.1A11.45,11.45,0,0,1,805.37,306ZM56.75,241.57a11.24,11.24,0,0,1-10-16.42,418.67,418.67,0,0,1,23.91-40.27A11.23,11.23,0,1,1,89.35,197.4a399.84,399.84,0,0,0-22.63,38.12A11.23,11.23,0,0,1,56.75,241.57ZM768.3,222.78a11.22,11.22,0,0,1-9.68-5.53A396.82,396.82,0,0,0,734,180.37a11.23,11.23,0,1,1,18-13.5,418.69,418.69,0,0,1,26,39,11.24,11.24,0,0,1-9.67,16.93ZM107.52,166A11.23,11.23,0,0,1,99,147.52a420.78,420.78,0,0,1,32.23-34,11.23,11.23,0,0,1,15.41,16.34A398.07,398.07,0,0,0,116.09,162,11.21,11.21,0,0,1,107.52,166Zm606.06-16a11.19,11.19,0,0,1-8.17-3.52A399.83,399.83,0,0,0,673.22,116a11.23,11.23,0,0,1,14.51-17.14,422.64,422.64,0,0,1,34,32.22A11.23,11.23,0,0,1,713.58,150ZM173.77,103.54A11.23,11.23,0,0,1,167,83.33a419.45,419.45,0,0,1,39-26A11.23,11.23,0,1,1,217.4,76.69a396.1,396.1,0,0,0-36.89,24.6A11.17,11.17,0,0,1,173.77,103.54ZM644.09,91.16a11.18,11.18,0,0,1-6.25-1.91,397.57,397.57,0,0,0-38.12-22.61,11.23,11.23,0,0,1,10.35-19.93A422.1,422.1,0,0,1,650.36,70.6a11.24,11.24,0,0,1-6.27,20.56ZM252.27,57.37a11.23,11.23,0,0,1-4.58-21.49,416.73,416.73,0,0,1,43.85-16.62,11.23,11.23,0,0,1,6.76,21.42A392.58,392.58,0,0,0,256.83,56.4,11.23,11.23,0,0,1,252.27,57.37ZM563.34,49.2a11.14,11.14,0,0,1-4-.76A396.28,396.28,0,0,0,517.11,34.9a11.23,11.23,0,0,1,5.65-21.74,416.42,416.42,0,0,1,44.61,14.32,11.23,11.23,0,0,1-4,21.72ZM339.08,30A11.23,11.23,0,0,1,336.93,7.7a425.18,425.18,0,0,1,45.81-6.38l.56-.05a11.23,11.23,0,0,1,1.89,22.38l-.61.05a400.64,400.64,0,0,0-43.33,6A11.47,11.47,0,0,1,339.08,30Zm136.17-3.64a10.62,10.62,0,0,1-1.59-.11,394.71,394.71,0,0,0-44.15-3.75A11.23,11.23,0,1,1,430.15,0a417.86,417.86,0,0,1,46.66,4,11.23,11.23,0,0,1-1.56,22.34Z"/></g></g></svg>