<svg xmlns="http://www.w3.org/2000/svg" xmlns:xlink="http://www.w3.org/1999/xlink" viewBox="0 0 338.35 362.36"><defs><style>.cls-1{fill:url(#Degradado_sin_nombre_95);}.cls-2{fill:url(#Degradado_sin_nombre_27);}.cls-3{fill:url(#Degradado_sin_nombre_89);}</style><linearGradient id="Degradado_sin_nombre_95" x1="114.03" y1="184.82" x2="188.52" y2="141.82" gradientUnits="userSpaceOnUse"><stop offset="0" stop-color="#e4e4e8"/><stop offset="0.04" stop-color="#e7e7eb"/><stop offset="0.27" stop-color="#f9f9fa"/><stop offset="0.44" stop-color="#fff"/><stop offset="0.6" stop-color="#fbfbfc"/><stop offset="0.76" stop-color="#efeff2"/><stop offset="0.92" stop-color="#dcdce1"/><stop offset="1" stop-color="#ceced5"/></linearGradient><linearGradient id="Degradado_sin_nombre_27" x1="-6.78" y1="242.01" x2="300.58" y2="64.56" gradientUnits="userSpaceOnUse"><stop offset="0" stop-color="#c0c0ca"/><stop offset="0.1" stop-color="#c5c5ce"/><stop offset="0.22" stop-color="#d4d4db"/><stop offset="0.35" stop-color="#ededf0"/><stop offset="0.43" stop-color="#fff"/><stop offset="0.58" stop-color="#eaeaed"/><stop offset="0.85" stop-color="#cacad2"/><stop offset="1" stop-color="#bebec8"/></linearGradient><linearGradient id="Degradado_sin_nombre_89" x1="197.63" y1="295.19" x2="329.05" y2="219.32" gradientUnits="userSpaceOnUse"><stop offset="0" stop-color="#e8e8ec"/><stop offset="0.29" stop-color="#fff"/><stop offset="0.48" stop-color="#eaeaed"/><stop offset="0.81" stop-color="#cacad2"/><stop offset="1" stop-color="#bebec8"/></linearGradient></defs><g id="Capa_2" data-name="Capa 2"><g id="Capa_1-2" data-name="Capa 1"><path class="cls-1" d="M184.08,139.59c.32,7.45-3.27,12-8.77,12.65s-10.27-3-10.73-9.21c-.73-9.91-12-14.12-20-10.07-3.82,1.95-6.4,4.94-6.44,9.32a9.57,9.57,0,0,0,6.32,9.31,28.15,28.15,0,0,0,8.65,1.74c23.66,1.55,38.15,25,27.49,44.78a30.55,30.55,0,0,1-15.59,14c-2.48,1-3.95,2.14-4.38,5.16-.63,4.54-4.68,7.51-9.14,7.66a9.34,9.34,0,0,1-9.75-7.53c-.58-3.06-2.16-4.26-4.77-5.46-10.55-4.82-17-12.94-18.64-24.59-1-6.84,2.52-12.15,8.48-13,5.67-.83,10.09,3.1,11.19,9.93.91,5.63,4.25,9.38,9.82,10.49s10.64-.1,14.32-4.72a9.24,9.24,0,0,0-2.44-13.87,24,24,0,0,0-10.27-2.9c-15.21-1-28-11.39-30.64-25.33-2.74-14.4,4.55-27.11,19.15-34,1.57-.73,2.93-2.8,3.51-4.54,1.58-4.71,5.11-7.85,9.68-7.87,4.76,0,8.31,3.26,9.85,8.27a7.8,7.8,0,0,0,3.75,4.3C176.24,119.54,183,128.18,184.08,139.59Z"/><path class="cls-2" d="M298,108.19q-3.61-2.84-7.21-5.69c-6.49-5.15-13.21-10.47-20-15.45-3.32-2.44-4.48-4.77-4.43-8.91.2-18.17.17-36.65.13-54.52q0-7.36,0-14.72c0-6-2.78-8.86-8.71-8.87-16.41,0-31.35,0-45.66,0-5.49,0-8.35,2.8-8.5,8.28,0,1.06,0,2.11,0,3.16v22.8l-.15-.12q-5.66-4.41-11.3-8.85c-8.26-6.49-16.8-13.19-25.29-19.68-9.77-7.46-21.87-7.38-31.59.21C95.14,37.19,54.36,69.12,14.92,100l-11,8.64C-.77,112.3-1.23,116.21,2.46,121c5.18,6.68,10.31,13.22,15.25,19.45,3.59,4.53,7.41,5,12,1.57,1.88-1.41,3.74-2.85,5.69-4.36l.32-.25V251.53H28.18c-7.81,0-10.19,2.34-10.2,10q0,9.56,0,19.09c0,7.35,2.53,9.83,10,9.83H173.56c5.59,0,9-2.76,9.07-7.34a6.89,6.89,0,0,0-1.88-5.09c-1.59-1.64-4.13-2.52-7.33-2.54H33.1v-9H208.5c.92,0,1.88,0,2.84-.05a7.45,7.45,0,0,0,.14-14.88,25.23,25.23,0,0,0-2.87-.06H51c0-.22,0-.42,0-.62V239.53c0-36.87,0-75,.09-112.48a4.26,4.26,0,0,1,1.47-2.72q28.26-22.23,56.59-44.39l40.84-32c1.16-.91,1.48-.91,2.63,0q19.74,15.49,39.5,31c19,14.88,38.64,30.28,57.92,45.45a4.89,4.89,0,0,1,1.47,3.14c.14,5.07.12,10.23.1,15.23,0,2.27,0,4.54,0,6.81,0,3.17.88,5.69,2.54,7.29a6.87,6.87,0,0,0,5.15,1.87c4.53-.13,7.25-3.54,7.27-9.12,0-3.42,0-6.84,0-10.25v-2.07l4.32,3.31,1.53,1.17c4.89,3.75,8.77,3.27,12.59-1.57,4.78-6.05,9.75-12.39,14.79-18.85C303.83,116,303.35,112.37,298,108.19ZM218.59,19.78V15.17h32.72V71.6l-5-3.9c-6.07-4.74-12-9.36-17.9-14-1.05-.83-2.22-1.6-3.34-2.34-2.59-1.72-5-3.33-6.07-5.46s-.83-5-.59-8.15c.1-1.35.2-2.74.2-4.08C218.58,29.07,218.58,24.47,218.59,19.78Zm58.25,106.44-49-38.37L158,33.22c-2.88-2.25-4.8-3.38-6.72-3.38s-3.9,1.16-6.86,3.47L28.62,123.86c-.83.66-1.67,1.3-2.62,2l-.41.32-7.54-9.63,6.15-4.82L39.91,99.44,143.59,18.32c5.43-4.25,9.71-4.37,14.77-.41q53.44,41.81,106.85,83.64l18.6,14.56.57.48Z"/><path class="cls-3" d="M337.6,279.87c-1.83-3.93-5.37-4.44-8.55-4.42-6.6.05-13.1.05-20,0h-6.64V246q0-34.47,0-68.94c0-6.71-2.63-9.33-9.37-9.34H237.69c-7.76,0-10.12,2.36-10.12,10.09v97.7h-6.71c-7,0-13.59,0-20.29,0-2.6,0-6.31.42-8.18,4.39s.09,7,2.28,9.37q20,21.73,39.88,43.48l23.58,25.72c2.47,2.69,4.66,3.94,6.88,3.94s4.4-1.24,6.86-3.92l23-25.11,40.18-43.83C337.32,287,339.57,284.06,337.6,279.87Zm-40.29,10.58h16.53L265,343.74l-48.85-53.28h17c6.72,0,9.34-2.65,9.34-9.37q0-35.37,0-70.75V182.91h44.91v97.57C287.45,287.93,289.94,290.44,297.31,290.45Z"/></g></g></svg>