<svg xmlns="http://www.w3.org/2000/svg" viewBox="0 0 376.83 375.86"><defs><style>.cls-1{fill:#4a668e;}</style></defs><g id="Capa_2" data-name="Capa 2"><g id="Capa_1-2" data-name="Capa 1"><path class="cls-1" d="M196.81,2.81c3.07,2.2,6.13,4.42,9.05,6.81q37.33,30.8,74.51,61.78c.47.39,1,.74,2.13,1.65V66.88c0-5.89-.07-11.78,0-17.67.12-7.27,5.23-12.61,12.52-12.73,10.43-.19,20.86-.17,31.29,0,7.72.12,12.75,5.58,12.76,13.66q.07,33.13,0,66.26a8,8,0,0,0,3,6.26c9.52,7.7,18.9,15.55,28.31,23.39,8.09,6.76,8.61,13.63,1.68,21.45q-5.73,6.47-11.47,12.95c-7.47,8.4-11.1,9.13-21.42,4v176c0,10.85-4.58,15.43-15.44,15.43H52.74c-10.82,0-15.36-4.59-15.36-15.5q0-85.59,0-171.19v-4.85c-1.11.61-1.92,1-2.7,1.5-5.26,3-11.43,2.48-15.54-1.91C13.44,177.82,8,171.51,2.55,165.17A7.75,7.75,0,0,1,1.73,164a12.43,12.43,0,0,1,.58-13.53,19.51,19.51,0,0,1,3.42-4Q90.78,75.73,176,5.18c1.06-.88,2.19-1.7,3.33-2.49A15.19,15.19,0,0,1,196.81,2.81Zm129.74,360.3v-4.58q0-90.39.08-180.77a8.61,8.61,0,0,0-3.52-7.41Q257,115.69,191.12,60.83c-2.29-1.91-3.59-1.77-5.8.06q-66.19,55.1-132.55,110a7.12,7.12,0,0,0-2.89,6.21Q50,268,49.93,359v4.13ZM28,175c.8-.61,1.4-1,2-1.49L182.06,47.35c5-4.18,7.21-4.29,11.87-.43L320.25,151.74c9.33,7.74,18.67,15.47,28.21,23.37l15.73-17.72L188.31,11.33l-176,146ZM326.31,109.5V49.21H295.06c0,11.25,0,22.26.05,33.28a3.29,3.29,0,0,0,1.21,2.08C306.09,92.75,315.91,100.88,326.31,109.5Z"/><path class="cls-1" d="M188.13,149.66H268c13.19,0,20.78,7.54,20.78,20.78q0,79.71,0,159.42c0,13.33-7.7,20.89-21.11,20.9h-159c-13.34,0-21-7.62-21-21.06q0-79.51,0-159c0-13.5,7.5-21,20.93-21Zm37.94,56.56c3.81,0,7.45,0,11.09,0,4.75.06,7.57,2.34,7.64,6.11s-2.9,6.39-7.78,6.44c-5.16.06-10.31,0-15.46,0-6,0-8.21-2.23-8.22-8.25q0-22.09,0-44.19V162.5h-25.1v4.3q0,34.6,0,69.22c0,5.1-2.15,7.78-6.68,7.86-8.1.15-16.2.09-24.3,0-3.29,0-5.68-1.62-6.49-4.92-1-4,1.83-7.47,6.26-7.56,6.1-.13,12.2,0,18.38,0V162.21H109.23c-7.19,0-8.93,1.71-8.93,8.86q0,28,0,56c0,1.31.11,2.62.18,4.33h4.27c6.75,0,13.5-.06,20.25,0,4,0,6.45,2.38,6.59,5.93s-2.4,6.31-6.43,6.56c-2.08.13-4.18,0-6.26,0H100.61V269c7.78,0,15.25,0,22.72,0q8.19,0,8.27,6.16c.05,4.21-2.8,6.37-8.45,6.38H100.29c0,16.27,0,32,0,47.68,0,7.05,1.9,8.94,9,8.94h97.58V281.58H166.41c-.74,0-1.48,0-2.21,0-4.54-.09-7.46-2.64-7.37-6.42s2.91-6.1,7.28-6.11q23.38,0,46.76,0c7,0,8.85,1.9,8.85,9q0,27.8,0,55.6v4.52h46.9c7.86,0,9.57-1.67,9.57-9.43q0-52.65,0-105.31v-4.67c-4.25,0-8,0-11.8,0-3.42-.05-6-1.53-6.83-5-1-4,1.88-7.36,6.36-7.52,4-.14,8,0,12.27,0,0-12.54,0-24.42,0-36.31,0-5.65-2.16-7.69-7.87-7.7q-19.52,0-39,0c-1.05,0-2.11.16-3.21.25Z"/></g></g></svg>