<svg xmlns="http://www.w3.org/2000/svg" viewBox="0 0 354.08 354.03"><defs><style>.cls-1{fill:#fff;}</style></defs><g id="Capa_2" data-name="Capa 2"><g id="Capa_1-2" data-name="Capa 1"><path class="cls-1" d="M187.46,354H166.71c-1.12-.21-2.24-.46-3.37-.61-6.5-.87-13.06-1.38-19.49-2.62Q85.8,339.6,46,295.85A172.13,172.13,0,0,1,2.7,207.1C1.58,200.56.89,193.94,0,187.35V166.6c.21-1.22.46-2.43.63-3.66.85-6.39,1.36-12.84,2.59-19.15C10.53,106,28,73.53,56.48,47.57,100.29,7.6,151.89-7.15,210.2,3.2c38.44,6.81,71.09,25.18,97.22,54.14,36.84,40.83,52,89,45,143.5-5.47,42.22-24.5,77.87-55.84,106.71a172.06,172.06,0,0,1-89.29,43.77C200.7,352.44,194.06,353.14,187.46,354ZM83.91,126c-.35,14.12,3.21,23.12,7,32,9.69,22.64,23.86,42.26,41.15,59.63,22.76,22.86,48.7,40.71,80.06,49.8a46.91,46.91,0,0,0,34.27-2.87c8.22-3.91,14.19-10.52,20.47-16.76,4.64-4.62,4.65-8.44,0-13.08q-15.35-15.45-30.78-30.83c-4.57-4.55-8.52-4.51-13.1.09-5.61,5.64-11.13,11.36-16.77,17-6.69,6.67-14.74,7.23-22.46,1.71a233.11,233.11,0,0,1-51.62-50.6c-6.09-8.18-5.59-16,1.57-23.22,5.76-5.81,11.6-11.55,17.34-17.37,4.33-4.38,4.39-8.29.1-12.61q-15.58-15.7-31.29-31.28c-4.2-4.17-8.12-4.17-12.36-.09-3.24,3.12-6.4,6.32-9.54,9.53C89,106.22,84.17,117.23,83.91,126Z"/></g></g></svg>