<svg xmlns="http://www.w3.org/2000/svg" viewBox="0 0 412.11 412.04"><defs><style>.cls-1{fill:#4a668e;}</style></defs><g id="Capa_2" data-name="Capa 2"><g id="Capa_1-2" data-name="Capa 1"><path class="cls-1" d="M205.94,0C319.64-.06,412,92.15,412.11,205.8,412.21,319.65,319.8,412.1,206,412,92.29,412,0,319.67,0,206S92.26.06,205.94,0Zm64.48,173.2c1.87.82,3.12,1.33,4.33,1.91a120,120,0,0,0,50.08,11.83c7.3.17,10.63-3.1,10.64-10.4q0-21,0-42c0-7.86-2.76-10.71-10.51-11a56.47,56.47,0,0,1-54.51-54c-.33-7.86-3-10.52-10.91-10.54q-20.4,0-40.8,0c-9.53,0-12,2.45-12,11.86v181.7c0,1.65,0,3.3,0,5-.63,15.15-10.44,27.42-24.88,31.15a32.86,32.86,0,0,1-32.22-54.17A31.94,31.94,0,0,1,172.13,224c6.77-.35,10-3.39,10-9.46q.1-22.45,0-44.91c0-5.62-3.46-9.18-9-9a136.71,136.71,0,0,0-18.41,1.75C102.47,171.68,67,225.25,78.79,277S140,361.13,192.31,351.22a96.35,96.35,0,0,0,77.3-82.66,127.92,127.92,0,0,0,.78-14.78C270.46,227.14,270.42,200.5,270.42,173.2Z"/></g></g></svg>