<svg xmlns="http://www.w3.org/2000/svg" xmlns:xlink="http://www.w3.org/1999/xlink" viewBox="0 0 338.41 362.36"><defs><style>.cls-1{fill:url(#Degradado_sin_nombre_27);}.cls-2{fill:url(#Degradado_sin_nombre_27-2);}.cls-3{fill:url(#Degradado_sin_nombre_123);}.cls-4{fill:url(#Degradado_sin_nombre_102);}.cls-5{fill:url(#Degradado_sin_nombre_107);}.cls-6{fill:url(#Degradado_sin_nombre_117);}</style><linearGradient id="Degradado_sin_nombre_27" x1="-44.02" y1="227.1" x2="253.47" y2="55.35" gradientUnits="userSpaceOnUse"><stop offset="0" stop-color="#c0c0ca"/><stop offset="0.1" stop-color="#c5c5ce"/><stop offset="0.22" stop-color="#d4d4db"/><stop offset="0.35" stop-color="#ededf0"/><stop offset="0.43" stop-color="#fff"/><stop offset="0.58" stop-color="#eaeaed"/><stop offset="0.85" stop-color="#cacad2"/><stop offset="1" stop-color="#bebec8"/></linearGradient><linearGradient id="Degradado_sin_nombre_27-2" x1="95.67" y1="325.52" x2="351.28" y2="177.94" xlink:href="#Degradado_sin_nombre_27"/><linearGradient id="Degradado_sin_nombre_123" x1="55.58" y1="183.29" x2="204.98" y2="97.04" gradientUnits="userSpaceOnUse"><stop offset="0" stop-color="#c4c4cd"/><stop offset="0.18" stop-color="#e4e4e8"/><stop offset="0.32" stop-color="#f8f8f9"/><stop offset="0.43" stop-color="#fff"/><stop offset="1" stop-color="#c8c8d1"/></linearGradient><linearGradient id="Degradado_sin_nombre_102" x1="48.59" y1="293.96" x2="128.49" y2="247.83" gradientUnits="userSpaceOnUse"><stop offset="0" stop-color="#c0c0ca"/><stop offset="0.25" stop-color="#c5c5ce"/><stop offset="0.57" stop-color="#d4d4db"/><stop offset="0.86" stop-color="#e9e9ed"/></linearGradient><linearGradient id="Degradado_sin_nombre_107" x1="105.05" y1="253.17" x2="167.46" y2="217.14" gradientUnits="userSpaceOnUse"><stop offset="0" stop-color="#d0d0d7"/><stop offset="0.31" stop-color="#e1e1e6"/><stop offset="0.68" stop-color="#efeff2"/><stop offset="1" stop-color="#f4f4f6"/></linearGradient><linearGradient id="Degradado_sin_nombre_117" x1="41.42" y1="246.67" x2="81.36" y2="223.61" gradientUnits="userSpaceOnUse"><stop offset="0" stop-color="#c1c1ca"/><stop offset="0.78" stop-color="#c6c6cf"/><stop offset="1" stop-color="#c9c9d1"/></linearGradient></defs><g id="Capa_2" data-name="Capa 2"><g id="Capa_1-2" data-name="Capa 1"><path class="cls-1" d="M254.54,157.07q0-13,0-25.95c0-20.94,0-42.59.06-63.88A33.89,33.89,0,0,0,244,41.72c-10.5-10.31-21-20.81-31.21-31.21C205.83,3.44,197.51,0,187.32,0h-.09C151.83.07,115.82.06,81,.06H33.41C13.44.06,0,13.46,0,33.4Q0,163.29,0,293.17c0,19.92,13.44,33.31,33.43,33.33H106.9c.51,0,1,0,1.54-.06a7.46,7.46,0,0,0,.17-14.87,21.63,21.63,0,0,0-2.65-.07H82.85c-16.63,0-33.84,0-50.75,0C22,311.48,15,304.42,15,294.34c0-83.21,0-171.36,0-262C15,22,22,15.05,32.36,15c52.81,0,106,0,155.7,0a28.78,28.78,0,0,1,3.07.21l.44,0q.06,12.72.08,25.42c0,14.54,7.69,22.22,22.19,22.23h25.5c0,.25,0,.5,0,.74.09,1.38.18,2.68.18,4q0,31.68,0,63.36v25.35c0,.32,0,.64,0,1a15,15,0,0,0,.14,3c.71,4,3.46,6.41,7.36,6.41h0c3.87,0,6.62-2.41,7.36-6.43a12.9,12.9,0,0,0,.13-2.53C254.55,157.55,254.54,157.31,254.54,157.07ZM211.36,47.92c-3-.05-4.62-1.7-4.68-4.63-.09-4.78-.07-9.51-.05-14.08,0-.57,0-1.14,0-1.7L227.09,48h-1.68C220.85,48,216.13,48,211.36,47.92Z"/><path class="cls-2" d="M331.3,145.07c-9.6-9.5-25-9.32-35.12.43-1.17,1.12-2.31,2.28-3.45,3.43-1.63,1.65-3.32,3.36-5.05,4.94a4,4,0,0,1-2.36,1c-6.68-.59-12.35,1.71-17.86,7.23q-29.94,30-59.92,60Q171.77,258,136,293.79a20,20,0,0,0-4.64,7.38c-3.68,10.69-7.3,21.59-10.81,32.13-1.9,5.71-3.79,11.42-5.71,17.13-.88,2.61-2.2,6.56,1.28,9.88a6.9,6.9,0,0,0,5,2.05,14.76,14.76,0,0,0,4.57-.93q8-2.69,16-5.34c10.68-3.55,21.73-7.23,32.56-11a23.48,23.48,0,0,0,8.65-5.33c30.94-30.79,62.32-62.17,92.66-92.52l23.34-23.34c.67-.68,1.37-1.34,2.06-2,3.12,2.88,4.5,5,4.56,6.89s-1.29,4.25-4.55,7.53l-8.26,8.29c-10.62,10.67-21.61,21.71-32.38,32.59-3.44,3.48-3.67,7.92-.58,11.06a7.42,7.42,0,0,0,5.23,2.3,7.91,7.91,0,0,0,5.58-2.48l5.05-5.05c13-13,26.45-26.47,39.46-39.93a18.84,18.84,0,0,0,4.27-20.37,43.54,43.54,0,0,0-5.14-9c-.73-1.08-1.48-2.18-2.22-3.35l.23-.17a14.35,14.35,0,0,0,3.81-3.71c.28-.46.58-.93.88-1.41,1.94-3,4.13-6.49,4.07-10-.08-4.95,2-7.78,5.16-10.51,1.29-1.12,2.46-2.35,3.6-3.54.34-.34.67-.69,1-1C340.76,169.75,341,154.71,331.3,145.07Zm-31,18.38q.92-1,1.83-2.07a60.26,60.26,0,0,1,6.59-6.77c3.36-2.78,8.94-2.19,12.19,1.29a9.23,9.23,0,0,1,.25,12.33c-1.92,2.23-4.05,4.37-6.11,6.45l-1.74,1.75ZM133.16,343.11l9.14-27.55,18.37,18.36Zm42.22-17.89-24.44-24.4,42.18-42.12,24.45,24.38ZM304.52,197q-31.35,31.43-62.77,62.79l-12,12-25.25-25.31c.29-.32.63-.68,1-1q36.21-36.24,72.45-72.46c4.32-4.32,5.73-4.32,10.06,0l3.72,3.72c4.16,4.14,8.46,8.43,12.64,12.68C307.13,192.11,307.17,194.33,304.52,197Z"/><path class="cls-3" d="M208.72,105.51c-21.36-16.45-45.57-35.11-69.08-53.09-8-6.1-16.82-6.06-24.88.12-22.14,17-44.62,34.28-66.35,51L46,105.42c-4.86,3.74-5.34,7.62-1.55,12.59,1.44,1.89,2.91,3.77,4.37,5.65,2.47,3.18,5,6.46,7.44,9.75,2.21,3,5.07,5.86,9.64,4.85v18.25q0,20.16,0,40.33c0,7.37,2.52,9.86,10,9.86H178c8,0,10.35-2.3,10.35-10.27q0-19.92,0-39.83V138.09c4.82,1.2,7.63-1.58,9.38-3.92,2.32-3.1,4.73-6.22,7.07-9.23,1.82-2.35,3.65-4.71,5.45-7.08C213.89,113.05,213.41,109.12,208.72,105.51Zm-92,86V153h20.84v38.55Zm56.62-10.3v9.44a6.65,6.65,0,0,1-.06.85H152.73v-14.4q0-15,0-29.95c0-6.72-2.63-9.35-9.35-9.36q-16.29,0-32.56,0c-6.69,0-9.3,2.64-9.32,9.39q0,14.76,0,29.53v14.89H80.86V175.87c0-15,0-30.57-.06-45.86a4.33,4.33,0,0,1,2-4.09c11.5-8.74,23.19-17.75,34.48-26.46l10-7.68.06,0c.66.46,1.32.91,2,1.4l7.33,5.63c11.41,8.76,23.2,17.81,34.72,26.82a5.36,5.36,0,0,1,2,3.27C173.38,146.37,173.37,164.1,173.35,181.24Zm15.91-60.75L155.33,94.4q-11-8.46-22-16.91c-2.4-1.83-4.22-2.75-6-2.75s-3.65.93-6.06,2.78Q106.13,89.12,91,100.73L67.27,119c-.63.48-1.28.93-2,1.43L60,113.6l7.14-5.5L84.67,94.56l38.54-29.63c3.5-2.69,4.6-2.72,7.85-.23q20.69,15.89,41.36,31.8l21.79,16.75.42.31Z"/><path class="cls-4" d="M138.87,276a8.64,8.64,0,0,1-6.35,2.56c-2.63,0-5.28,0-7.91,0H99.38c-17.73,0-36.06,0-54.09-.06-2.22,0-5.18-.37-6.61-2a10.06,10.06,0,0,1-2.21-7.44c.52-3.42,3.4-5.46,7.69-5.46h56.49q15.75,0,31.49,0c5,0,8.29,2.69,8.57,7A7.12,7.12,0,0,1,138.87,276Z"/><path class="cls-5" d="M176.66,235.17c0,4.6-3.45,7.46-9,7.46l-31.44,0-31.45,0c-3,0-5.4-.83-7-2.41a7,7,0,0,1-2-5.09c0-4.59,3.45-7.45,9-7.46,7.43,0,14.87,0,22.3,0h18.23c7.45,0,14.9,0,22.35,0a10.21,10.21,0,0,1,6.44,1.94A6.89,6.89,0,0,1,176.66,235.17Z"/><path class="cls-6" d="M86.82,234.92a7,7,0,0,1-1.92,5.22,8.94,8.94,0,0,1-6.47,2.49c-2.3,0-4.61,0-6.91,0H66.36c-3.4,0-6.81,0-10.21,0-3.87,0-7.87,0-11.81,0-5-.06-8.23-2.9-8.37-7.26a7.05,7.05,0,0,1,1.94-5.25,8.73,8.73,0,0,1,6.46-2.44c11.16-.05,22.62-.05,34.06,0C83.39,227.7,86.68,230.54,86.82,234.92Z"/></g></g></svg>