<svg xmlns="http://www.w3.org/2000/svg" viewBox="0 0 352.17 377.09"><defs><style>.cls-1{fill:#4a668e;}</style></defs><g id="Capa_2" data-name="Capa 2"><g id="Capa_1-2" data-name="Capa 1"><path class="cls-1" d="M264.89,163.46q0-13.52,0-27c0-21.79,0-44.32.06-66.48a35.26,35.26,0,0,0-11-26.55C243,32.69,232.05,21.76,221.43,10.94,214.2,3.58,205.54,0,194.93,0h-.09C158,.07,120.53.06,84.3.06H34.77C14,.06,0,14,0,34.76Q0,169.93,0,305.09c0,20.73,14,34.66,34.79,34.68q27.38,0,54.77,0h20c.27,0,.54,0,.81,0h.85c.53,0,1.07,0,1.61-.07a7.76,7.76,0,0,0,.17-15.47,19.66,19.66,0,0,0-2.75-.07h-24c-17.31,0-35.22,0-52.82,0-10.48,0-17.79-7.36-17.79-17.85,0-86.6,0-178.33,0-272.68,0-10.75,7.26-18,18.06-18,55,0,110.35,0,162,0a31.27,31.27,0,0,1,3.2.22l.46,0q.06,13.25.08,26.46c0,15.13,8,23.12,23.09,23.13h26.54c0,.26,0,.52,0,.77.09,1.44.19,2.79.19,4.11q0,33,0,65.94v26.38c0,.33,0,.66,0,1a16.14,16.14,0,0,0,.14,3.16c.74,4.18,3.6,6.67,7.66,6.67h0c4,0,6.89-2.51,7.66-6.69a13.2,13.2,0,0,0,.14-2.63C264.9,164,264.89,163.71,264.89,163.46ZM220,49.87c-3.08,0-4.81-1.77-4.87-4.82-.09-5-.07-9.9-.05-14.65,0-.6,0-1.19,0-1.77l21.28,21.29h-1.75C229.83,49.94,224.91,50,220,49.87Z"/><path class="cls-1" d="M344.77,151c-10-9.89-26-9.7-36.55.45-1.22,1.16-2.4,2.37-3.59,3.57-1.7,1.71-3.46,3.49-5.26,5.14a4.13,4.13,0,0,1-2.45,1.09c-6.95-.62-12.85,1.78-18.59,7.52Q247.18,200,216,231.18q-37.23,37.26-74.43,74.55a20.93,20.93,0,0,0-4.83,7.68c-3.83,11.13-7.6,22.47-11.25,33.44-2,5.94-3.94,11.89-5.94,17.83-.92,2.71-2.29,6.82,1.33,10.28a7.17,7.17,0,0,0,5.18,2.13,15.34,15.34,0,0,0,4.76-1q8.3-2.79,16.62-5.55c11.11-3.7,22.61-7.53,33.88-11.44a24.26,24.26,0,0,0,9-5.55c32.2-32,64.86-64.69,96.43-96.28L311,233c.7-.7,1.42-1.39,2.14-2.06,3.25,3,4.69,5.18,4.75,7.17s-1.34,4.43-4.74,7.84l-8.59,8.63c-11.05,11.1-22.49,22.59-33.7,33.91-3.58,3.62-3.82,8.24-.6,11.51a7.7,7.7,0,0,0,5.44,2.39,8.19,8.19,0,0,0,5.81-2.58l5.25-5.25C300.31,281,314.31,267,327.85,253a19.61,19.61,0,0,0,4.44-21.2,45.48,45.48,0,0,0-5.35-9.37c-.76-1.12-1.54-2.27-2.31-3.49l.24-.17a15,15,0,0,0,4-3.86l.92-1.47c2-3.16,4.3-6.75,4.24-10.37-.09-5.15,2.08-8.09,5.37-10.93,1.34-1.17,2.56-2.45,3.74-3.69.36-.35.7-.71,1-1.07C354.61,176.65,354.87,161,344.77,151ZM312.54,170.1c.63-.71,1.27-1.43,1.9-2.16a63.41,63.41,0,0,1,6.86-7c3.5-2.9,9.3-2.28,12.69,1.34a9.61,9.61,0,0,1,.26,12.83c-2,2.32-4.22,4.55-6.36,6.71l-1.81,1.82Zm-174,187,9.51-28.67L167.2,347.5Zm43.94-18.62-25.44-25.39L201,269.22l25.44,25.37ZM316.9,205q-32.62,32.7-65.32,65.34l-12.45,12.45-26.28-26.34c.31-.33.66-.71,1-1.07q37.68-37.73,75.4-75.41c4.49-4.49,6-4.49,10.47,0l3.87,3.87c4.33,4.31,8.8,8.77,13.15,13.2C319.61,199.92,319.66,202.23,316.9,205Z"/><path class="cls-1" d="M217.2,109.8C195,92.68,169.78,73.26,145.31,54.55c-8.3-6.35-17.5-6.3-25.89.13-23,17.67-46.43,35.67-69,53.09l-2.52,1.94c-5.06,3.89-5.56,7.93-1.62,13.1,1.5,2,3,3.92,4.55,5.88,2.57,3.31,5.24,6.72,7.74,10.14,2.3,3.16,5.28,6.1,10,5v19q0,21,0,42c0,7.67,2.62,10.26,10.37,10.26H185.21c8.35,0,10.77-2.39,10.77-10.68q0-20.73,0-41.45V143.7c5,1.25,7.95-1.64,9.77-4.08,2.41-3.22,4.92-6.47,7.35-9.6q2.85-3.68,5.68-7.37C222.58,117.65,222.08,113.56,217.2,109.8Zm-95.73,89.53V159.21h21.69v40.12Zm58.93-10.72,0,9.82a7.38,7.38,0,0,1-.06.89H158.94v-15q0-15.57,0-31.17c0-7-2.74-9.73-9.73-9.74q-17,0-33.89,0c-7,0-9.67,2.75-9.7,9.78q0,15.36,0,30.73v15.49H84.14l0-16.4c0-15.64,0-31.81-.07-47.72a4.52,4.52,0,0,1,2-4.26c12-9.1,24.14-18.47,35.88-27.54l10.38-8,.06,0c.69.48,1.38,1,2,1.46l7.63,5.86C154,112,166.24,121.4,178.23,130.78a5.59,5.59,0,0,1,2.05,3.4C180.43,152.32,180.42,170.77,180.4,188.61ZM197,125.39,161.64,98.24q-11.44-8.8-22.89-17.6c-2.5-1.9-4.39-2.86-6.29-2.86s-3.8,1-6.3,2.89L94.74,104.83,70,123.85c-.65.5-1.33,1-2.08,1.49l-5.54-7.12,7.44-5.72C76,107.76,82,103.09,88.11,98.4q20-15.42,40.11-30.83c3.64-2.8,4.78-2.83,8.17-.24q21.53,16.53,43,33.09l22.67,17.43.44.33Z"/><path class="cls-1" d="M144.51,287.22a9,9,0,0,1-6.6,2.67c-2.74,0-5.5,0-8.24,0H103.42c-18.45,0-37.53,0-56.29-.07-2.31,0-5.39-.38-6.88-2.1A10.47,10.47,0,0,1,38,280c.54-3.56,3.54-5.68,8-5.68h58.79q16.4,0,32.77,0c5.21,0,8.63,2.8,8.92,7.28A7.41,7.41,0,0,1,144.51,287.22Z"/><path class="cls-1" d="M183.84,244.73c0,4.79-3.59,7.76-9.33,7.76l-32.72,0q-16.36,0-32.73,0c-3.1,0-5.62-.86-7.26-2.5a7.36,7.36,0,0,1-2-5.3c0-4.78,3.6-7.75,9.34-7.76,7.73,0,15.47,0,23.21,0h19c7.75,0,15.5,0,23.26,0a10.59,10.59,0,0,1,6.7,2A7.17,7.17,0,0,1,183.84,244.73Z"/><path class="cls-1" d="M90.35,244.47a7.34,7.34,0,0,1-2,5.43,9.28,9.28,0,0,1-6.73,2.59q-3.6,0-7.19,0H69.06c-3.54,0-7.09,0-10.63,0-4,0-8.19,0-12.29,0-5.15-.06-8.56-3-8.71-7.55a7.32,7.32,0,0,1,2-5.46,9.05,9.05,0,0,1,6.72-2.54c11.61-.05,23.54-.05,35.45,0C86.78,237,90.2,239.91,90.35,244.47Z"/></g></g></svg>