<svg xmlns="http://www.w3.org/2000/svg" viewBox="0 0 377.15 377.13"><defs><style>.cls-1{fill:#4a668e;}</style></defs><g id="Capa_2" data-name="Capa 2"><g id="Capa_1-2" data-name="Capa 1"><path class="cls-1" d="M373.79,57.45c-1.89-1.92-3.81-3.81-5.73-5.7-3.19-3.15-6.5-6.42-9.6-9.74s-6.38-4.59-11.08-4.59h0c-74.34.07-149.92.07-223,.07H77.92c0-.74,0-1.46,0-2.15a63.72,63.72,0,0,0-.17-8A12,12,0,0,0,75,20.6C69.3,14.5,63.43,8.73,57.4,2.87,53.42-1,49.38-1,45.34,3L44.16,4.13C38.79,9.4,33.23,14.84,28,20.45a12.71,12.71,0,0,0-3,7.06,58.55,58.55,0,0,0-.17,8.08c0,.62,0,1.26,0,1.9H21c-4,0-7.83,0-11.66,0C2.9,37.53,0,40.44,0,46.89q0,16.76,0,33.5c0,7.42,2.68,10.07,10.18,10.08,3.74,0,7.46,0,11.24,0h3.51V365.65c0,.38,0,.78,0,1.16a18.61,18.61,0,0,0,.19,3.78,7.53,7.53,0,0,0,7.3,6.52l.49,0a7.76,7.76,0,0,0,7.47-6.53,16.48,16.48,0,0,0,.16-3v-.72q0-17.67,0-35.33V298q0-132.47,0-264.92c0-.9,0-3,.6-3.7,2.44-2.86,5.08-5.59,7.88-8.48.74-.75,1.48-1.52,2.23-2.3l2,2.12C55.45,23,57.48,25.08,59.64,27a7.85,7.85,0,0,1,2.77,6.59c-.09,99.26-.08,200.18-.08,297.78v34.46c0,.37,0,.74,0,1.11a16.7,16.7,0,0,0,.15,3.44c.75,4.24,3.54,6.67,7.67,6.67s6.9-2.43,7.66-6.67a16.83,16.83,0,0,0,.15-3.45c0-.37,0-.74,0-1.1V90.65h59v21.63H121.52c-13.22,0-21.78,8.55-21.78,21.67q0,85.89,0,171.77c0,13.1,8.44,21.58,21.5,21.58q104.78,0,209.55,0c12.76,0,21.34-8.59,21.35-21.35,0-54.77,0-111.08,0-172.16,0-13-8.47-21.46-21.57-21.51H315V90.47l7.81,0c8.63,0,17.56.06,26.3-.15A12.91,12.91,0,0,0,357,87.16c4.89-4.47,9.58-9.27,14.13-13.91l2.81-2.86C378.27,66,378.23,62,373.79,57.45ZM15.83,74.6V53.28h8.94V74.6Zm313.28,53.26c6.34,0,7.45,1.11,7.45,7.35q0,84.53,0,169c0,6.34-1.09,7.46-7.35,7.46H122.76c-6.33,0-7.44-1.11-7.44-7.35q0-84.52,0-169.06c0-6.32,1.09-7.45,7.34-7.45ZM152.88,112V90.67h146V112Zm203.6-45.7c-3,2.87-5.85,5.58-8.81,8.09-.53.45-2.26.45-3.35.46q-80.44.06-160.9,0H78.1V53.07h38.37c74.63,0,151.79,0,227.69-.06h0a6.9,6.9,0,0,1,5.6,2.38c2.12,2.24,4.41,4.35,6.85,6.6.72.67,1.46,1.34,2.22,2.06Z"/><path class="cls-1" d="M310.81,197.18l-2.67-2.06c-22.78-17.56-46.34-35.71-69.58-53.47-8-6.13-17.36-6-25.6.28-23.15,17.75-46.66,35.85-69.38,53.34L141.34,197c-5.05,3.89-5.54,7.93-1.59,13.1,1.45,1.92,2.93,3.82,4.42,5.73,2.54,3.26,5.16,6.63,7.63,10s5.5,6.39,10.25,5.34v61c0,7.52,2.64,10.18,10.09,10.18H279.26c7.53,0,10.2-2.63,10.21-10.08q0-21,0-42V231.08c5.06.7,6.67-.21,10.11-4.67L303,222c3.12-4,6.33-8.17,9.45-12.3C316.06,204.92,315.53,200.82,310.81,197.18Zm-91.87-28.69-36.66,28.18L163.71,211l-2.13,1.59-.15.12-5.52-7.08c.58-.52,1.14-1,1.71-1.45q32.08-24.67,64.17-49.33c3.47-2.67,4.79-2.73,7.87-.37q28.78,22.09,57.51,44.25l8.84,6.8-5.51,7.16c-.66-.45-1.29-.9-1.89-1.36L264.82,193l-31.72-24.4C227,163.86,225,163.85,218.94,168.49Zm17.82,118H214.93V246.58h21.83Zm37.13-10.68v9.91a6.92,6.92,0,0,1-.07.87H252.43V271.51q0-15.54,0-31.08c0-7-2.73-9.72-9.73-9.73q-17,0-33.89,0c-7,0-9.67,2.75-9.68,9.78q0,15.47,0,30.93v15.27H177.76a11.61,11.61,0,0,1-.11-1.41v-5.74c0-18.79,0-38.22.07-57.34a4.73,4.73,0,0,1,1.09-3.05c12.81-10,25.42-19.7,38.77-30l8.35-6.43.75.58c1.25.94,2.51,1.9,3.76,2.87l8.62,6.62c10.74,8.24,21.83,16.76,32.67,25.25a5.61,5.61,0,0,1,2,3.4C273.93,239.58,273.9,258,273.89,275.81Z"/></g></g></svg>