<svg xmlns="http://www.w3.org/2000/svg" xmlns:xlink="http://www.w3.org/1999/xlink" viewBox="0 0 362.37 362.35"><defs><style>.cls-1{fill:url(#Degradado_sin_nombre_27);}.cls-2{fill:url(#Degradado_sin_nombre_136);}</style><linearGradient id="Degradado_sin_nombre_27" x1="-21.98" y1="277.26" x2="360.46" y2="56.46" gradientUnits="userSpaceOnUse"><stop offset="0" stop-color="#c0c0ca"/><stop offset="0.1" stop-color="#c5c5ce"/><stop offset="0.22" stop-color="#d4d4db"/><stop offset="0.35" stop-color="#ededf0"/><stop offset="0.43" stop-color="#fff"/><stop offset="0.58" stop-color="#eaeaed"/><stop offset="0.85" stop-color="#cacad2"/><stop offset="1" stop-color="#bebec8"/></linearGradient><linearGradient id="Degradado_sin_nombre_136" x1="145.4" y1="267.12" x2="294.78" y2="180.88" gradientUnits="userSpaceOnUse"><stop offset="0" stop-color="#d5d5dc"/><stop offset="0.13" stop-color="#e4e4e9"/><stop offset="0.38" stop-color="#fff"/><stop offset="0.65" stop-color="#e9e9ec"/><stop offset="1" stop-color="#d0d0d7"/></linearGradient></defs><g id="Capa_2" data-name="Capa 2"><g id="Capa_1-2" data-name="Capa 1"><path class="cls-1" d="M359.14,55.2c-1.81-1.85-3.66-3.66-5.5-5.48-3.07-3-6.25-6.17-9.23-9.36A13.45,13.45,0,0,0,333.77,36h0c-71.43.07-144,.07-214.28.07H74.87c0-.71,0-1.4,0-2.07a60.53,60.53,0,0,0-.16-7.66,11.57,11.57,0,0,0-2.67-6.5c-5.5-5.86-11.14-11.4-16.93-17C51.33-1,47.44-.92,43.56,2.87L42.43,4C37.27,9,31.93,14.26,26.91,19.65a12.13,12.13,0,0,0-2.83,6.78,57.1,57.1,0,0,0-.17,7.76c0,.6,0,1.21,0,1.83H20.14c-3.84,0-7.53,0-11.21,0-6.15,0-8.9,2.83-8.92,9q0,16.1,0,32.19c0,7.13,2.57,9.67,9.78,9.68,3.59,0,7.17,0,10.8,0H24v264.4c0,.37,0,.75,0,1.12a17.85,17.85,0,0,0,.18,3.63,7.23,7.23,0,0,0,7,6.26l.47,0a7.46,7.46,0,0,0,7.18-6.27,16,16,0,0,0,.15-2.91v-.7q0-17,0-33.94V286.29q0-127.28,0-254.54c0-.86,0-2.87.58-3.55,2.34-2.75,4.88-5.37,7.57-8.15.71-.72,1.42-1.46,2.14-2.21l2,2c2.07,2.17,4,4.22,6.09,6.09A7.55,7.55,0,0,1,60,32.3c-.08,95.37-.07,192.34-.07,286.11v33.11c0,.36,0,.71,0,1.07a16,16,0,0,0,.14,3.3c.72,4.08,3.4,6.41,7.37,6.41S74,360,74.74,355.89a16.14,16.14,0,0,0,.14-3.31c0-.36,0-.71,0-1.06V87.1h56.65v20.78H116.76c-12.71,0-20.93,8.21-20.93,20.82q0,82.53,0,165c0,12.59,8.11,20.73,20.66,20.73q100.66,0,201.34,0c12.26,0,20.5-8.25,20.51-20.51,0-52.62,0-106.73,0-165.41,0-12.51-8.14-20.62-20.72-20.67h-15v-21l7.5,0c8.29,0,16.87.06,25.27-.14A12.41,12.41,0,0,0,343,83.74c4.7-4.29,9.21-8.9,13.58-13.36l2.7-2.75C363.45,63.36,363.41,59.53,359.14,55.2ZM15.21,71.68V51.19H23.8V71.68Zm301,51.17c6.09,0,7.16,1.06,7.16,7.06q0,81.21,0,162.43c0,6.09-1.05,7.16-7.06,7.16H118c-6.08,0-7.15-1.06-7.15-7.06q0-81.21,0-162.43c0-6.08,1-7.16,7-7.16ZM146.89,107.61V87.12H287.14v20.49ZM342.51,63.7c-2.89,2.76-5.62,5.36-8.46,7.77-.51.44-2.18.44-3.22.45q-77.29,0-154.6,0H75V51H111.9c71.71,0,145.85,0,218.77-.06h0a6.63,6.63,0,0,1,5.38,2.29c2,2.15,4.24,4.18,6.58,6.34.7.64,1.41,1.29,2.14,2Z"/><path class="cls-2" d="M298.63,189.45l-2.57-2c-21.88-16.87-44.52-34.31-66.85-51.37-7.72-5.89-16.68-5.79-24.6.27-22.24,17-44.83,34.44-66.66,51.25l-2.15,1.65c-4.85,3.74-5.32,7.62-1.53,12.59q2.1,2.76,4.25,5.5c2.44,3.13,5,6.37,7.33,9.62s5.28,6.14,9.85,5.13v58.63c0,7.22,2.54,9.78,9.69,9.78H268.32c7.23,0,9.8-2.53,9.81-9.68q0-20.16,0-40.31V222c4.86.68,6.4-.2,9.71-4.48l3.25-4.2c3-3.86,6.08-7.85,9.08-11.82C303.67,196.89,303.16,193,298.63,189.45Zm-88.27-27.56L175.14,189l-17.85,13.72-2,1.53-.15.12-5.3-6.81c.56-.5,1.09-1,1.64-1.39q30.83-23.72,61.66-47.4c3.33-2.56,4.6-2.62,7.56-.35q27.66,21.23,55.26,42.51l8.49,6.54-5.29,6.88c-.64-.44-1.24-.87-1.82-1.31l-22.86-17.59L224,162C218.08,157.44,216.17,157.43,210.36,161.89Zm17.12,113.37h-21V236.92h21ZM263.16,265v9.52a6.48,6.48,0,0,1-.07.84H242.54V260.87q0-14.93,0-29.86c0-6.72-2.63-9.34-9.35-9.35q-16.29,0-32.56,0c-6.68,0-9.29,2.64-9.3,9.4,0,9.9,0,19.8,0,29.71v14.68H170.79a13.21,13.21,0,0,1-.1-1.36v-5.51c0-18.06,0-36.73.06-55.1a4.54,4.54,0,0,1,1.05-2.93c12.31-9.62,24.43-18.93,37.25-28.78l8-6.18.72.55c1.2.91,2.41,1.83,3.61,2.76l8.28,6.36c10.32,7.92,21,16.11,31.39,24.26a5.41,5.41,0,0,1,2,3.27C263.19,230.19,263.17,247.89,263.16,265Z"/></g></g></svg>