<svg xmlns="http://www.w3.org/2000/svg" viewBox="0 0 30.41 30.41"><defs><style>.cls-1{fill:#4a668e;}</style></defs><g id="Capa_2" data-name="Capa 2"><g id="Capa_1-2" data-name="Capa 1"><path class="cls-1" d="M15.44,0c.4.29.81.56,1.18.88,2,1.65,4,3.32,6,5l.18.13v-.5c0-.47,0-1,0-1.42a1,1,0,0,1,1-1q1.26,0,2.52,0a1,1,0,0,1,1,1.1c0,1.78,0,3.57,0,5.35a.57.57,0,0,0,.23.5c.77.62,1.53,1.25,2.29,1.89A1.05,1.05,0,0,1,30,13.61c-.3.35-.61.69-.92,1-.6.68-.9.74-1.73.33V29.17c0,.87-.37,1.24-1.24,1.24H4.28C3.4,30.41,3,30,3,29.16V15l-.22.13a1,1,0,0,1-1.25-.16c-.46-.49-.91-1-1.34-1.51A2.06,2.06,0,0,1,0,13v-.48a4.17,4.17,0,0,1,.48-.61L14.22.52A7.71,7.71,0,0,1,15,0ZM26.36,29.38V14.44a.66.66,0,0,0-.28-.6Q20.76,9.43,15.44,5A.3.3,0,0,0,15,5Q9.63,9.45,4.28,13.88a.58.58,0,0,0-.24.5q0,7.33,0,14.67v.33ZM2.28,14.21l.16-.12L14.71,3.92c.4-.34.58-.35.95,0l10.19,8.46,2.28,1.88,1.26-1.43L15.21,1,1,12.78ZM26.34,8.93V4.07H23.82V6.75a.25.25,0,0,0,.1.17Z"/><path class="cls-1" d="M13.51,11.63a1.75,1.75,0,0,1,.75.33,1.39,1.39,0,0,1-.3,2.3.2.2,0,0,0-.14.22v4.64l1.6,0q2.18,0,4.35,0a1.37,1.37,0,0,1,1.32.79,1.17,1.17,0,0,1,.12.48,8,8,0,0,1-.1,2.12,5,5,0,0,1-2.53,3.38.22.22,0,0,0-.13.23c0,.12,0,.24,0,.35a.2.2,0,0,1,0,.05h1.33a.46.46,0,1,1,0,.92H11.55a.47.47,0,0,1-.51-.51V25.66a.38.38,0,0,0-.07-.21,3.29,3.29,0,0,1-.86-2.3c0-.4,0-.81,0-1.22a.18.18,0,0,0-.12-.19,1.34,1.34,0,0,1-.8-1.14,2.18,2.18,0,0,1,0-.25v-8.1a.57.57,0,0,1,.34-.62ZM12,26.49h5.55c0-.24,0-.48,0-.72a.57.57,0,0,1,.37-.59,4,4,0,0,0,2-2,3.84,3.84,0,0,0,.39-1.34H11c0,.42,0,.83,0,1.24A2.37,2.37,0,0,0,11.79,25a.57.57,0,0,1,.18.44C12,25.76,12,26.12,12,26.49Zm.92-12.07H10.12v6c0,.37.17.55.54.55h2.23Zm7.41,6.52v-.3c0-.46-.15-.62-.6-.62H14.25a.46.46,0,0,0-.42.37,5,5,0,0,0,0,.55ZM10.12,13.48H13.4a.41.41,0,0,0,.39-.3.47.47,0,0,0-.48-.62H10.12Z"/></g></g></svg>