<svg xmlns="http://www.w3.org/2000/svg" xmlns:xlink="http://www.w3.org/1999/xlink" viewBox="0 0 1863.34 1109.46"><defs><style>.cls-1{fill:url(#Degradado_sin_nombre_27);}.cls-2{fill:url(#Degradado_sin_nombre_27-2);}.cls-3{fill:url(#Degradado_sin_nombre_27-3);}.cls-4{fill:url(#Degradado_sin_nombre_27-4);}.cls-5{fill:#fff;}</style><linearGradient id="Degradado_sin_nombre_27" x1="1056.63" y1="1013.8" x2="1738.29" y2="620.24" gradientUnits="userSpaceOnUse"><stop offset="0" stop-color="#c0c0ca"/><stop offset="0.1" stop-color="#c5c5ce"/><stop offset="0.22" stop-color="#d4d4db"/><stop offset="0.35" stop-color="#ededf0"/><stop offset="0.43" stop-color="#fff"/><stop offset="0.58" stop-color="#eaeaed"/><stop offset="0.85" stop-color="#cacad2"/><stop offset="1" stop-color="#bebec8"/></linearGradient><linearGradient id="Degradado_sin_nombre_27-2" x1="-93.01" y1="862.63" x2="1117.31" y2="163.85" xlink:href="#Degradado_sin_nombre_27"/><linearGradient id="Degradado_sin_nombre_27-3" x1="1328.84" y1="484.39" x2="1560.38" y2="350.71" xlink:href="#Degradado_sin_nombre_27"/><linearGradient id="Degradado_sin_nombre_27-4" x1="1542.57" y1="463.17" x2="1727.57" y2="356.36" xlink:href="#Degradado_sin_nombre_27"/></defs><g id="Capa_2" data-name="Capa 2"><g id="Capa_1-2" data-name="Capa 1"><path class="cls-1" d="M1863.34,837.47V1107.1a2.36,2.36,0,0,1-2.36,2.36H1228.6a2.38,2.38,0,0,1-1.67-.69L1094.8,976.64,954,835.8a2.38,2.38,0,0,1-.69-1.67V514.42a2.37,2.37,0,0,1,2.36-2.37h269.63a2.37,2.37,0,0,1,2.36,2.37V832.74a2.37,2.37,0,0,0,2.37,2.37h631A2.36,2.36,0,0,1,1863.34,837.47Z"/><path class="cls-2" d="M515.5,514.91,1023,1022.43a2.37,2.37,0,0,1-1.67,4H640.23a2.36,2.36,0,0,1-1.67-.69l-317-316.95a2.36,2.36,0,0,0-3.35,0L52.46,974.6a2.36,2.36,0,0,0,1.34,4l466.6,43.16a2.37,2.37,0,0,1-.33,4.71H3a2.36,2.36,0,0,1-2.36-2.36V2.37A2.37,2.37,0,0,1,3,0H272.58A2.37,2.37,0,0,1,275,2.37v356a2.36,2.36,0,0,0,4,1.68L638.37.69A2.36,2.36,0,0,1,640,0h381.31A2.37,2.37,0,0,1,1023,4L515.5,511.56A2.36,2.36,0,0,0,515.5,514.91Z"/><path class="cls-3" d="M1079.39,52.34l23.33,22.32,23.21,22.45,46.4,44.9q46.23,45.06,92.27,90.33c30.74,30.13,61.25,60.5,91.86,90.75L1448,414.21l91.13,91.48c30.25,30.62,60.62,61.11,90.75,91.86s60.29,61.45,90.33,92.27l44.9,46.41,22.44,23.2,22.32,23.34-23.33-22.32L1763.29,738l-46.41-44.9q-46.25-45.06-92.27-90.33c-30.75-30.13-61.24-60.5-91.86-90.75l-91.48-91.13-91.12-91.49c-30.26-30.61-60.62-61.11-90.75-91.86s-60.29-61.45-90.33-92.27l-44.91-46.4-22.44-23.21Z"/><path class="cls-4" d="M1618.87,517.44a33.4,33.4,0,0,0,8.26-5q8.71-7.51,8.72-26.77a52.72,52.72,0,0,0-2.41-17,27.08,27.08,0,0,0-7.21-11.43,29,29,0,0,0-12.44-6.42,72.78,72.78,0,0,0-18.25-2h-7.46a2.37,2.37,0,0,1-2.36-2.37V397a2.37,2.37,0,0,1,2.36-2.37h7.46a56.84,56.84,0,0,0,18.25-2.6,33.54,33.54,0,0,0,12.54-7.32,29,29,0,0,0,7.22-10.93,37.92,37.92,0,0,0,2.3-13.24q0-13.23-8.52-19.45t-20.76-6.21q-14.64,0-25.16,8.42-10,8-10.5,28.34a2.38,2.38,0,0,1-2.36,2.34h-76.07a2.38,2.38,0,0,1-2.39-2.41,109.82,109.82,0,0,1,6.19-34.19,89.24,89.24,0,0,1,19.66-32q13.43-14.24,35.49-22.66t53.54-8.42q39.9,0,64.47,12.43t36,31.28q11.43,18.85,11.42,38.1a61.23,61.23,0,0,1-8.12,31.28,62.21,62.21,0,0,1-22,22.46,62.85,62.85,0,0,1-16.31,6.95,2.34,2.34,0,0,0,0,4.53,59.26,59.26,0,0,1,16.33,7.37,64.43,64.43,0,0,1,22,24.27q8.13,15.24,8.12,34.89a92,92,0,0,1-11.63,45q-11.62,21.15-36.49,34.29Z"/><path class="cls-5" d="M0,1057.6H35.81q23.3,0,35.15,2.83t11.85,9.8a7,7,0,0,1-2.43,5.21,18.31,18.31,0,0,1-7,3.81,49.66,49.66,0,0,1-11.36,2v.34a79.79,79.79,0,0,1,12.47,1.83,22.92,22.92,0,0,1,8.65,3.76,7.68,7.68,0,0,1,3.17,6.35q0,4.62-5.23,7.87t-14.9,4.93A134.72,134.72,0,0,1,43.22,1108H0Zm19.76,20.81H38.69q13.41,0,18.56-1.83t5.14-5.32q0-3.62-6.13-5.19t-19.38-1.57H19.76Zm0,6.72v16H40.58q13.76,0,19.35-2.25c3.73-1.49,5.59-3.52,5.59-6.07a4.93,4.93,0,0,0-2.47-4.07q-2.46-1.73-8.15-2.66a99.2,99.2,0,0,0-15.31-.93Z"/><path class="cls-5" d="M102.7,1108V1057.6h19.75V1108Z"/><path class="cls-5" d="M213.87,1108H145.71V1057.6h68.16v7h-48.4v13.7h45.36v6.93H165.47V1101h48.4Z"/><path class="cls-5" d="M331.8,1108H307.51l-58.94-40.26h-.74c.22,1.36.43,2.8.62,4.33s.36,3.1.5,4.71.26,3.23.37,4.86V1108H231.37V1057.6h24.12l58.85,40h.58c-.11-1.18-.25-2.52-.41-4s-.32-3.09-.45-4.71-.24-3.19-.29-4.71V1057.6h18Z"/><path class="cls-5" d="M423.13,1108H355V1057.6h68.15v7h-48.4v13.7h45.36v6.93H374.73V1101h48.4Z"/><path class="cls-5" d="M510.11,1094.31q0,4.49-5.23,7.73t-15,5a135.63,135.63,0,0,1-23.26,1.73q-6.58,0-12.59-.31t-11.32-.91q-5.31-.62-9.75-1.47v-7.8q7.41,1.35,16.46,2.43a153.48,153.48,0,0,0,18.44,1.09,79.13,79.13,0,0,0,12.68-.84,21.4,21.4,0,0,0,7.53-2.42q2.51-1.57,2.51-3.67,0-2.25-2.88-3.78a37.12,37.12,0,0,0-8.69-2.85q-5.8-1.31-14.61-2.79-5.93-1-11.28-2.24a64.37,64.37,0,0,1-9.54-3,20.88,20.88,0,0,1-6.67-4.1,7.48,7.48,0,0,1-2.47-5.56q0-4.27,4.94-7.33t13.87-4.67a118.16,118.16,0,0,1,20.86-1.62q9.47,0,17.83.84t16.42,2.33l-6.26,6.69q-7.49-1.27-14.4-2a126.28,126.28,0,0,0-14.16-.77,60.45,60.45,0,0,0-10.62.79,18.94,18.94,0,0,0-6.63,2.24c-1.51,1-2.26,2.09-2.26,3.38q0,2.25,2.59,3.73a30.62,30.62,0,0,0,8.07,2.72q5.48,1.24,14.12,2.76,10,1.73,16.91,3.63a34,34,0,0,1,10.66,4.53A7.87,7.87,0,0,1,510.11,1094.31Z"/><path class="cls-5" d="M558.72,1057.6a169.91,169.91,0,0,1,25.73,1.61q10.15,1.61,15.14,4.84t5,8.21a7.93,7.93,0,0,1-3.29,6.37,27.05,27.05,0,0,1-8.64,4.36,79.62,79.62,0,0,1-11.45,2.73L615.35,1108h-22.3l-29.14-20.18H544.65V1108H524.89V1057.6Zm-1.32,6.94H544.65V1081h13.66q13.66,0,19.88-2.14t6.21-6.31q0-4.35-6.62-6.18T557.4,1064.54Z"/><path class="cls-5" d="M698.71,1108l-11.77-14h-46l-11.77,14H608.32l44.78-50.65H675L719.7,1108ZM681.83,1087l-11.44-13.83q-.66-.9-1.89-2.52c-.83-1.08-1.65-2.2-2.47-3.35s-1.51-2.11-2.06-2.9c-.55,1-1.22,2-2,3.16s-1.56,2.25-2.3,3.28l-1.69,2.33L646.44,1087Z"/><path class="cls-5" d="M767.16,1041.66v.73c-1.32.64-3.1,1.44-5.35,2.38s-4.69,1.92-7.33,3-5.24,2-7.82,2.91-4.91,1.71-7,2.35H726.74v-.9q2.71-1.3,6-3.14c2.23-1.22,4.42-2.47,6.59-3.76s4-2.46,5.47-3.52Zm-40,66.38V1057.6h19.76V1108Z"/><path class="cls-5" d="M821.45,1063.92a81.42,81.42,0,0,0-15.43,1.31,41.34,41.34,0,0,0-11.48,3.79,19.87,19.87,0,0,0-7.16,6,13.31,13.31,0,0,0-2.47,7.88,14.2,14.2,0,0,0,4,10.06q3.95,4.21,12,6.48t20.33,2.26q7.74,0,15-.62t15-1.69v7q-7.32,1.2-14.82,1.76t-17.28.55q-18.52,0-30.66-3.21t-18.07-9a18.56,18.56,0,0,1-5.93-13.66,16.48,16.48,0,0,1,3.75-10.47,30.28,30.28,0,0,1,11-8.21,71,71,0,0,1,17.9-5.37,140.77,140.77,0,0,1,24.45-1.89q9,0,17.78.86t16.3,2.38L848.7,1067q-6.26-1.2-13.13-2.12A106.91,106.91,0,0,0,821.45,1063.92Z"/><path class="cls-5" d="M936.75,1108H868.59V1057.6h68.16v7H888.34v13.7H933.7v6.93H888.34V1101h48.41Z"/><path class="cls-5" d="M1023.72,1094.31q0,4.49-5.23,7.73t-15,5a135.43,135.43,0,0,1-23.25,1.73q-6.59,0-12.6-.31t-11.32-.91q-5.31-.62-9.75-1.47v-7.8q7.41,1.35,16.46,2.43a153.6,153.6,0,0,0,18.44,1.09,79,79,0,0,0,12.68-.84,21.33,21.33,0,0,0,7.53-2.42q2.5-1.57,2.51-3.67,0-2.25-2.88-3.78a37,37,0,0,0-8.68-2.85q-5.8-1.31-14.62-2.79-5.92-1-11.27-2.24a64.52,64.52,0,0,1-9.55-3,21,21,0,0,1-6.67-4.1,7.48,7.48,0,0,1-2.47-5.56q0-4.27,4.94-7.33t13.87-4.67a118.2,118.2,0,0,1,20.87-1.62q9.46,0,17.82.84t16.42,2.33l-6.26,6.69q-7.49-1.27-14.4-2a126.28,126.28,0,0,0-14.16-.77,60.45,60.45,0,0,0-10.62.79,18.8,18.8,0,0,0-6.62,2.24c-1.51,1-2.27,2.09-2.27,3.38q0,2.25,2.6,3.73a30.39,30.39,0,0,0,8.06,2.72q5.48,1.24,14.12,2.76,10,1.73,16.92,3.63a34.06,34.06,0,0,1,10.66,4.53A7.88,7.88,0,0,1,1023.72,1094.31Z"/></g></g></svg>