<svg xmlns="http://www.w3.org/2000/svg" viewBox="0 0 352.14 377.13"><defs><style>.cls-1{fill:#4a668e;}</style></defs><g id="Capa_2" data-name="Capa 2"><g id="Capa_1-2" data-name="Capa 1"><path class="cls-1" d="M191.58,145.28c.34,7.75-3.4,12.54-9.12,13.17s-10.7-3.1-11.18-9.59c-.76-10.31-12.5-14.7-20.76-10.48-4,2-6.65,5.14-6.7,9.7a10,10,0,0,0,6.58,9.69,29.41,29.41,0,0,0,9,1.81c24.62,1.61,39.7,26.06,28.61,46.6a31.78,31.78,0,0,1-16.22,14.61c-2.58,1.06-4.12,2.22-4.56,5.37-.66,4.72-4.87,7.82-9.51,8a9.72,9.72,0,0,1-10.15-7.84c-.6-3.19-2.25-4.43-5-5.68-11-5-17.69-13.47-19.4-25.59-1-7.12,2.61-12.64,8.82-13.55,5.9-.85,10.5,3.23,11.65,10.34.95,5.86,4.42,9.76,10.22,10.92s11.07-.1,14.9-4.92a9.62,9.62,0,0,0-2.54-14.43,25.12,25.12,0,0,0-10.69-3c-15.82-1.06-29.12-11.85-31.88-26.36-2.85-15,4.73-28.21,19.93-35.34,1.62-.77,3-2.92,3.65-4.73,1.64-4.9,5.32-8.16,10.07-8.19,4.95,0,8.65,3.4,10.25,8.6a8.14,8.14,0,0,0,3.9,4.48C183.43,124.41,190.44,133.41,191.58,145.28Z"/><path class="cls-1" d="M310.16,112.6c-2.51-2-5-3.94-7.5-5.92-6.76-5.36-13.75-10.9-20.82-16.08-3.45-2.54-4.66-5-4.61-9.28.21-18.91.18-38.14.14-56.74q0-7.66,0-15.32c0-6.28-2.9-9.22-9.07-9.23-17.08,0-32.62,0-47.52,0-5.71,0-8.69,2.92-8.84,8.62,0,1.1,0,2.19,0,3.29V35.67l-.16-.13L200,26.33c-8.6-6.75-17.49-13.73-26.32-20.48-10.17-7.77-22.76-7.68-32.88.22C99,38.71,56.57,71.94,15.52,104.09L4,113.08c-4.85,3.8-5.32,7.87-1.48,12.81,5.39,7,10.73,13.76,15.87,20.24,3.73,4.72,7.71,5.24,12.52,1.64,2-1.47,3.89-3,5.92-4.54l.33-.26V261.78H29.32c-8.12,0-10.6,2.44-10.61,10.41q0,9.94,0,19.87c0,7.65,2.63,10.23,10.42,10.23h151.5c5.82,0,9.35-2.87,9.44-7.64a7.16,7.16,0,0,0-2-5.3c-1.65-1.71-4.29-2.62-7.63-2.64h-146v-9.35H217c1,0,2,0,3-.05,4.44-.37,7.61-3.7,7.51-7.92a7.74,7.74,0,0,0-7.36-7.57,27.37,27.37,0,0,0-3-.06H53c0-.23,0-.44,0-.64V249.29c0-38.37,0-78,.1-117.06a4.39,4.39,0,0,1,1.53-2.83Q84,106.26,113.51,83.2L156,49.87c1.2-.94,1.54-.94,2.73,0l41.11,32.24c19.78,15.48,40.22,31.51,60.28,47.3a5.06,5.06,0,0,1,1.53,3.27c.15,5.27.13,10.64.11,15.85,0,2.36,0,4.72,0,7.08,0,3.3.91,5.93,2.64,7.59a7.19,7.19,0,0,0,5.36,2c4.72-.14,7.55-3.69,7.57-9.49,0-3.56,0-7.12,0-10.67v-2.16l4.49,3.45,1.6,1.22c5.09,3.9,9.12,3.4,13.1-1.64,5-6.29,10.15-12.89,15.39-19.62C316.21,120.77,315.71,117,310.16,112.6Zm-82.66-92v-4.8h34.05V74.52l-5.22-4.06c-6.31-4.93-12.47-9.74-18.62-14.57-1.1-.87-2.32-1.67-3.48-2.44-2.7-1.79-5.24-3.46-6.32-5.68s-.86-5.26-.61-8.48c.1-1.41.21-2.85.21-4.25C227.49,30.25,227.49,25.47,227.5,20.59Zm60.62,110.77-51-39.93L164.4,34.57c-3-2.34-5-3.51-7-3.51s-4.06,1.2-7.14,3.61L29.78,128.91c-.86.69-1.74,1.35-2.72,2.11l-.43.33-7.85-10,6.4-5,16.35-12.83L149.44,19.07c5.65-4.43,10.1-4.55,15.37-.43Q220.43,62.16,276,105.69l19.35,15.15.6.5Z"/><path class="cls-1" d="M351.36,291.28c-1.91-4.09-5.59-4.62-8.9-4.6-6.87.05-13.64.05-20.8,0h-6.91V256q0-35.88,0-71.75c0-7-2.73-9.71-9.75-9.73q-27.36,0-54.74,0h-2.88c-8.07,0-10.53,2.46-10.53,10.51V286.71h-7c-7.28,0-14.15,0-21.12,0-2.7,0-6.57.43-8.51,4.57s.09,7.27,2.37,9.75l41.51,45.25L268.65,373c2.57,2.8,4.85,4.1,7.16,4.1s4.58-1.29,7.14-4.08l23.95-26.13q20.89-22.82,41.81-45.62C351.06,298.74,353.41,295.64,351.36,291.28Zm-41.94,11h17.21l-50.82,55.45L225,302.3H242.7c7,0,9.72-2.76,9.72-9.75q0-36.81,0-73.64V190.36h46.74V291.91C299.16,299.67,301.75,302.28,309.42,302.29Z"/></g></g></svg>