<svg xmlns="http://www.w3.org/2000/svg" viewBox="0 0 368.09 378.74"><defs><style>.cls-1{fill:#4a668e;}</style></defs><g id="Capa_2" data-name="Capa 2"><g id="Capa_1-2" data-name="Capa 1"><path class="cls-1" d="M314.52,114.48l-7.06-5.54c-7.81-6.14-15.89-12.49-23.92-18.62a6.29,6.29,0,0,1-2.79-5.72c.1-21.86.08-44.08.07-65.57V8.79c0-5.86-2.5-8.72-7.62-8.74-16-.07-32.68-.07-49.63,0-4.76,0-7.44,2.71-7.55,7.58-.07,3,0,6,0,8.89,0,1.28,0,2.55,0,3.83V37.28l-.13-.09c-.56-.41-.94-.69-1.32-1l-11.91-9.33c-8.78-6.9-17.87-14-26.88-20.94-10.29-7.88-22.51-7.84-32.69.11-42.32,33.08-85.33,66.75-126.92,99.3L4,114.85c-4.79,3.75-5.23,7.23-1.52,12,4.6,5.93,9.66,12.38,15.91,20.31,3.71,4.71,7.21,5.12,12.07,1.44,1.89-1.43,3.76-2.87,5.73-4.39l1.71-1.31V266.64l0,0h0l-4.19,0-6.38.07c-5.54.1-8.15,2.69-8.19,8.18s0,10.78,0,16c0,1.8,0,3.6,0,5.41,0,7.69,2.1,9.8,9.77,9.8H157.58l1,0a9.93,9.93,0,0,0,1.8-.14c3.88-.72,6-3.16,6-6.87s-2.17-6.21-6-6.92a14.2,14.2,0,0,0-3.05-.13l-1,0H33.41V280.79H65.56q46.47,0,92.94,0c5.07,0,8.13-2.59,8.17-6.92s-2.95-7-8-7.07c-2.7,0-5.35,0-8.15,0h-3.08V236.35q0-37.33,0-74.67c0-6.89-2.31-9.22-9.15-9.22q-29.39,0-58.75,0c-7.47,0-9.63,2.15-9.63,9.54q0,37.41,0,74.82v29.78H52.23c0-.09,0-.18,0-.27,0-.49-.07-.89-.07-1.29V249.69c0-37.9,0-77.08.11-115.63a6.5,6.5,0,0,1,2.35-4.2c18.07-14.21,36.48-28.64,54.28-42.58,15.88-12.44,32.3-25.31,48.43-38,1.83-1.45,2.75-1.22,4.56.21,35.4,27.78,69.89,54.75,102.52,80.17a5.53,5.53,0,0,1,2.47,5.07c-.11,5.93-.09,12-.06,17.79,0,2.14,0,4.29,0,6.43,0,3.83,1.84,6.42,4.9,6.93a9.39,9.39,0,0,0,6.9-1.75c1.73-1.43,2.06-4.79,2.12-6.17.18-3.81.15-7.53.11-11.47,0-1.27,0-2.54,0-3.82h0c2.43,1.86,4.84,3.73,7.26,5.6l.21.16c5,3.88,8.48,3.49,12.35-1.42,5.65-7.16,10.7-13.6,15.44-19.67C320.32,122,319.92,118.72,314.52,114.48ZM133.19,166.72v99.73H84V166.72ZM230,21.16q0-3.46,0-7h36.54V76.92L264.08,75l-7.27-5.69L251.28,65c-6.38-5-13-10.13-19.39-15.27a4.75,4.75,0,0,1-1.79-2.9C230,38.32,230,30,230,21.16Zm62.89,113.09-96.12-75.2Q181.13,46.8,165.46,34.57c-2.46-1.91-4.21-2.87-6-2.87s-3.55,1-6,2.92L89.86,84.36,29.41,131.65c-.75.59-1.51,1.16-2.4,1.82l-1,.73-9.16-11.63,7.72-6.06q8.92-7,17.75-13.91l51-39.88Q121.89,40.37,150.46,18c6.75-5.27,11.31-5.27,18.07,0L299.12,120.23c.68.53,1.34,1.08,2.12,1.72l.78.64Z"/><path class="cls-1" d="M249.06,163c0,.65,0,1.31,0,2v.14c0,4.09-2,6.75-5.7,7.48s-6.6-1-8.07-5l-.36-1H179.3v42.84c.24.09.49.16.73.24a3.88,3.88,0,0,1,2.4,1.39c.14.25.28.49.42.75,1.16,2,2.47,4.35,2.24,6.49-.49,4.48-4.91,5.48-9.35,5.48-1.26,0-2.52-.08-3.7-.19-4.19-.37-6.8-3.07-6.82-7-.09-20.9-.09-39.58,0-57.13,0-3.17,1.51-6.95,8.55-7q20.79,0,41.57,0H234c2.36,0,4.8,0,7.21,0,5,.11,7.64,2.71,7.8,7.74C249.07,161.16,249.07,162.11,249.06,163Z"/><path class="cls-1" d="M367.82,278.06a93.35,93.35,0,0,1-21.65,53.22c-15.5,18.53-35.34,29.72-59,33.27a98.48,98.48,0,0,1-14.62,1.12A91.63,91.63,0,0,1,246,361.74a105.52,105.52,0,0,1-25.31-11.68l-8.24-5.16.89,9.68.17,1.76.12,1.35.39,4.19c.29,3.14.59,6.27.87,9.4.34,3.79-.46,5.37-3.73,7.05a3.62,3.62,0,0,1-1.64.41h0a4.8,4.8,0,0,1-1.54-.27c-2.5-.9-3.28-2.11-3.71-3.31a12.16,12.16,0,0,1-.6-2.84c-1.32-13.87-2.68-28.42-4-43.24-.5-5.43,2.48-6.58,3.46-7a5.45,5.45,0,0,1,1.51-.35l7.42-.71c12.55-1.18,25.53-2.41,38.28-3.51l.62,0a5.25,5.25,0,0,1,5.18,3.6,5.49,5.49,0,0,1-.44,4.84,5.77,5.77,0,0,1-4.37,2.68c-3.32.39-6.61.68-10.1,1l-4.69.41-12.29,1.49,7.29,5.26c.72.51,2.38,1.8,3.08,2.33,6.15,4.71,23.47,10.28,36.36,10.38h.7c13.43,0,25.29-2.68,36.27-8.18,18.91-9.49,32.11-24.33,39.22-44.1,6.25-17.38,6.22-35.24-.08-53.15a29.31,29.31,0,0,0,14.4-7.87A93.41,93.41,0,0,1,367.82,278.06Z"/><path class="cls-1" d="M339.84,220.69l-18.16,1.69c-8.36.77-17,1.57-25.52,2.38a10.19,10.19,0,0,1-1.08.06,5.43,5.43,0,0,1-5-2.59,5.51,5.51,0,0,1-.46-5.29,5.17,5.17,0,0,1,4-3.09c3.24-.49,6.5-.77,9.94-1.07l4.63-.42,1.5-.14.87-.08,13.65-1.27-11.45-7.54c-10.6-7-25-11-39.54-11a79.69,79.69,0,0,0-41.63,11.71c-27.54,16.85-46.55,54-32.12,94A29.75,29.75,0,0,0,185,305.52a94.25,94.25,0,0,1,14.38-94.17c15.22-18.78,35-30.23,58.71-34A98.7,98.7,0,0,1,273.77,176h0a91.48,91.48,0,0,1,26.2,3.83,103.7,103.7,0,0,1,25,11.47l8.23,5.13-.9-9.66c0-.4-.07-.75-.1-1.07-.05-.56-.1-1-.14-1.47-.12-1.58-.28-3.18-.42-4.72-.34-3.62-.66-7-.76-10.48a5.27,5.27,0,0,1,4.71-5.21,4.85,4.85,0,0,1,.76-.05,5.61,5.61,0,0,1,5.32,3.95,11.61,11.61,0,0,1,.4,2.28c1.44,16.06,2.69,30.22,3.83,43.27C346.34,218,344.46,220.26,339.84,220.69Z"/></g></g></svg>