<svg xmlns="http://www.w3.org/2000/svg" viewBox="0 0 474.33 474.4"><defs><style>.cls-1{fill:#fff;}</style></defs><g id="Capa_2" data-name="Capa 2"><g id="Capa_1-2" data-name="Capa 1"><path class="cls-1" d="M232.57,474.4c-12.73-2.48-22.21-10-30.65-19.36-3.42-3.77-7.33-7.1-10.75-10.86-4.13-4.52-8.81-5.6-14.63-3.86-8.11,2.43-16.34,4.5-24.54,6.65-23.83,6.23-45.37-6.25-51.87-30-2.15-7.88-4.47-15.72-6.31-23.67-1.35-5.84-4.76-9-10.41-10.41-8.37-2.09-16.7-4.35-25-6.65-23.57-6.52-35.85-27.81-29.76-51.58,2.07-8.07,4.19-16.12,6.48-24.11,1.57-5.47.42-9.89-3.71-13.85-6.34-6.09-12.53-12.36-18.68-18.65-16.94-17.34-17-41.86-.05-59.26,6-6.2,12.17-12.28,18.33-18.35,3.63-3.59,4.82-7.63,3.39-12.63-2.44-8.6-4.69-17.25-6.94-25.9-6.14-23.6,6.27-45.19,29.72-51.68C65,98,72.9,95.8,80.86,94,87,92.54,90.3,88.87,91.74,82.84c2-8.24,4.25-16.41,6.51-24.58,6.45-23.3,27.81-35.69,51.22-29.73,7.77,2,15.6,3.79,23.22,6.24,6.59,2.12,11.55.57,16.16-4.42,5.65-6.12,11.69-11.89,17.64-17.73,17.07-16.74,41.68-16.84,58.92-.2,5.88,5.68,11.77,11.38,17.32,17.39,4.53,4.9,9.45,6.13,15.81,4.13,7.93-2.5,16-4.44,24.09-6.53,23.56-6.11,45.11,6.37,51.59,29.88,2.21,8,4.49,16,6.41,24.13,1.34,5.62,4.68,8.72,10.15,10.1q12.77,3.23,25.46,6.77c23.23,6.45,35.58,27.87,29.58,51.32-2.1,8.21-4.27,16.41-6.59,24.56-1.51,5.3-.4,9.65,3.62,13.44,3.7,3.49,7.09,7.32,10.85,10.75,9.57,8.75,17.87,18.27,20.63,31.45v12.05c-2.5,12.9-10.24,22.43-19.65,31-3.77,3.42-7.13,7.27-10.86,10.74-4.19,3.89-5.28,8.34-3.68,13.82,2.46,8.42,4.69,16.92,6.89,25.42,6,23.3-6.4,44.85-29.6,51.36-7.86,2.21-15.7,4.53-23.66,6.28-6.43,1.42-9.67,5.15-11.17,11.36-2.24,9.28-4.59,18.56-7.51,27.63a40.49,40.49,0,0,1-46.28,27.28c-6.64-1.29-13.18-3.16-19.71-5-17.68-4.88-15.82-5.43-28.82,7.75-10.36,10.5-20,21.95-35.67,24.89Zm-176-139.34c.09,6.58,3.35,10.77,9,12.36,8.89,2.52,17.84,4.85,26.77,7.27,15.66,4.25,25.5,14.38,29.87,29.89,2.31,8.16,4.35,16.39,6.61,24.56s7.57,11.27,15.76,9.14c8.65-2.24,17.27-4.63,25.92-6.89,15.68-4.09,29.27-.25,40.8,11,6,5.83,11.77,11.81,17.7,17.67,6.44,6.36,12.42,6.34,18.89-.05,6.7-6.62,13.2-13.45,20-19.91,9.29-8.75,20.48-12.82,33.12-10.63,9.53,1.65,18.87,4.5,28.25,7,11.46,3,16.05.49,19.05-10.77,2.06-7.74,4.16-15.48,6.23-23.22,4.31-16,14.59-26.05,30.55-30.34,8-2.16,16.1-4.25,24.11-6.49s11.12-7.63,9-15.86c-2.25-8.65-4.62-17.28-6.88-25.93-4.1-15.7-.2-29.26,11.13-40.75,5.74-5.83,11.58-11.56,17.33-17.38,6.61-6.68,6.64-12.63.1-19.23s-13-12.79-19.27-19.37c-9.2-9.6-13.52-21.13-11.1-34.3,1.89-10.28,5-20.33,7.6-30.49,2-8-1-13.22-8.91-15.46-8.6-2.43-17.24-4.7-25.87-7-16-4.35-26-14.66-30.25-30.64-2.11-7.89-4.21-15.78-6.39-23.66-2.35-8.5-7.54-11.51-16-9.29s-16.67,4.47-25,6.7q-24.28,6.48-42-11.38-8.5-8.54-17-17C239,28,233.05,28,226.39,34.59s-13,13.24-19.7,19.59c-9.41,8.88-20.71,13-33.53,10.76-9.68-1.72-19.15-4.66-28.68-7.17C133.8,55,129,57.72,126.14,68.51Q123,80.35,119.79,92.18c-4.3,15.84-14.53,25.75-30.25,30.08-8,2.21-16.09,4.28-24.11,6.5C57,131.1,54,136.29,56.27,144.87s4.62,17.28,6.86,25.93c4,15.54.13,29-11,40.38-5.81,6-11.8,11.78-17.66,17.71-6.39,6.47-6.44,12.48-.12,18.89s13,12.82,19.28,19.37c9.25,9.57,13.4,21,11.33,34.25-.94,6.07-2.82,12-4.33,18C59.21,325,57.7,330.68,56.56,335.06Z"/><path class="cls-1" d="M103.67,237.13a133.53,133.53,0,1,1,133.2,133.64A133.48,133.48,0,0,1,103.67,237.13Zm29.64.16c-.13,57,46.21,103.65,103,103.81,58.06.17,104.56-45.77,104.76-103.48a103.89,103.89,0,1,0-207.77-.33Z"/><path class="cls-1" d="M212.05,257.06l32.13-28.17c16.47-14.45,32.86-29,49.44-43.33,9.15-7.9,22.24-3.81,24.72,7.57,1.35,6.19-1.08,11.12-5.73,15.19Q281.26,235.76,250,263.26c-9.28,8.14-18.52,16.32-27.83,24.43-8.82,7.69-16.81,7.15-24.44-1.65q-18.8-21.69-37.53-43.44c-3.2-3.69-5-7.81-4.2-12.72,1-6,4.41-10.22,10.25-12,6.18-1.85,11.62-.17,15.87,4.72,8.92,10.25,17.76,20.56,26.64,30.83C209.7,254.6,210.76,255.68,212.05,257.06Z"/></g></g></svg>