<svg xmlns="http://www.w3.org/2000/svg" viewBox="0 0 537.57 474.47"><defs><style>.cls-1{fill:#fff;}</style></defs><g id="Capa_2" data-name="Capa 2"><g id="Capa_1-2" data-name="Capa 1"><path class="cls-1" d="M537.36,130.67a21.14,21.14,0,0,1-.76-3.38v0c-2.1-19-7.11-35.19-15.3-49.53-24.48-42.89-61-66.78-108.46-71-43.25-3.85-80.5,9.54-110.7,39.8-5.21,5.21-10.45,10.24-16,15.56-2.72,2.61-5.47,5.26-8.28,8l-2.51,2.43L272.93,70c-3.2-3.27-6.38-6.6-9.46-9.82-6.89-7.22-13.4-14-20.42-20.57C208.42,7.45,167.92-5.23,122.69,2,74.47,9.59,35,38.17,14.52,80.34-6.26,123.05-4.65,173.75,18.84,216c4.56,8.2,10.38,15.64,16.54,23.51,2.83,3.63,5.76,7.37,8.57,11.2l1.88,2.58-2.4,2.12c-17,15-22.52,33.87-15.87,54.59C34.28,330.86,50,342.66,74.22,345l2.79.27.34,2.78c3.78,30.56,20.45,47,51,50.16l2.8.29.32,2.79c2.79,24.44,15,40,36.33,46.32s39.87-.16,56.52-19.8l2.49-2.94,2.69,2.76c3.62,3.72,7.18,7.48,10.62,11.11,7.69,8.11,14.95,15.76,22.78,23a47.7,47.7,0,0,0,47.07,10.42,48.21,48.21,0,0,0,33.13-35.71c.49-2.2.81-4.45,1.14-6.83.16-1.11.31-2.21.48-3.31l.37-2.33,2.3-.53c33.37-7.74,43-17.22,49.28-48.32l.53-2.64,2.69-.16c18-1.1,31.33-9.38,39.58-24.62s7.84-31.11-1.28-47.08l-1.36-2.39,2-1.89L457.11,279c12.58-11.92,25.58-24.25,38.38-36.28,17-16,28.84-34.78,35.08-55.78,2.13-7.16,3.6-14.74,5-22.08.62-3.23,1.27-6.56,2-9.85V131.41ZM77.53,319.81c-13.13-.54-21.26-5.43-25.57-15.38-4.2-9.7-2.61-19.12,4.46-26.51,10.52-11,20.52-21,30.56-30.54,9.86-9.41,24.69-9.12,34.5.68s10.11,24.64.71,34.54c-8.78,9.24-19.29,20.09-30.71,30.51a28.75,28.75,0,0,1-7.41,5.36A15.33,15.33,0,0,1,77.53,319.81Zm67.12,46.35a23.4,23.4,0,0,1-16.44,6.7,25.45,25.45,0,0,1-18.12-7.8c-9.55-9.72-9.83-24.71-.62-34.14,19.63-20.14,34.88-35.32,49.43-49.23,2.92-2.8,5.38-5.92,9-7.35a25.51,25.51,0,0,1,2.87-.77,11.26,11.26,0,0,1,3.6-.09h0c11.12,1.74,19.74,7.32,23.84,16.28,4.5,9.84,2.94,19.71-4.26,27.09C176.08,335.14,160,351.27,144.65,366.16Zm74.09,32.08h0l-1.81,1.91a247.86,247.86,0,0,1-18.43,18.07,20,20,0,0,1-7,4.29c-.43.18-1,.39-1.72.61a36.76,36.76,0,0,1-8.64,1.58l-1.39.09h0a24.41,24.41,0,0,1-21.07-15.32c-3.92-10-2.19-19.26,5-26.77,6.25-6.53,12.85-13.13,19.61-19.61,10-9.59,25-9.3,34.89.67C227.88,373.56,228.12,388.38,218.74,398.24Zm91.06,12.62a21.06,21.06,0,0,1,5.46,20,19.85,19.85,0,0,1-13.91,14.17,22.93,22.93,0,0,1-6.63,1,17.2,17.2,0,0,1-12.27-4.9c-8.42-8.14-17-16.89-24.5-24.6l-4.06-4.14c-1.38-1.41-2.76-2.83-4.15-4.24l-1.66-1.69,1-2.17a55,55,0,0,0,1.77-41.09c-4.71-13-14.57-23.85-27.76-30.64l-3.11-1.6,1.6-3.11c12.34-24,9.9-45.59-7.24-64.26-14.49-15.8-33.3-20.65-55.9-14.41l-3,.82-1.19-2.84c-7.47-17.85-20.16-29.08-37.7-33.37-17.88-4.38-34.48,0-49.34,12.91L64.59,229l-4.31-4.82c-3-3.36-6.17-6.85-9-10.61-24.84-33-30-75.65-13.82-114.08S87.69,35.06,128.6,29.79c36.42-4.69,68.59,5.78,95.61,31.13,6.75,6.33,13.19,12.93,19.42,19.31q3.31,3.4,6.68,6.82l2.38,2.41-2.33,2.46-1.23,1.26L232.8,109c-9.93,9.62-20.47,19.83-30.61,29.77-16.41,16.08-21.65,36.31-15.17,58.51,6.26,21.47,21.62,35.09,44.43,39.39,19.27,3.64,36.46-1.78,51.09-16.1,4.12-4,8.06-8.09,12.07-12.24l5.83-6,2.67,2.38c.46.4.85.76,1.21,1.13L338,239.51l.56.56c23.54,23.54,47.85,47.85,71.79,71.73,5.56,5.54,7.48,11.52,5.84,18.27h0A17.68,17.68,0,0,1,404,343a18.09,18.09,0,0,1-17.69-4.4c-6.38-6-12.66-12.37-18.74-18.5l-.69-.7q-4.23-4.29-8.47-8.53L357,309.44c-.75-.77-1.53-1.56-2.33-2.29-7-6.5-16.6-6.63-22.89-.33s-6.09,16.32.35,22.9c5.37,5.5,10.92,11,16.28,16.37l.95,1q5.65,5.63,11.29,11.29c6.12,6.16,8.27,12.61,6.59,19.73-1.83,7.69-6.93,13.32-14,15.42s-15,.06-21-5.57l-28.35-28a23,23,0,0,0-9.95-5.47,14.91,14.91,0,0,0-16.48,8c-3.41,6.48-2.25,13.6,3.11,19.06ZM480,222.61c-6.33,6.69-12.95,13.23-19.67,19.63s-13.53,12.69-20.23,18.86c-6,5.58-12.31,11.35-18.44,17.16l-2.48,2.35-10.88-10.93-30.1-30.22c-21.26-21.29-38.58-38.61-54.49-54.49-14.09-14.06-31.64-14.06-45.79,0-1.75,1.74-3.48,3.5-5.21,5.26-3.82,3.89-7.77,7.91-11.9,11.67a28.7,28.7,0,0,1-40.32-1.78c-10.48-11-10.33-29.15.32-39.56l17.46-17.1c27.76-27.22,56.47-55.35,85.35-82.38,23.55-22,51.13-32.34,81.95-30.65,49.72,2.71,93.81,39.92,104.83,88.46C519.08,157.19,508.85,192.08,480,222.61Z"/></g></g></svg>