<svg xmlns="http://www.w3.org/2000/svg" viewBox="0 0 391.58 474.4"><defs><style>.cls-1{fill:#fff;}</style></defs><g id="Capa_2" data-name="Capa 2"><g id="Capa_1-2" data-name="Capa 1"><path class="cls-1" d="M43.72,474.4a49.08,49.08,0,0,1-18.94-3.61,37.19,37.19,0,0,1-10.39-6.39,40.82,40.82,0,0,1-14-26.78,65.32,65.32,0,0,1-.31-7.4Q0,340.56,0,250.93C0,236.24,4.83,224.08,16.61,215c8.34-6.41,18.08-8.27,29-8.36v-5c0-23.32.11-46.63,0-70C45.37,96.8,56.22,66,80.26,40.6c30.05-31.73,67.16-45.5,110.55-39,46.19,6.87,78.63,32.95,98,75.08,9.4,20.45,12.19,42.33,9.71,64.68-2.25,20.16-24.15,36.43-44.3,34.36a42.2,42.2,0,0,1-38.16-43.52c.41-15.77-4.57-29.26-17.22-39.69-20.31-16.73-51.17-10.6-64,12.39a45,45,0,0,0-6,22.15q-.06,38.46,0,76.9c0,.75.12,1.49.23,2.82h5.54q81.3,0,162.61,0c11.84,0,23,1.64,32.5,9.57,10.31,8.62,15.07,19.8,15.09,32.93q.17,91.5,0,183c-.07,21.83-13.48,37.37-34.82,41.57h0a20.45,20.45,0,0,1-4.17.65Zm128.43-23.86q64.83,0,129.66,0A19.21,19.21,0,0,0,321,431.32q0-90.79,0-181.59c0-12.32-6.88-19.1-19.3-19.1q-129.24,0-258.48,0a25.92,25.92,0,0,0-6.41.61c-8.71,2.22-13.12,8.91-13.12,19.78q0,89.18,0,178.35c0,14.87,6.26,21.15,21.07,21.15ZM105,206.73v-5.57c0-23.94-.07-47.88.06-71.82a82.59,82.59,0,0,1,1.33-15.64,67.36,67.36,0,0,1,65-54.35c30.56-.68,58.77,20.93,66,51.34,2,8.16,1.8,16.81,2.68,25.22a17.7,17.7,0,0,0,35.27-.26c.82-13.66-.41-27.2-4.75-40.24-17.89-53.66-72-82.5-126.54-67.62-40.81,11.13-73.25,51.8-74.25,94-.64,27.17-.31,54.35-.39,81.53a24,24,0,0,0,.42,3.18c1.17.08,2.08.18,3,.18Z"/><path class="cls-1" d="M391.4,115.35a11.66,11.66,0,0,1-6.06,10.24c-13.58,7.89-27.15,15.8-40.85,23.5-6.46,3.64-13.46,1.62-16.75-4.37-3.11-5.65-1.05-12.58,5.18-16.24,13.41-7.88,26.85-15.72,40.43-23.31C382,100.35,391.63,106,391.4,115.35Z"/><path class="cls-1" d="M340,175a30.45,30.45,0,0,1,5.16,2q19.68,11.2,39.23,22.62c6.74,3.93,9,11,5.66,16.84-3.55,6.07-10.46,7.73-17.31,3.84q-20.09-11.41-40-23.12a12.23,12.23,0,0,1-6-13.79C328.15,178.39,333,174.94,340,175Z"/><path class="cls-1" d="M136.65,381.71c0-10.5.15-21-.11-31.5a10.53,10.53,0,0,0-2.55-6.4,53.44,53.44,0,0,1-8.54-61.45c10.69-20.4,33.05-31.3,56.41-27.53,21.54,3.49,39.21,21.42,42.84,43.7,2.82,17.3-2.25,32.24-13.8,45.27a11.43,11.43,0,0,0-2.76,6.79c-.21,20.69-.1,41.39-.13,62.08,0,10.11-4.48,14.5-14.7,14.51q-21.56,0-43.09,0c-8.55,0-13.46-4.86-13.54-13.49C136.58,403,136.66,392.37,136.65,381.71Zm47.74,21.38v-5.27c0-17,.31-33.94-.14-50.9-.21-7.9,2.08-13.64,8.17-18.9,12.39-10.72,12.19-30.71.24-42-12.17-11.5-31.49-10.69-42.16,1.77s-9.71,30.38,3,41.29a21,21,0,0,1,7.18,16.34c-.33,17.49-.11,35-.11,52.48v5.2Z"/></g></g></svg>