<svg xmlns="http://www.w3.org/2000/svg" viewBox="0 0 397.12 474.4"><defs><style>.cls-1{fill:#fff;}</style></defs><g id="Capa_2" data-name="Capa 2"><g id="Capa_1-2" data-name="Capa 1"><path class="cls-1" d="M209.38,0c8.38,1.17,16.84,2,25.13,3.58C307.13,17.71,357.2,59.64,383.18,128.47c22.31,59.12,18,117.33-14,172.44-19.22,33.07-47.09,57.25-80.9,74.68-4,2.08-5.34,3.81-5.07,8.82.47,8.37-.91,16.88-1.89,25.29-1.23,10.57-3,21.08-4.25,31.65-2.29,18.79-16.81,32.06-35.68,32.21-14.21.11-28.41.06-42.62,0-10,0-19.59-2.38-27.36-8.56-7.38-5.87-15.28-5.49-23.48-5.09-.28.49-.55.73-.57,1-.9,11.67-2.84,13.49-14.42,13.49q-19.68,0-39.38,0c-8.61,0-11.89-3.19-11.89-11.65,0-30.27-.08-60.54.09-90.8,0-3.35,1.41-6.7,2.31-10.69-4.83-3.91-10.7-8.35-16.24-13.19C31.66,316.49,9.21,277.12,2.16,229.59c-15-101,49.08-206,159-225.95C169.43,2.13,177.85,1.2,186.21,0Zm-57,345.89c-1.15-.47-2-.84-2.85-1.16C86,320.93,49.91,275.46,45.4,207.64c-3.66-54.95,17.58-100,61.91-133.38C121.6,63.5,137.68,56,154.82,50.91c5.25-1.56,10.08.84,11.72,5.45,1.75,5-.6,9.84-5.81,12-1,.42-2,.74-3,1.07-54,17.32-89.57,62.3-94,118.73-5,64.24,33.6,121,95.15,140.14,3.29,1,4.85.52,6.63-2.41,6.66-10.94,13.56-21.73,20.46-32.51,3.19-5,7.48-6.71,12.16-4.49a176,176,0,0,1,18.36,9.76,30.2,30.2,0,0,1,13.31,18.83c1,4,1.21,8.1,1.82,12.44,1.21-.24,2.4-.43,3.56-.73,68.23-17.66,110.28-90.61,95.86-159.3-8.91-42.46-34.37-72.71-72.43-92.6-7-3.69-14.84-6-22.32-8.82-4.16-1.58-6.81-4.31-6.88-8.87-.06-4.08,1.79-7.46,5.77-8.55a15.25,15.25,0,0,1,8,.19c67.94,20.51,127,92.37,104.6,181.61-16,63.89-56.59,104.7-122.72,117.58A17.3,17.3,0,0,0,221.5,352a235.84,235.84,0,0,0,26.24,1,33.78,33.78,0,0,1,21.53,7.21c2.59,2.06,4.49,2.11,7.38.73C342,329.6,392.09,253.9,375.43,167.36c-16.9-87.79-98.31-164-206.62-146.28C64.43,38.12,6.69,136,20.93,227.85c8.66,55.85,38.78,97.39,86.9,126.4,6.82,4.12,13.69,5.76,21.67,6.28,11.06.72,18-3.15,22.22-13C151.9,347.1,152.08,346.68,152.41,345.89Zm-5.24,95.27c2.27,0,3.94,0,5.61,0,10.46-.37,19.87,1.87,28.71,8.21,4.58,3.3,11.06,5.12,16.79,5.42,14.47.75,29,.35,43.52.23,8.18-.08,15.2-5.66,16.41-13.65,2.54-16.77,4.88-33.59,6.76-50.45,1.24-11.18-6.63-19.27-18-19.35-10.34-.06-20.69,0-31,0-13.13-.08-19.89-11.62-13.6-23.2,2.65-4.88,5.54-9.63,8.08-14.56,4.17-8.1,1.58-16.54-6.33-21-2-1.15-4.09-2.11-6.34-3.26-.93,1.41-1.8,2.67-2.61,4q-15.83,25-31.63,50.09c-3.6,5.72-8,10.57-14.32,13.37a4,4,0,0,0-2,3C147.14,400.06,147.17,420.27,147.17,441.16Zm-18.84,14.51V379.06H100.44v76.61Z"/><path class="cls-1" d="M138.56,241.73c.36-7.87.89-15.73.94-23.6a10.78,10.78,0,0,0-2.29-6.15c-9.26-12-18.72-23.77-28.1-35.63-6.09-7.7-4-14.46,5.4-17.09,14.25-4,28.48-8,42.76-11.9a12,12,0,0,0,7.57-5.36c8.12-12.57,16.47-25,24.8-37.44,5.27-7.88,12.36-7.83,17.69.13,8.32,12.44,16.67,24.87,24.81,37.43a11.37,11.37,0,0,0,7.17,5.14c14.43,3.9,28.82,8,43.21,12,9,2.54,11.2,9.46,5.38,16.87-9.35,11.89-18.87,23.65-28.08,35.65a11.91,11.91,0,0,0-2.3,7.05c.4,15.13,1.19,30.24,1.76,45.36.36,9.69-5.57,14-14.58,10.64-14.16-5.26-28.27-10.66-42.5-15.72a11.76,11.76,0,0,0-7.35,0c-14.38,5.1-28.63,10.56-43,15.82-8.79,3.23-14.56-1.21-14.28-10.55.23-7.55.57-14.84.95-22.68Zm59.95-116.81c-1.25,1.76-2.15,3-3,4.25-6.24,9.37-12.26,18.9-18.83,28a18,18,0,0,1-8.23,6c-7.4,2.6-15.08,4.37-22.64,6.51-4.8,1.36-9.59,2.78-14.91,4.33,6.89,8.7,12.86,17.19,19.81,24.78,6.38,7,8.27,14.34,7.39,23.61-1,10-.21,20.2-.21,30.42.75-.24,2.2-.65,3.62-1.18,10.54-3.9,21-8.1,31.67-11.59a18.23,18.23,0,0,1,10.6,0c10.54,3.42,20.85,7.55,31.25,11.4,1.51.56,3,1.09,5.13,1.83-.52-13.25-.89-25.73-1.57-38.19A15,15,0,0,1,242.13,204c5.32-6.41,10.41-13,15.58-19.54,2.64-3.34,5.23-6.72,8.25-10.61-12.49-3.47-24.29-6.87-36.16-10a16.63,16.63,0,0,1-10.49-7.58C212.7,145.9,205.71,135.73,198.51,124.92Z"/><path class="cls-1" d="M197.92,62.93a9.26,9.26,0,0,1-8.75-9.51,9.22,9.22,0,1,1,18.4,1A9.08,9.08,0,0,1,197.92,62.93Z"/></g></g></svg>