<svg xmlns="http://www.w3.org/2000/svg" viewBox="0 0 420.51 474.4"><defs><style>.cls-1{fill:#fff;}</style></defs><g id="Capa_2" data-name="Capa 2"><g id="Capa_1-2" data-name="Capa 1"><path class="cls-1" d="M336.75,474.4H83.82c-6.89-3.2-9.08-8.68-9.24-16.14a158.74,158.74,0,0,0-20.86-75.94C39.87,358,25.24,334,10.72,310.07A72.06,72.06,0,0,1,0,271.53C.16,229.24.05,187,.09,144.66a75.83,75.83,0,0,1,.62-9.4C2.92,117.85,18.87,104.11,36.89,104s34.31,13.77,36.39,31.44c.76,6.43.7,13,1,19.46,3.73-.55,7.23-1.43,10.73-1.48a37.68,37.68,0,0,1,10.53,1.25c17.2,4.83,27.5,18.55,27.67,36.67.11,11.63.08,23.26,0,34.89,0,2.23.78,3.16,2.69,4.3a66.74,66.74,0,0,1,12.25,8.74c11.44,11,22.5,22.4,33.76,33.59,15,14.89,27.43,31.55,36.09,50.91.53,1.19,1.22,2.31,2.12,4,1.17-2.44,2.13-4.36,3-6.32,6.75-14.65,15.27-28.19,26.53-39.72,15-15.37,30.4-30.36,45.8-45.34a30.92,30.92,0,0,1,8.9-5.73c2.45-1.11,3.06-2.4,3-4.9-.12-11.49-.05-23-.06-34.48,0-26.73,24.66-43,46.75-36.56a12.56,12.56,0,0,0,2.54.17c0-4.8-.11-9.31,0-13.81.46-16.32,10.31-30.19,24.65-34.83,16.28-5.28,31.85-.85,41.81,13.07,3.6,5,5,11.62,7.41,17.5V281.38c-2.08,15.8-10.63,28.71-18.63,41.89-10.34,17.05-20.52,34.18-30.76,51.28-15.46,25.79-24.42,53.59-25.12,83.74C345.82,465.74,343.63,471.2,336.75,474.4ZM321.5,449.61c.18-1.11.33-1.77.38-2.44a188,188,0,0,1,24.53-78.83c13.89-24,28.32-47.75,42.65-71.51a46.56,46.56,0,0,0,6.88-24.91c-.14-42.56-.06-85.13-.07-127.7a39.89,39.89,0,0,0-.1-4.51,12.27,12.27,0,0,0-24.42,0,39.84,39.84,0,0,0-.1,4.51q0,46.6,0,93.21c0,9.77-2.2,19-9.15,26C339.17,286.78,316,309.84,292.89,333a7.87,7.87,0,0,1-1.32,1,12.3,12.3,0,0,1-18.79-9.2c-.42-4.43,1.53-7.87,4.6-10.93q20.07-20,40-40.08c5.73-5.77,6-13.09,1-18.24s-12.35-5-17.94.45c-14.93,14.68-30.29,29-44.37,44.44-19.76,21.69-30.95,47.76-32.6,77.08-1.3,23.06-.65,46.23-.85,69.36a22.94,22.94,0,0,0,.3,2.77Zm-123.82,0c0-22.59.74-44.78-.17-66.9-1.37-32.81-14.06-61.32-36.42-85.28-12.69-13.6-26.09-26.54-39.21-39.74-6.94-7-14.19-7.76-19.69-2.17s-4.63,12.66,2.41,19.71c13.05,13.07,26.15,26.11,39.15,39.23,4.5,4.54,5.3,9.91,2.57,15-2.54,4.73-7.78,7.51-13.14,6a19.1,19.1,0,0,1-7.84-4.8C104.43,310,83.79,289,62.8,268.37c-9.26-9.1-13.64-19.67-13.54-32.63.23-30.38.07-60.77.07-91.16,0-1.37,0-2.74,0-4.1a12.28,12.28,0,0,0-24.54.09c-.08,1.23,0,2.46,0,3.69,0,42.57.07,85.14-.07,127.71a46.35,46.35,0,0,0,6.91,24.9C44.6,318.38,57.47,340,70.43,361.57A199.73,199.73,0,0,1,96.61,431c1.06,6.16,1.73,12.38,2.59,18.64ZM76.52,247.87l1.22-.09c4.48-8.21,10.77-14.4,19.42-18.05.75-.32,1.37-1.89,1.38-2.88.09-12.17.15-24.34,0-36.5a12.27,12.27,0,1,0-24.53.1c-.12,16.27-.16,32.54.07,48.8C74.13,242.14,75.67,245,76.52,247.87Zm266.19-.23,1.37.13c.83-2.63,2.35-5.25,2.38-7.89q.33-25,.06-50a12.23,12.23,0,0,0-24.45-.12c-.23,12.44-.12,24.89,0,37.33a3.61,3.61,0,0,0,1.53,2.78A38.41,38.41,0,0,1,342.71,247.64Z"/><path class="cls-1" d="M201.62,184V41.38l-44,11.78c.37,1.2.56,1.9.81,2.59,7.89,21.7,15.66,43.45,23.75,65.08A36.33,36.33,0,0,1,183.71,141c-3.8,19.72-23.4,33.78-43,30.44-16.47-2.8-26.72-13-31.78-28.64-.79-2.42-1.11-5-1.66-7.5l.13-7.56c.26-1,.48-1.91.81-2.83Q120.58,91.22,133,57.58a35.74,35.74,0,0,1,24.19-22.1q21.24-5.71,42.51-11.31c1.56-.41,2.14-1,2.08-2.71-.14-4.22,0-8.45,0-12.67A7.48,7.48,0,0,1,204,3a27.84,27.84,0,0,1,3.9-2.6L212,0c5.32,2,7.39,5.76,6.93,11.21-.22,2.5,0,5,0,7.74l2.23-.53q20.09-5.36,40.18-10.69A21.38,21.38,0,0,1,286.76,21c8,21.79,15.95,43.64,24.18,65.36a36.24,36.24,0,0,1,1.57,20.12,38.65,38.65,0,0,1-41.93,30.8,39.07,39.07,0,0,1-33.31-30.11c-1.41-6-2-12.11.25-18.2,7.57-20.32,15-40.69,22.52-61,.24-.64.4-1.31.71-2.33L219,36.77V184a11,11,0,0,1-3.77,8.27h0a7.54,7.54,0,0,1-9.9,0h0A10.87,10.87,0,0,1,201.62,184Zm-73.4-63.84h35.43c-5.85-16.1-11.64-32-17.6-48.4C140,88.24,134.13,104.16,128.22,120.2ZM292.37,85.87c-6-16.2-11.83-32.11-17.7-48-5.87,15.95-11.75,31.9-17.68,48ZM166.72,137.58h-41.2c1.5,9.53,11,17.22,21,17.07C156.24,154.5,165.62,146.62,166.72,137.58Zm128.79-34.33H254.26c1.68,9.49,11.12,17.25,20.65,17.07C285,120.13,294.26,112.52,295.51,103.25Z"/></g></g></svg>