<svg xmlns="http://www.w3.org/2000/svg" xmlns:xlink="http://www.w3.org/1999/xlink" viewBox="0 0 739.82 925.36"><defs><style>.cls-1{fill:url(#Degradado_sin_nombre_64);}.cls-2{fill:url(#Degradado_sin_nombre_51);}.cls-3{fill:url(#Degradado_sin_nombre_64-2);}.cls-4{fill:url(#Degradado_sin_nombre_73);}.cls-5{fill:url(#Degradado_sin_nombre_22);}</style><linearGradient id="Degradado_sin_nombre_64" x1="394.19" y1="456.98" x2="522.57" y2="382.86" gradientUnits="userSpaceOnUse"><stop offset="0" stop-color="#e8ebef"/><stop offset="0.59" stop-color="#e5e7ec"/><stop offset="0.73" stop-color="#dfe0e6"/><stop offset="0.94" stop-color="#cdced5"/><stop offset="1" stop-color="#c6c7cf"/></linearGradient><linearGradient id="Degradado_sin_nombre_51" x1="177.66" y1="428.51" x2="405.61" y2="296.9" gradientUnits="userSpaceOnUse"><stop offset="0" stop-color="#cccdd5"/><stop offset="0.53" stop-color="#e8ebef"/><stop offset="1" stop-color="#e0e0e5"/></linearGradient><linearGradient id="Degradado_sin_nombre_64-2" x1="398.47" y1="344.69" x2="536.04" y2="344.69" xlink:href="#Degradado_sin_nombre_64"/><linearGradient id="Degradado_sin_nombre_73" x1="479.14" y1="350.44" x2="520.64" y2="340.86" gradientUnits="userSpaceOnUse"><stop offset="0" stop-color="#e0e0e5"/><stop offset="0.35" stop-color="#dcdce1"/><stop offset="0.73" stop-color="#cfcfd7"/><stop offset="1" stop-color="#c1c1cb"/></linearGradient><linearGradient id="Degradado_sin_nombre_22" x1="-15.8" y1="694.62" x2="734.51" y2="261.43" gradientUnits="userSpaceOnUse"><stop offset="0" stop-color="#bbbbc5"/><stop offset="0.49" stop-color="#e8ebef"/><stop offset="1" stop-color="#bbbbc5"/></linearGradient></defs><g id="Capa_2" data-name="Capa 2"><g id="Capa_1-2" data-name="Capa 1"><path class="cls-1" d="M546.12,423.78v50.78a.44.44,0,0,1-.44.44H426.57a.46.46,0,0,1-.31-.13L401.37,450l-26.52-26.53a.42.42,0,0,1-.13-.31V362.93a.44.44,0,0,1,.44-.44h50.78a.45.45,0,0,1,.45.44v59.95a.45.45,0,0,0,.45.45H545.68A.45.45,0,0,1,546.12,423.78Z"/><path class="cls-2" d="M292.27,363l95.59,95.59a.45.45,0,0,1-.32.76H315.76a.44.44,0,0,1-.31-.13l-59.7-59.69a.43.43,0,0,0-.63,0L205.06,449.6a.45.45,0,0,0,.25.76l87.88,8.12a.45.45,0,0,1-.06.89H195.74a.45.45,0,0,1-.45-.44V266.49a.45.45,0,0,1,.45-.44h50.78a.44.44,0,0,1,.44.44v67.06a.45.45,0,0,0,.76.31l67.69-67.68a.42.42,0,0,1,.31-.13h71.82a.45.45,0,0,1,.32.76l-95.59,95.58A.43.43,0,0,0,292.27,363Z"/><path class="cls-3" d="M398.47,275.9l4.4,4.21,4.37,4.22,8.74,8.46q8.7,8.49,17.37,17c5.79,5.67,11.54,11.39,17.31,17.09l17.23,17.16,17.16,17.23c5.7,5.76,11.42,11.51,17.09,17.3s11.36,11.57,17,17.38l8.46,8.74,4.23,4.37,4.2,4.39-4.39-4.2L527.28,405l-8.74-8.46q-8.71-8.47-17.38-17c-5.79-5.67-11.54-11.39-17.3-17.09l-17.23-17.16-17.16-17.23c-5.7-5.77-11.42-11.52-17.09-17.31s-11.36-11.57-17-17.37l-8.46-8.74-4.22-4.37Z"/><path class="cls-4" d="M500.08,363.5a6.58,6.58,0,0,0,1.55-.93q1.65-1.43,1.65-5.05a10.08,10.08,0,0,0-.46-3.21,5.06,5.06,0,0,0-1.36-2.15,5.53,5.53,0,0,0-2.34-1.21,13.77,13.77,0,0,0-3.44-.37h-1.4a.45.45,0,0,1-.45-.45v-9.31a.45.45,0,0,1,.45-.44h1.4a10.88,10.88,0,0,0,3.44-.49,6.35,6.35,0,0,0,2.36-1.38,5.41,5.41,0,0,0,1.36-2.06,7.09,7.09,0,0,0,.44-2.49,4.26,4.26,0,0,0-1.61-3.67,6.45,6.45,0,0,0-3.91-1.17,7.33,7.33,0,0,0-4.74,1.59q-1.87,1.5-2,5.34a.44.44,0,0,1-.44.44H476.27a.46.46,0,0,1-.45-.46A20.75,20.75,0,0,1,477,329.6a16.78,16.78,0,0,1,3.7-6,17.73,17.73,0,0,1,6.69-4.27,28.48,28.48,0,0,1,10.08-1.58q7.52,0,12.14,2.34a16.08,16.08,0,0,1,6.78,5.89,13.68,13.68,0,0,1,2.15,7.18A11.55,11.55,0,0,1,517,339a11.92,11.92,0,0,1-7.22,5.54.44.44,0,0,0,0,.85,11.17,11.17,0,0,1,3.07,1.39,12.13,12.13,0,0,1,4.15,4.57,13.73,13.73,0,0,1,1.53,6.57,17.34,17.34,0,0,1-2.19,8.48,16.15,16.15,0,0,1-6.87,6.46Z"/><path class="cls-5" d="M612.3,650.34l65.17,113c3.38,5.86,6.87,11.67,10.1,17.61,12.79,23.59-2.05,48.25-29,47.51-27.76-.76-55.51-2.09-83.23-3.75-8.12-.49-12.67,1.74-16.4,9.31-11.82,24-24.66,47.41-36.8,71.22-6.21,12.16-15.31,20-29.26,20.12-13.56.15-22.42-7.49-29-18.94q-44.4-77.52-89.22-154.79c-1.31-2.26-2.83-4.41-5-7.75-2.44,3.87-4.45,6.8-6.2,9.87-28.6,49.91-57.28,99.77-85.64,149.81-7,12.41-16.2,21.08-31.1,20.72-14.55-.35-23-9.42-29.26-21.74-12.22-24.14-25.07-48-37.3-72.11-2.84-5.62-6.14-7.49-12.55-7.12-28.4,1.61-56.85,2.46-85.27,3.83-12.93.63-23.42-3.52-30.19-14.78-7-11.62-5.4-23.14,1.26-34.56q34.5-59.2,68.72-118.56c1.67-2.89,3.25-5.84,5.06-9.11C38.53,568.75-6,468.38.66,348,6.33,246.38,48.82,161,124.73,92.85,269.89-37.5,495.5-29.63,633.52,110.34,780.8,259.71,776.25,507.46,612.3,650.34Zm67.13-278.81c.63-170.25-136.64-308.11-307-309.37C219.39,61,61.54,178.53,62.05,377.76c.44,170.56,143.49,301.07,307.43,301.13C540.67,679,678.79,542.43,679.43,371.53ZM249.12,830.73l56.61-96.54a377.1,377.1,0,0,1-125.71-48l-45.1,78.09c18.22-.8,34.42-1,50.51-2.36,18.94-1.64,31.71,5.62,39.79,22.91C232.22,799.85,240.47,814.25,249.12,830.73ZM563.59,687.62c-21.33,9.85-40.85,20.12-61.3,27.94-20.64,7.88-42.21,13.32-63.87,20,.71,1.52,1.4,3.38,2.37,5.07,17,29.56,34.13,59.1,52,90,9.35-17.7,18.06-34,26.64-50.45,6.64-12.69,17-18.8,31.34-18.21,8.12.34,16.23.92,24.35,1.07,10.29.19,20.57.05,32.08.05Z"/></g></g></svg>