<svg xmlns="http://www.w3.org/2000/svg" viewBox="0 0 444.53 474.42"><defs><style>.cls-1{fill:#fff;}</style></defs><g id="Capa_2" data-name="Capa 2"><g id="Capa_1-2" data-name="Capa 1"><path class="cls-1" d="M427.12,271a2,2,0,0,1-3.49,1.44c-3.15-3.14-6-6-8.91-8.87-7.77-7.73-11.37-7.71-18.69.2q-62,66.76-124,133.55c-10,10.82-17.31,11.16-28.58,1.48q-34.85-30-69.74-59.92c-7.36-6.3-10.49-6.13-17.37.71q-55.69,55.5-111.37,111c-5,5-10.31,8.34-17.68,5.93a15.09,15.09,0,0,1-7.48-23.87,53,53,0,0,1,4.65-5Q87.08,365.32,149.68,303a20.8,20.8,0,0,1,28.19-1.08q34.27,29.35,68.45,58.82c8.3,7.14,11.4,6.93,18.94-1.18q54.62-58.89,109.29-117.74c7.55-8.14,7.54-11-.47-18.91-3-3-6.16-5.93-9.27-8.88a2.06,2.06,0,0,1,1.42-3.54q28.68,0,57.37,0a12.12,12.12,0,0,1,1.76.16,2,2,0,0,1,1.76,2ZM169.3,357.57q32.08,27.54,64.2,55.08a49.8,49.8,0,0,0,9.7,6.83c13.74,6.88,28.15,3.64,39.91-9q58.22-62.54,116.29-125.22c1.64-1.76,3.32-3.51,5.58-5.88a2,2,0,0,1,3,.05c4,4.58,7.56,8.9,11.56,12.74,4.31,4.14,9.75,4.9,15.31,2.59a14.76,14.76,0,0,0,9.44-12.47,37.78,37.78,0,0,0,.2-5.11q0-32.64,0-65.29c0-12.95-5.6-18.5-18.76-18.55-11.77-.05-45.24,1.76-65.79,2.73-13.42.63-20.11,17.06-10.51,26.44l.76.7c2.79,2.4,5.55,4.85,8.51,7.44a2.07,2.07,0,0,1,.14,2.94l-26.61,28.65c-17.66,19.24-58.69,62.52-76.46,81.66-.12.11.21-.14,0,0a2.64,2.64,0,0,1-3.39-.25c-17.06-14.68-56.31-46.72-71.11-59.21a26.72,26.72,0,0,0-12.82-6,30.63,30.63,0,0,0-3.75-.41c-9.83-.44-18,3.61-24.82,10.5q-14.43,14.47-29,28.86c-1,1-13.79,13.71-20.52,20.31l-3.89,3.77C73,355.28,59.27,368.82,45.57,382.42c-.07.07-21.45,21.17-23.2,22.95l-.09.08c-4.38,5.16-9.6,9.63-14.08,14.71-14.52,16.46-9.09,42.76,11,51.54,12.8,5.59,26.15,2.54,37.55-8.79Q108.9,411,160.92,359.08c.51-.51,1.77-1.83,2.82-2.93a2.55,2.55,0,0,1,3.42-.25Z"/><path class="cls-1" d="M402.41,144.53c-.2-2.14-1.54-4.12-4.35-6.43L391.81,133c-7.61-6.27-15.49-12.75-23.3-19a5,5,0,0,1-2.08-4.49c.08-31.56.06-63.65,0-94.69C366.47,5.54,361,0,351.71,0c-17.86,0-32.37,0-45.66,0-8.84,0-14.36,5.5-14.42,14.28q0,8.44,0,16.87,0,3.73,0,7.47v12c-.34-.26-.65-.5-1-.76l-19-15.62Q254.84,20.45,238,6.67c-10.66-8.73-22.9-8.71-33.58,0Q180,26.78,155.6,46.85L99.36,93,44,138.54c-2.44,2-3.66,3.9-3.86,6s.66,4.2,2.7,6.65q9.1,10.93,18.27,21.8c4.15,4.92,7.77,5.23,12.94,1.13l1.79-1.44V323.38H68.63c-6.68,0-13.29,0-19.9,0-5.74,0-8.55,2.84-8.6,8.57,0,4.72,0,9.44,0,14.16v5.31c0,8.54,2.08,10.77,10.12,10.87h0a1.48,1.48,0,0,0,1-.43q6.15-6.08,12.27-12.16a1.5,1.5,0,0,0-1.06-2.57H55.4v-8.53H74.09a1.46,1.46,0,0,0,1.06-.44c5.08-5.08,10-10.09,14.72-14.87l.71-.69a1.5,1.5,0,0,0,.45-1.08V310.21c0-48.55,0-98.75.09-148.13a5.34,5.34,0,0,1,1.79-3.39c24.31-20.05,49.05-40.39,73-60.07l53.85-44.31c1.35-1.12,1.73-1.12,3.1,0,43.07,35.49,85.57,70.41,126.34,103.79a5.76,5.76,0,0,1,2.39,5.13q0,8.56,0,17.12a1.5,1.5,0,0,0,2.46,1.16,14.06,14.06,0,0,1,8.39-3.23h.24l2.44-.12a1.5,1.5,0,0,0,1.42-1.5v-4.23l1.65,1.34c5.55,4.52,9.15,4.18,13.73-1.3l8-9.59q4.75-5.67,9.51-11.34C401.69,148.81,402.61,146.65,402.41,144.53ZM306.61,25.41c0-3.41,0-6.83,0-10.28h44.67V99.66l-.31-.25q-6.82-5.58-13.63-11.19c-9.36-7.69-19-15.64-28.59-23.4a5.29,5.29,0,0,1-2.2-4.81C306.63,48.53,306.62,37.3,306.61,25.41Zm67.05,133.51-45.92-37.71L227.72,39c-2.57-2.11-4.5-3.17-6.43-3.17s-3.91,1.08-6.55,3.25L69.61,158.33c-.22.19-.45.37-.73.59L58.23,146.24l2.94-2.43,6.15-5.07,37.17-30.53q54.12-44.46,108.23-88.93c7-5.7,10.16-5.7,17.17,0q54.21,44.55,108.44,89.08L382.8,145c.47.39.92.79,1.47,1.29h0Z"/><path class="cls-1" d="M210.79,286.51a1.5,1.5,0,0,1-2.46,1.16l-12.25-10.13a1.52,1.52,0,0,1-.54-1.16V194.94H127.15v90.85a1.52,1.52,0,0,1-.44,1.07L114.53,299a1.52,1.52,0,0,1-1.06.43,1.48,1.48,0,0,1-1.5-1.5v-108c0-7.92,2.33-10.22,10.37-10.22h78.59c7.36,0,9.85,2.52,9.85,10Q210.8,238.07,210.79,286.51Z"/><path class="cls-1" d="M328.39,181.82c-1.5-1.49-3.84-2.15-7.21-2.16H241.09c-6.72,0-9.34,2.64-9.35,9.37q0,34,0,68.12c0,6.72,2.64,9.34,9.37,9.34h72.94a1.5,1.5,0,0,0,1.09-.47c6-6.4,10.93-11.66,15-16.08a1.47,1.47,0,0,0,.4-1q0-30,0-59.91C330.55,185.65,329.89,183.32,328.39,181.82Zm-55,13v20.49H246.88V194.83Zm0,56.44H246.93V230.75h26.44Zm15.44-56.45h26.48v20.51H288.81Zm26.58,56.52H288.92V230.81h26.47Z"/></g></g></svg>