<svg xmlns="http://www.w3.org/2000/svg" xmlns:xlink="http://www.w3.org/1999/xlink" viewBox="0 0 631.96 751.11"><defs><style>.cls-1{fill:url(#Degradado_sin_nombre_51);}.cls-2{fill:url(#Degradado_sin_nombre_64);}.cls-3{fill:url(#Degradado_sin_nombre_73);}.cls-4{fill:url(#Degradado_sin_nombre_22);}.cls-5{fill:url(#Degradado_sin_nombre_89);}.cls-6{fill:url(#Degradado_sin_nombre_79);}</style><linearGradient id="Degradado_sin_nombre_51" x1="174.27" y1="672.69" x2="340.85" y2="576.52" gradientUnits="userSpaceOnUse"><stop offset="0" stop-color="#cccdd5"/><stop offset="0.53" stop-color="#e8ebef"/><stop offset="1" stop-color="#e0e0e5"/></linearGradient><linearGradient id="Degradado_sin_nombre_64" x1="335.63" y1="611.43" x2="436.16" y2="611.43" gradientUnits="userSpaceOnUse"><stop offset="0" stop-color="#e8ebef"/><stop offset="0.59" stop-color="#e5e7ec"/><stop offset="0.73" stop-color="#dfe0e6"/><stop offset="0.94" stop-color="#cdced5"/><stop offset="1" stop-color="#c6c7cf"/></linearGradient><linearGradient id="Degradado_sin_nombre_73" x1="394.57" y1="615.64" x2="424.9" y2="608.64" gradientUnits="userSpaceOnUse"><stop offset="0" stop-color="#e0e0e5"/><stop offset="0.35" stop-color="#dcdce1"/><stop offset="0.73" stop-color="#cfcfd7"/><stop offset="1" stop-color="#c1c1cb"/></linearGradient><linearGradient id="Degradado_sin_nombre_22" x1="-39.98" y1="665.65" x2="578.95" y2="308.31" gradientUnits="userSpaceOnUse"><stop offset="0" stop-color="#bbbbc5"/><stop offset="0.49" stop-color="#e8ebef"/><stop offset="1" stop-color="#bbbbc5"/></linearGradient><linearGradient id="Degradado_sin_nombre_89" x1="319.31" y1="271.63" x2="374.61" y2="239.71" gradientUnits="userSpaceOnUse"><stop offset="0" stop-color="#d8dae1"/><stop offset="1" stop-color="#c7c7d0"/></linearGradient><linearGradient id="Degradado_sin_nombre_79" x1="247.77" y1="297.06" x2="326.65" y2="251.52" gradientUnits="userSpaceOnUse"><stop offset="0" stop-color="#e3e6eb"/><stop offset="1" stop-color="#d1d3da"/></linearGradient></defs><g id="Capa_2" data-name="Capa 2"><g id="Capa_1-2" data-name="Capa 1"><path class="cls-1" d="M258,624.83l69.85,69.85a.33.33,0,0,1-.23.56H275.19a.29.29,0,0,1-.23-.1l-43.63-43.62a.32.32,0,0,0-.46,0L194.29,688.1a.32.32,0,0,0,.19.55l64.21,5.94a.33.33,0,0,1,0,.65H187.48a.33.33,0,0,1-.33-.33V554.29a.32.32,0,0,1,.33-.32h37.11a.32.32,0,0,1,.32.32v49a.33.33,0,0,0,.56.23l49.46-49.46a.32.32,0,0,1,.23-.09h52.48a.32.32,0,0,1,.23.55L258,624.37A.32.32,0,0,0,258,624.83Z"/><path class="cls-2" d="M335.63,561.17l3.21,3.07,3.19,3.09,6.39,6.18q6.36,6.21,12.7,12.43c4.23,4.15,8.43,8.33,12.64,12.49L386.35,611l12.55,12.59c4.16,4.22,8.34,8.42,12.48,12.65s8.3,8.45,12.44,12.7l6.18,6.38,3.09,3.2,3.07,3.21L433,658.63l-3.2-3.09-6.38-6.18q-6.37-6.21-12.7-12.43c-4.24-4.15-8.43-8.33-12.65-12.49l-12.59-12.55L372.89,599.3c-4.16-4.21-8.34-8.41-12.49-12.64S352.11,578.2,348,574l-6.18-6.39-3.09-3.19Z"/><path class="cls-3" d="M409.88,625.18a4.36,4.36,0,0,0,1.13-.68c.8-.69,1.2-1.92,1.2-3.68a7.31,7.31,0,0,0-.33-2.35,3.71,3.71,0,0,0-1-1.57,4,4,0,0,0-1.71-.89,10.2,10.2,0,0,0-2.51-.27h-1a.33.33,0,0,1-.33-.33v-6.8a.32.32,0,0,1,.33-.32h1a7.78,7.78,0,0,0,2.51-.36,4.61,4.61,0,0,0,1.72-1,3.92,3.92,0,0,0,1-1.51,5.19,5.19,0,0,0,.31-1.82,3.09,3.09,0,0,0-1.17-2.67,4.71,4.71,0,0,0-2.86-.86,5.39,5.39,0,0,0-3.46,1.16q-1.37,1.1-1.44,3.9a.33.33,0,0,1-.33.32H392.48a.33.33,0,0,1-.33-.33,15.07,15.07,0,0,1,.86-4.7,12.35,12.35,0,0,1,2.7-4.41,12.9,12.9,0,0,1,4.89-3.11,20.52,20.52,0,0,1,7.36-1.16,19.75,19.75,0,0,1,8.88,1.71,11.82,11.82,0,0,1,5,4.3,10,10,0,0,1,1.57,5.25,8.48,8.48,0,0,1-1.11,4.3,8.57,8.57,0,0,1-3,3.09,8.37,8.37,0,0,1-2.24,1,.32.32,0,0,0,0,.62,7.88,7.88,0,0,1,2.25,1,8.84,8.84,0,0,1,3,3.34,10.09,10.09,0,0,1,1.11,4.8,12.61,12.61,0,0,1-1.6,6.19,11.69,11.69,0,0,1-5,4.72Z"/><path class="cls-4" d="M624.67,712.68c-44.31-46.22-78.44-99.39-106.15-156.81-46.64-96.58-70.19-198.85-74.31-305.8a27,27,0,0,1,.14-3.2,3,3,0,0,1,3-2.75c17.92,0,35.38,0,52.82,0a42,42,0,0,0,8.77-.63c15.85-3.55,23.87-23.43,8.81-39.36C457.68,140.55,398.23,76.45,338.41,12.7A79.16,79.16,0,0,0,329.71,5a22.68,22.68,0,0,0-27.64-.55,37.08,37.08,0,0,0-4.56,4Q245.13,64.07,193.1,120,153,162.93,112.85,205.88c-6.82,7.28-9.21,15.64-5.07,25,4,8.88,11.27,13.2,21,13.25,7.83.05,15.67,0,23.5,0h32.37a3,3,0,0,1,3,3c0,1.39,0,2.56,0,3.7-3.27,85.53-19.15,168.57-49.91,248.53C107.22,578.79,65.46,651.54,6.44,713.64a19.43,19.43,0,0,0-2.47,3C-6.54,733.17,5,751,24.27,751q97.37.11,194.68,0,194,0,387.94,0c10.58,0,18.78-3.62,23.11-13.53C634.07,728.26,631.58,719.89,624.67,712.68ZM178.8,199.9,313.74,55.43a3.06,3.06,0,0,1,4.44,0c44.69,47.83,89.14,95.4,135,144.47ZM554.34,706.41H463.16v.16H443.42a.4.4,0,0,0,.1-.23V669.23a.31.31,0,0,0-.33-.32H356.36a.32.32,0,0,1-.33-.33V624.76a.33.33,0,0,0-.32-.33H318.6a.33.33,0,0,0-.33.33v44a.3.3,0,0,0,.1.23l19.39,19.39,18.18,18.18H176.18a2.45,2.45,0,0,1-.7.09h-98a3,3,0,0,1-2.39-4.83l.28-.38c71.72-93.78,117.36-199.24,140.7-314.62a829.63,829.63,0,0,0,16.11-160.45v-.14a12.28,12.28,0,0,1,12.19-12.39H391a8.82,8.82,0,0,1,8.72,9v.09C401,399.19,449.63,560,556.69,701.59l.28.56C558.13,704.5,557,706.41,554.34,706.41Z"/><path class="cls-5" d="M371.56,234.63a5.05,5.05,0,0,0-3.73-1.12H326.41c-3.47,0-4.83,1.36-4.83,4.84q0,17.61,0,35.23c0,3.47,1.36,4.83,4.84,4.83h37.72c8.93,0,8.53-3.26,8.53-9.09h0q0-15.49,0-31A5,5,0,0,0,371.56,234.63Zm-28.46,6.72V252H329.41v-10.6Zm0,29.19H329.43V259.93h13.68Zm8-29.19h13.69V252H351.09Zm13.75,29.22H351.15V260h13.69Z"/><path class="cls-6" d="M308.19,322.05h-42a7,7,0,0,1-7-7V233.51a7,7,0,0,1,7-7h42a7,7,0,0,1,7,7v81.56A7,7,0,0,1,308.19,322.05Zm-35-13.95h28V240.48h-28Z"/></g></g></svg>